<svg xmlns="http://www.w3.org/2000/svg" version="1.1" xmlns:xlink="http://www.w3.org/1999/xlink" width="100" height="100"><svg xmlns="http://www.w3.org/2000/svg" version="1.1" xmlns:xlink="http://www.w3.org/1999/xlink" width="100" height="100"><svg width="100" height="100" viewBox="0 0 100 100" fill="none" xmlns="http://www.w3.org/2000/svg">
<g clip-path="url(#clip0_4698_2214)">
<path d="M79 0H21C9.40202 0 0 9.40202 0 21V79C0 90.598 9.40202 100 21 100H79C90.598 100 100 90.598 100 79V21C100 9.40202 90.598 0 79 0Z" fill="#D9D9D9"></path>
<path d="M60.407 82.454H63.501C64.775 82.454 65.776 82.3023 66.504 81.999C67.2927 81.6957 67.8387 81.3317 68.142 80.907C68.506 80.4217 68.688 79.8757 68.688 79.269C68.7487 78.6623 68.7183 78.086 68.597 77.54C68.2937 76.5693 67.9903 75.4773 67.687 74.264C67.4443 73.0507 67.0803 71.7767 66.595 70.442C65.867 68.258 64.7143 66.3167 63.137 64.618C61.5597 62.9193 59.315 62.07 56.403 62.07C54.583 62.07 52.8843 62.616 51.307 63.708C49.7903 64.7393 48.3343 66.074 46.939 67.712C45.5437 69.2893 44.1787 71.0183 42.844 72.899C41.57 74.719 40.205 76.448 38.749 78.086C37.3537 79.6633 35.8673 80.998 34.29 82.09C32.7127 83.1213 30.9533 83.637 29.012 83.637C26.646 83.637 24.6743 82.909 23.097 81.453C21.5197 79.997 20.731 77.6613 20.731 74.446C20.731 72.5653 21.004 70.5027 21.55 68.258C22.1567 65.9527 22.915 63.526 23.825 60.978C24.735 58.3693 25.7663 55.6393 26.919 52.788C28.1323 49.9367 29.3153 47.0247 30.468 44.052C31.014 42.6567 31.651 41.0187 32.379 39.138C33.107 37.2573 33.8653 35.316 34.654 33.314C35.4427 31.312 36.201 29.3707 36.929 27.49C37.7177 25.5487 38.385 23.8803 38.931 22.485C39.2343 21.6357 39.4467 20.9987 39.568 20.574C39.6893 20.0887 39.75 19.6033 39.75 19.118C39.75 18.026 39.1433 17.48 37.93 17.48H31.196C30.9533 17.48 30.832 17.389 30.832 17.207V17.116C30.832 16.9947 30.9533 16.934 31.196 16.934H67.596C67.778 16.934 67.869 16.9947 67.869 17.116V17.207C67.869 17.389 67.778 17.48 67.596 17.48H62.136C60.8013 17.48 59.952 17.9047 59.588 18.754C59.224 19.6033 59.224 20.665 59.588 21.939C62.136 31.403 64.7143 40.8063 67.323 50.149C69.9317 59.4917 72.7527 68.8343 75.786 78.177C76.2713 79.6937 76.878 80.7857 77.606 81.453C78.3947 82.1203 79.7293 82.454 81.61 82.454H84.431C84.613 82.454 84.704 82.5147 84.704 82.636V82.818C84.704 82.9393 84.613 83 84.431 83H60.407C60.2857 83 60.225 82.9393 60.225 82.818V82.636C60.225 82.5147 60.2857 82.454 60.407 82.454ZM36.201 45.508H31.287C30.8017 46.782 30.195 48.329 29.467 50.149C28.739 51.969 28.011 53.88 27.283 55.882C26.6157 57.884 26.009 59.886 25.463 61.888C24.9777 63.8293 24.735 65.5583 24.735 67.075C24.735 69.5623 25.4327 71.352 26.828 72.444C28.2233 73.4753 29.7703 73.991 31.469 73.991C32.6217 73.991 33.7743 73.718 34.927 73.172C36.0797 72.5653 37.2627 71.807 38.476 70.897C39.6893 69.987 40.933 68.986 42.207 67.894C43.481 66.802 44.7853 65.7707 46.12 64.8V55.336C46.12 51.878 45.3313 49.3907 43.754 47.874C42.1767 46.2967 39.659 45.508 36.201 45.508ZM39.75 23.486C39.568 23.85 39.204 24.7297 38.658 26.125C38.1727 27.5203 37.5357 29.219 36.747 31.221C35.9583 33.223 35.109 35.4373 34.199 37.864C33.289 40.23 32.379 42.596 31.469 44.962H36.201C39.7803 44.962 42.3283 44.1733 43.845 42.596C45.3617 41.0187 46.12 38.4403 46.12 34.861V19.027C44.846 19.0877 43.6327 19.391 42.48 19.937C41.388 20.483 40.478 21.666 39.75 23.486ZM62.5 55.791C62.0147 54.0923 61.5293 52.3937 61.044 50.695C60.6193 48.9357 60.1643 47.2067 59.679 45.508H56.494C52.9147 45.508 50.3667 46.2663 48.85 47.783C47.394 49.2997 46.666 51.8173 46.666 55.336V64.436C48.2433 63.4047 49.8207 62.5553 51.398 61.888C52.9753 61.16 54.6133 60.796 56.312 60.796C57.7073 60.796 58.7993 60.9477 59.588 61.251C60.4373 61.4937 61.1653 61.615 61.772 61.615C62.0753 61.615 62.2877 61.5847 62.409 61.524C62.7123 61.342 62.8943 61.0387 62.955 60.614C63.0763 60.1287 63.1067 59.613 63.046 59.067C63.046 58.521 62.9853 57.9447 62.864 57.338C62.7427 56.7313 62.6213 56.2157 62.5 55.791ZM56.494 44.962H59.497C58.2837 40.594 57.1613 36.5597 56.13 32.859C55.0987 29.1583 54.2493 26.1553 53.582 23.85C53.1573 22.394 52.4293 21.2413 51.398 20.392C50.3667 19.5427 48.7893 19.0877 46.666 19.027V34.861C46.666 38.319 47.4243 40.867 48.941 42.505C50.5183 44.143 53.036 44.962 56.494 44.962Z" fill="black"></path>
</g>
<defs>
<clipPath id="clip0_4698_2214">
<rect width="100" height="100" fill="white"></rect>
</clipPath>
</defs>
</svg></svg><style>@media (prefers-color-scheme: light) { :root { filter: none; } }
@media (prefers-color-scheme: dark) { :root { filter: none; } }
</style></svg>