<svg width="3197" height="2655" viewBox="0 0 3197 2655" fill="none" xmlns="http://www.w3.org/2000/svg">
<path d="M2521.12 1641.75H2687.74V79.7383H153.421H0V1672.47V2649.31H2981.38V1945.47L2521.12 1641.75Z" fill="#E9E8E6"/>
<g opacity="0.4">
<path d="M2521.12 1641.75H2687.74V79.7383H153.421H0V1672.47V2649.31H2981.38V1945.47L2521.12 1641.75Z" fill="black"/>
</g>
<path d="M2690.16 79.5371H155.738V1641.55H2690.16V79.5371Z" fill="#E9E8E6"/>
<path d="M2983.8 1945.27L2690.15 1641.45H155.738L495.017 1945.27H2983.8Z" fill="#E9E8E6"/>
<path d="M2562.62 208.681H273.397V1503.64H2562.62V208.681Z" fill="#263238"/>
<path d="M1845.38 625.425C1843.64 625.661 1841.88 625.661 1840.14 625.425H1824.63L1765.2 626.029L1766.41 625.123C1756.33 660.28 1743.64 707.223 1728.13 762.728L1724.3 776.63V762.225C1724.3 690.4 1724.3 603.565 1723.69 507.967L1728.73 508.571L1699.01 623.108L1698.51 625.123H1632.33L1634.84 623.108L1602.71 762.829L1597.67 784.789V762.225C1597.67 666.828 1597.67 580.295 1598.28 507.967L1602.21 508.571C1586.89 556.723 1573.8 597.924 1563.22 631.368V632.376H1561.81L1486.26 631.771L1561.81 631.066L1560.4 632.074C1570.47 598.528 1583.37 557.126 1598.28 508.874L1602.11 496.181V509.478C1602.11 581.806 1602.11 668.339 1602.11 763.736L1597.07 763.131C1607.14 718.404 1618.02 671.562 1629.1 623.41V621.396H1695.39L1692.87 623.31C1702.94 584.023 1713.02 545.642 1723.09 508.773L1728.13 489.532V509.679C1728.13 605.278 1728.13 692.112 1727.52 763.937L1723.69 763.433C1739.61 708.029 1753.21 661.186 1763.28 626.13V625.224H1764.19L1823.62 625.828H1839.14L1845.38 625.425Z" fill="#E9E8E6"/>
<path d="M2329.12 1205.66C2327.89 1203.07 2326.88 1200.37 2326.09 1197.61C2323.61 1189.98 2320.23 1182.68 2316.02 1175.85C2309.24 1164.9 2301.23 1154.76 2292.15 1145.63C2282.07 1134.85 2268.88 1123.46 2254.67 1110.87C2238.65 1097.52 2224.04 1082.57 2211.05 1066.25C2195.63 1047.15 2187.53 1023.19 2188.19 998.652C2190.98 971.917 2201.17 946.489 2217.6 925.216C2233.42 902.55 2253.77 882.504 2272 860.241C2290.76 839.591 2304.24 814.705 2311.29 787.711C2315.9 762.19 2311.67 735.858 2299.3 713.066C2276.73 668.541 2242.48 637.212 2222.94 604.271C2205.43 579.311 2195.88 549.638 2195.54 519.149C2195.88 510.929 2197.48 502.81 2200.28 495.073C2201.18 492.342 2202.36 489.709 2203.8 487.216C2200.12 497.514 2198.04 508.319 2197.66 519.25C2198.71 549.119 2208.59 578.006 2226.06 602.256C2246.21 634.492 2280.26 665.418 2303.63 710.85C2316.63 734.593 2321.11 762.075 2316.32 788.719C2309.21 816.584 2295.37 842.281 2276.03 863.565C2257.49 886.13 2237.35 905.975 2221.83 928.238C2205.94 948.655 2195.98 973.05 2193.02 998.753C2192.34 1022.19 2199.94 1045.13 2214.48 1063.53C2227.24 1079.69 2241.54 1094.57 2257.19 1107.95C2271.19 1120.64 2283.89 1132.33 2294.26 1143.41C2303.26 1152.8 2311.17 1163.17 2317.83 1174.34C2322.17 1181.38 2325.56 1188.97 2327.91 1196.9C2328.59 1199.78 2329 1202.71 2329.12 1205.66Z" fill="white"/>
<path d="M2209.24 1205.66C2208.32 1202.94 2207.91 1200.07 2208.03 1197.2C2208.58 1189.03 2211.03 1181.09 2215.18 1174.03C2221.54 1162.95 2229.36 1152.79 2238.45 1143.81C2248.53 1132.93 2262.03 1122.15 2275.83 1109.76C2291.51 1097 2304.22 1080.98 2313.1 1062.82C2321.69 1041.31 2323.48 1017.69 2318.24 995.126C2312.81 969.891 2302.54 945.946 2288.02 924.611C2273.61 902.147 2255.98 880.488 2239.36 857.118C2222.39 834.638 2209.16 809.569 2200.17 782.875C2191.51 757.677 2191.05 730.38 2198.86 704.906C2207.21 682.557 2219.8 662.033 2235.94 644.464C2250.24 627.641 2264.65 612.934 2276.23 598.428C2295.74 576.298 2308.17 548.82 2311.89 519.551C2312.43 508.786 2311.06 498.011 2307.86 487.719C2308.29 488.304 2308.63 488.949 2308.87 489.633C2308.87 490.942 2310.18 492.957 2310.98 495.576C2313.24 503.395 2314.26 511.518 2314.01 519.652C2310.89 549.444 2298.73 577.567 2279.15 600.241C2267.57 615.049 2253.36 629.958 2238.86 646.781C2223.26 663.943 2211.12 683.952 2203.1 705.711C2195.73 730.241 2196.3 756.469 2204.71 780.659C2213.57 806.771 2226.56 831.292 2243.19 853.29C2259.71 876.56 2277.34 898.319 2291.95 921.186C2306.55 942.997 2316.81 967.417 2322.17 993.111C2327.55 1016.66 2325.47 1041.31 2316.22 1063.63C2307.02 1082.27 2293.81 1098.64 2277.54 1111.58C2263.34 1123.97 2250.14 1134.44 2239.76 1144.92C2230.67 1153.7 2222.74 1163.62 2216.19 1174.44C2211.97 1181.19 2209.29 1188.79 2208.33 1196.7C2208.74 1202.84 2209.54 1205.56 2209.24 1205.66Z" fill="white"/>
<path d="M2417.46 1205.66C2417.46 1207.07 2354.6 1208.28 2277.14 1208.28C2199.67 1208.28 2136.81 1207.07 2136.81 1205.66C2136.81 1204.25 2199.57 1202.84 2277.04 1202.84C2354.5 1202.84 2417.46 1204.15 2417.46 1205.66Z" fill="white"/>
<path d="M2397.32 487.618C2397.32 489.028 2334.46 490.237 2256.99 490.237C2179.52 490.237 2116.67 489.028 2116.67 487.618C2116.67 486.208 2179.42 484.999 2256.99 484.999C2334.56 484.999 2397.32 486.006 2397.32 487.618Z" fill="white"/>
<path d="M2206.52 370.765C2206.52 372.175 1872.08 373.384 1459.56 373.384C1047.05 373.384 712.606 372.175 712.606 370.765C712.606 369.354 1046.95 368.146 1459.56 368.146C1872.18 368.146 2206.52 369.254 2206.52 370.765Z" fill="white"/>
<path d="M891.11 406.224C862.243 408.817 833.247 409.691 804.276 408.843C775.305 409.691 746.309 408.817 717.441 406.224C746.309 403.63 775.305 402.756 804.276 403.605C833.247 402.756 862.243 403.63 891.11 406.224Z" fill="white"/>
<path d="M1002.53 968.734C973.666 971.454 944.664 972.362 915.691 971.453C886.718 972.362 857.716 971.454 828.856 968.734C857.724 966.14 886.72 965.266 915.691 966.114C944.662 965.266 973.658 966.14 1002.53 968.734Z" fill="white"/>
<path d="M1002.53 1116.31C973.658 1118.9 944.662 1119.78 915.691 1118.93C886.72 1119.78 857.724 1118.9 828.856 1116.31C857.724 1113.72 886.72 1112.84 915.691 1113.69C944.662 1112.84 973.658 1113.72 1002.53 1116.31Z" fill="white"/>
<path d="M933.42 465.759C916.764 468.339 899.887 469.217 883.052 468.378C866.218 469.221 849.341 468.344 832.685 465.759C849.341 463.173 866.218 462.296 883.052 463.139C899.887 462.3 916.764 463.178 933.42 465.759Z" fill="white"/>
<path d="M940.875 497.692C922.021 500.28 902.971 501.157 883.959 500.311C864.913 501.159 845.83 500.282 826.942 497.692C845.83 495.101 864.913 494.225 883.959 495.073C902.971 494.227 922.021 495.103 940.875 497.692Z" fill="white"/>
<path d="M940.875 532.95C922.026 535.598 902.971 536.474 883.959 535.569C864.913 536.477 845.824 535.6 826.942 532.95C845.83 530.359 864.913 529.482 883.959 530.331C902.971 529.485 922.021 530.361 940.875 532.95Z" fill="white"/>
<path d="M940.875 568.207C922.026 570.855 902.971 571.732 883.959 570.826C864.913 571.735 845.824 570.858 826.942 568.207C845.83 565.617 864.913 564.74 883.959 565.588C902.971 564.742 922.021 565.619 940.875 568.207Z" fill="white"/>
<path d="M940.875 603.968C922.021 606.556 902.971 607.433 883.959 606.587C864.913 607.435 845.83 606.558 826.942 603.968C845.824 601.317 864.913 600.44 883.959 601.349C902.971 600.443 922.026 601.32 940.875 603.968Z" fill="white"/>
<path d="M940.875 639.427C922.021 642.015 902.971 642.892 883.959 642.046C864.913 642.894 845.83 642.018 826.942 639.427C845.824 636.776 864.913 635.899 883.959 636.808C902.971 635.902 922.026 636.779 940.875 639.427Z" fill="white"/>
<path d="M1086.54 465.759C1069.88 468.339 1053 469.217 1036.17 468.378C1019.34 469.221 1002.46 468.344 985.802 465.759C1002.46 463.173 1019.34 462.296 1036.17 463.139C1053 462.3 1069.88 463.178 1086.54 465.759Z" fill="white"/>
<path d="M1093.99 497.692C1075.14 500.28 1056.09 501.157 1037.08 500.311C1018.03 501.159 998.947 500.282 980.06 497.692C998.947 495.101 1018.03 494.225 1037.08 495.073C1056.09 494.227 1075.14 495.103 1093.99 497.692Z" fill="white"/>
<path d="M1093.99 532.95C1075.14 535.598 1056.09 536.474 1037.08 535.569C1018.03 536.477 998.942 535.6 980.06 532.95C998.947 530.359 1018.03 529.482 1037.08 530.331C1056.09 529.485 1075.14 530.361 1093.99 532.95Z" fill="white"/>
<path d="M1093.99 568.207C1075.14 570.855 1056.09 571.732 1037.08 570.826C1018.03 571.735 998.942 570.858 980.06 568.207C998.947 565.617 1018.03 564.74 1037.08 565.588C1056.09 564.742 1075.14 565.619 1093.99 568.207Z" fill="white"/>
<path d="M1093.99 603.968C1075.14 606.556 1056.09 607.433 1037.08 606.587C1018.03 607.435 998.947 606.558 980.06 603.968C998.942 601.317 1018.03 600.44 1037.08 601.349C1056.09 600.443 1075.14 601.32 1093.99 603.968Z" fill="white"/>
<path d="M1093.99 639.427C1075.14 642.015 1056.09 642.892 1037.08 642.046C1018.03 642.894 998.947 642.018 980.06 639.427C998.942 636.776 1018.03 635.899 1037.08 636.808C1056.09 635.902 1075.14 636.779 1093.99 639.427Z" fill="white"/>
<path d="M940.875 680.124C922.021 682.712 902.971 683.589 883.959 682.743C864.913 683.591 845.83 682.715 826.942 680.124C845.824 677.473 864.913 676.597 883.959 677.505C902.971 676.599 922.026 677.476 940.875 680.124Z" fill="white"/>
<path d="M1093.99 680.124C1075.14 682.712 1056.09 683.589 1037.08 682.743C1018.03 683.591 998.947 682.715 980.06 680.124C998.942 677.473 1018.03 676.597 1037.08 677.505C1056.09 676.599 1075.14 677.476 1093.99 680.124Z" fill="white"/>
<path d="M940.875 720.822C922.021 723.411 902.971 724.287 883.959 723.442C864.913 724.29 845.83 723.413 826.942 720.822C845.824 718.172 864.913 717.295 883.959 718.203C902.971 717.298 922.026 718.174 940.875 720.822Z" fill="white"/>
<path d="M1093.99 720.822C1075.14 723.411 1056.09 724.287 1037.08 723.442C1018.03 724.29 998.947 723.413 980.06 720.822C998.942 718.172 1018.03 717.295 1037.08 718.203C1056.09 717.298 1075.14 718.174 1093.99 720.822Z" fill="white"/>
<path d="M940.875 761.52C922.021 764.108 902.971 764.985 883.959 764.139C864.913 764.987 845.83 764.11 826.942 761.52C845.824 758.869 864.913 757.992 883.959 758.901C902.971 757.995 922.026 758.872 940.875 761.52Z" fill="white"/>
<path d="M1093.99 761.52C1075.14 764.108 1056.09 764.985 1037.08 764.139C1018.03 764.987 998.947 764.11 980.06 761.52C998.942 758.869 1018.03 757.992 1037.08 758.901C1056.09 757.995 1075.14 758.872 1093.99 761.52Z" fill="white"/>
<path d="M940.875 802.217C922.021 804.805 902.971 805.682 883.959 804.836C864.913 805.684 845.83 804.808 826.942 802.217C845.824 799.566 864.913 798.689 883.959 799.598C902.971 798.692 922.026 799.569 940.875 802.217Z" fill="white"/>
<path d="M1093.99 802.217C1075.14 804.805 1056.09 805.682 1037.08 804.836C1018.03 805.684 998.947 804.808 980.06 802.217C998.942 799.566 1018.03 798.689 1037.08 799.598C1056.09 798.692 1075.14 799.569 1093.99 802.217Z" fill="white"/>
<path d="M696.992 1276.88C696.992 1276.88 696.992 1275.57 696.992 1273.26C696.992 1270.94 696.992 1267.21 696.992 1263.18C696.992 1253.82 696.992 1240.22 696.992 1222.89C696.992 1187.63 696.992 1136.46 696.388 1071.79C696.388 943.247 695.682 762.123 695.179 550.981L697.596 553.499H352.979L355.598 550.88C355.598 832.034 355.598 1087.8 354.893 1276.88L352.979 1274.97L604.113 1275.98L672.916 1276.48H690.847H697.093H691.25H673.621L605.322 1276.99L352.979 1277.99H350.964V1276.08C350.964 1087 350.964 831.228 350.259 550.074L352.979 548.06H697.093H699.611V550.477C699.107 762.023 698.705 943.952 698.402 1072.99C698.402 1137.06 698.402 1187.93 697.798 1223.09C697.798 1240.32 697.798 1253.31 697.798 1263.39C697.798 1267.72 697.798 1271.04 697.798 1273.46C697.634 1274.62 697.365 1275.77 696.992 1276.88Z" fill="#BFDBFE"/>
<path d="M1716.54 925.518C1716.54 926.928 1519.5 928.137 1276.32 928.137C1033.15 928.137 836.108 926.928 836.108 925.518C836.108 924.107 1033.15 922.898 1276.32 922.898C1519.5 922.898 1716.54 924.007 1716.54 925.518Z" fill="white"/>
<path d="M1109.2 961.883C1090.43 965.376 1071.17 965.376 1052.39 961.883C1071.17 958.39 1090.43 958.39 1109.2 961.883Z" fill="white"/>
<path d="M1306.85 1033.51C1306.85 1034.92 1200.67 1036.13 1069.72 1036.13C938.759 1036.13 832.583 1034.92 832.583 1033.51C832.583 1032.1 938.759 1030.89 1069.72 1030.89C1200.67 1030.89 1306.85 1031.59 1306.85 1033.51Z" fill="white"/>
<path d="M1289.82 1070.58C1289.82 1071.99 1189.09 1073.2 1065.08 1073.2C941.075 1073.2 840.339 1071.99 840.339 1070.58C840.339 1069.17 941.075 1067.96 1065.08 1067.96C1189.09 1067.96 1289.82 1069.07 1289.82 1070.58Z" fill="white"/>
<path d="M1435.29 1026.05C1421.86 1028.69 1408.14 1029.57 1394.49 1028.67C1381 1029.52 1367.46 1028.64 1354.19 1026.05C1367.47 1023.52 1381 1022.64 1394.49 1023.43C1408.14 1022.6 1421.85 1023.48 1435.29 1026.05Z" fill="white"/>
<path d="M1558.69 1026.05C1544.04 1028.7 1529.12 1029.58 1514.26 1028.67C1499.4 1029.58 1484.49 1028.7 1469.84 1026.05C1484.5 1023.47 1499.4 1022.59 1514.26 1023.43C1529.12 1022.59 1544.03 1023.47 1558.69 1026.05Z" fill="white"/>
<path d="M1910.66 1209.39C1909.58 1212.1 1907.97 1214.57 1905.92 1216.64C1899.85 1222.53 1891.9 1226.1 1883.46 1226.72C1870.08 1228.04 1856.66 1224.77 1845.38 1217.45C1831.45 1206.93 1819.19 1194.36 1809.02 1180.18C1796.71 1163.54 1780.71 1149.99 1762.27 1140.59C1740.99 1130.11 1717.36 1125.32 1693.67 1126.69C1667.48 1128.07 1642.39 1137.66 1621.95 1154.09C1600.29 1170.61 1581.65 1192.47 1557.88 1210.6C1546.35 1219.94 1533 1226.8 1518.69 1230.75C1504.52 1234.13 1489.69 1233.61 1475.78 1229.24C1448.68 1220.57 1427.43 1203.35 1405.27 1192.37C1394.56 1186.71 1382.99 1182.9 1371.02 1181.08C1359.68 1179.8 1348.21 1180.62 1337.17 1183.5C1317.23 1189.33 1298.08 1197.59 1280.15 1208.08C1265.17 1216.74 1249.46 1224.09 1233.21 1230.04C1220.8 1234.59 1207.74 1237.08 1194.53 1237.4C1186.2 1237.54 1177.91 1236.21 1170.05 1233.47C1167.33 1232.56 1165.41 1231.45 1164.1 1230.95C1162.79 1230.45 1162.09 1229.94 1162.19 1229.84C1172.52 1233.73 1183.49 1235.61 1194.53 1235.38C1207.43 1234.72 1220.15 1232 1232.2 1227.32C1248.23 1221.13 1263.7 1213.58 1278.44 1204.76C1296.5 1193.88 1315.86 1185.31 1336.06 1179.27C1347.64 1176.18 1359.7 1175.26 1371.62 1176.55C1384.11 1178.32 1396.2 1182.2 1407.38 1188.04C1430.45 1199.22 1451.81 1216.24 1477.9 1224.3C1490.95 1228.43 1504.89 1228.88 1518.19 1225.61C1531.8 1221.8 1544.48 1215.25 1555.46 1206.37C1578.33 1188.74 1597.27 1166.88 1619.53 1149.86C1640.82 1132.91 1666.9 1123.08 1694.08 1121.75C1718.47 1120.46 1742.78 1125.57 1764.59 1136.56C1783.5 1146.39 1799.85 1160.5 1812.34 1177.76C1822.1 1191.83 1833.92 1204.36 1847.4 1214.93C1858.03 1222.22 1870.79 1225.76 1883.66 1225.01C1891.76 1224.54 1899.47 1221.34 1905.52 1215.94C1909.15 1212.01 1910.36 1209.19 1910.66 1209.39Z" fill="white"/>
<path d="M525.237 599.738C501.827 602.324 478.26 603.199 454.722 602.357C431.185 603.199 407.617 602.324 384.207 599.738C407.608 597.025 431.182 596.116 454.722 597.018C478.262 596.116 501.837 597.025 525.237 599.738Z" fill="white"/>
<path d="M651.963 602.155C639.138 604.727 626.031 605.608 612.978 604.774C599.924 605.616 586.817 604.736 573.993 602.155C586.809 599.515 599.924 598.634 612.978 599.536C626.032 598.642 639.146 599.523 651.963 602.155Z" fill="white"/>
<path d="M525.237 637.01C501.827 639.596 478.26 640.471 454.722 639.629C431.185 640.471 407.617 639.596 384.207 637.01C407.613 634.363 431.185 633.488 454.722 634.391C478.26 633.488 501.832 634.363 525.237 637.01Z" fill="white"/>
<path d="M651.963 639.427C639.138 642 626.031 642.88 612.978 642.046C599.924 642.888 586.817 642.008 573.993 639.427C586.809 636.788 599.924 635.907 612.978 636.808C626.032 635.914 639.146 636.795 651.963 639.427Z" fill="white"/>
<path d="M525.237 674.282C501.827 676.868 478.26 677.744 454.722 676.902C431.185 677.744 407.617 676.868 384.207 674.282C407.613 671.636 431.185 670.76 454.722 671.663C478.26 670.76 501.832 671.636 525.237 674.282Z" fill="white"/>
<path d="M651.963 676.7C639.138 679.272 626.031 680.153 612.978 679.319C599.924 680.161 586.817 679.28 573.993 676.7C586.817 674.119 599.924 673.238 612.978 674.081C626.031 673.247 639.138 674.127 651.963 676.7Z" fill="white"/>
<path d="M525.237 711.554C501.827 714.14 478.26 715.015 454.722 714.173C431.185 715.015 407.617 714.14 384.207 711.554C407.617 708.968 431.185 708.093 454.722 708.935C478.26 708.093 501.827 708.968 525.237 711.554Z" fill="white"/>
<path d="M651.963 713.972C639.138 716.545 626.031 717.425 612.978 716.591C599.924 717.434 586.817 716.553 573.993 713.972C586.817 711.392 599.924 710.511 612.978 711.353C626.031 710.519 639.138 711.4 651.963 713.972Z" fill="white"/>
<path d="M525.237 748.827C501.827 751.413 478.26 752.289 454.722 751.447C431.185 752.289 407.617 751.413 384.207 748.827C407.617 746.241 431.185 745.366 454.722 746.208C478.26 745.366 501.827 746.241 525.237 748.827Z" fill="white"/>
<path d="M651.963 751.245C639.146 753.877 626.032 754.758 612.978 753.864C599.924 754.765 586.809 753.884 573.993 751.245C586.817 748.664 599.924 747.783 612.978 748.625C626.031 747.792 639.138 748.672 651.963 751.245Z" fill="white"/>
<path d="M525.237 786.099C501.832 788.745 478.26 789.621 454.722 788.718C431.185 789.621 407.613 788.745 384.207 786.099C407.617 783.513 431.185 782.638 454.722 783.48C478.26 782.638 501.827 783.513 525.237 786.099Z" fill="white"/>
<path d="M651.963 788.517C639.146 791.149 626.032 792.03 612.978 791.136C599.924 792.038 586.809 791.157 573.993 788.517C586.817 785.937 599.924 785.056 612.978 785.898C626.031 785.064 639.138 785.945 651.963 788.517Z" fill="white"/>
<path d="M525.237 823.371C501.832 826.017 478.26 826.893 454.722 825.99C431.185 826.893 407.613 826.017 384.207 823.371C407.617 820.785 431.185 819.91 454.722 820.752C478.26 819.91 501.827 820.785 525.237 823.371Z" fill="white"/>
<path d="M651.963 825.79C639.155 828.487 626.036 829.402 612.978 828.509C599.92 829.416 586.799 828.501 573.993 825.79C586.817 823.209 599.924 822.328 612.978 823.17C626.031 822.336 639.138 823.217 651.963 825.79Z" fill="white"/>
<path d="M525.237 860.341C501.832 862.987 478.26 863.863 454.722 862.96C431.185 863.863 407.613 862.987 384.207 860.341C407.617 857.755 431.185 856.88 454.722 857.722C478.26 856.88 501.827 857.755 525.237 860.341Z" fill="white"/>
<path d="M651.963 863.162C639.138 865.734 626.031 866.615 612.978 865.781C599.924 866.623 586.817 865.742 573.993 863.162C586.809 860.522 599.924 859.641 612.978 860.543C626.032 859.648 639.146 860.53 651.963 863.162Z" fill="white"/>
<path d="M525.237 898.016C501.827 900.603 478.26 901.478 454.722 900.636C431.185 901.478 407.617 900.603 384.207 898.016C407.613 895.37 431.185 894.495 454.722 895.398C478.26 894.495 501.832 895.37 525.237 898.016Z" fill="white"/>
<path d="M651.963 900.635C639.138 903.208 626.031 904.089 612.978 903.255C599.924 904.097 586.817 903.216 573.993 900.635C586.809 897.996 599.924 897.115 612.978 898.016C626.032 897.122 639.146 898.003 651.963 900.635Z" fill="white"/>
<path d="M525.237 935.289C501.827 937.875 478.26 938.751 454.722 937.908C431.185 938.751 407.617 937.875 384.207 935.289C407.613 932.643 431.185 931.767 454.722 932.67C478.26 931.767 501.832 932.643 525.237 935.289Z" fill="white"/>
<path d="M651.963 937.706C639.138 940.279 626.031 941.16 612.978 940.326C599.924 941.168 586.817 940.287 573.993 937.706C586.809 935.067 599.924 934.186 612.978 935.087C626.032 934.193 639.146 935.074 651.963 937.706Z" fill="white"/>
<path d="M525.237 972.562C501.827 975.148 478.26 976.023 454.722 975.181C431.185 976.023 407.617 975.148 384.207 972.562C407.613 969.915 431.185 969.04 454.722 969.942C478.26 969.04 501.832 969.915 525.237 972.562Z" fill="white"/>
<path d="M651.963 974.979C639.138 977.552 626.031 978.432 612.978 977.598C599.924 978.44 586.817 977.56 573.993 974.979C586.817 972.398 599.924 971.518 612.978 972.36C626.031 971.526 639.138 972.407 651.963 974.979Z" fill="white"/>
<path d="M525.237 1009.83C501.827 1012.42 478.26 1013.29 454.722 1012.45C431.185 1013.29 407.617 1012.42 384.207 1009.83C407.617 1007.25 431.185 1006.37 454.722 1007.21C478.26 1006.37 501.827 1007.25 525.237 1009.83Z" fill="white"/>
<path d="M651.963 1012.25C639.138 1014.82 626.031 1015.7 612.978 1014.87C599.924 1015.71 586.817 1014.83 573.993 1012.25C586.817 1009.67 599.924 1008.79 612.978 1009.63C626.031 1008.8 639.138 1009.68 651.963 1012.25Z" fill="white"/>
<path d="M525.237 1047.11C501.827 1049.69 478.26 1050.57 454.722 1049.72C431.185 1050.57 407.617 1049.69 384.207 1047.11C407.617 1044.52 431.185 1043.64 454.722 1044.49C478.26 1043.64 501.827 1044.52 525.237 1047.11Z" fill="white"/>
<path d="M651.963 1049.52C639.146 1052.16 626.032 1053.04 612.978 1052.14C599.924 1053.04 586.809 1052.16 573.993 1049.52C586.817 1046.94 599.924 1046.06 612.978 1046.9C626.031 1046.07 639.138 1046.95 651.963 1049.52Z" fill="white"/>
<path d="M525.237 1084.38C501.832 1087.02 478.26 1087.9 454.722 1087C431.185 1087.9 407.613 1087.02 384.207 1084.38C407.617 1081.79 431.185 1080.92 454.722 1081.76C478.26 1080.92 501.827 1081.79 525.237 1084.38Z" fill="white"/>
<path d="M651.963 1086.8C639.146 1089.43 626.032 1090.31 612.978 1089.42C599.924 1090.32 586.809 1089.44 573.993 1086.8C586.817 1084.22 599.924 1083.34 612.978 1084.18C626.031 1083.34 639.138 1084.22 651.963 1086.8Z" fill="white"/>
<path d="M525.237 1121.65C501.832 1124.3 478.26 1125.17 454.722 1124.27C431.185 1125.17 407.613 1124.3 384.207 1121.65C407.617 1119.06 431.185 1118.19 454.722 1119.03C478.26 1118.19 501.827 1119.06 525.237 1121.65Z" fill="white"/>
<path d="M651.963 1124.07C639.155 1126.77 626.036 1127.68 612.978 1126.79C599.92 1127.7 586.799 1126.78 573.993 1124.07C586.817 1121.49 599.924 1120.61 612.978 1121.45C626.031 1120.62 639.138 1121.5 651.963 1124.07Z" fill="white"/>
<path d="M525.237 1158.92C501.832 1161.57 478.26 1162.44 454.722 1161.54C431.185 1162.44 407.613 1161.57 384.207 1158.92C407.617 1156.34 431.185 1155.46 454.722 1156.3C478.26 1155.46 501.827 1156.34 525.237 1158.92Z" fill="white"/>
<path d="M651.963 1162.55C639.082 1164.96 625.932 1165.6 612.877 1164.46C599.823 1164.99 586.754 1163.84 573.993 1161.04C586.848 1158.69 599.96 1158.08 612.978 1159.23C626.062 1158.63 639.168 1159.75 651.963 1162.55Z" fill="white"/>
<path d="M575.404 1210.9C561.063 1224.09 545.591 1235.99 529.166 1246.46L527.756 1247.47L526.245 1246.56L524.533 1245.46C507.107 1235.39 490.591 1223.83 475.172 1210.9C493.407 1219.45 510.866 1229.56 527.353 1241.12L529.066 1242.23H526.144C541.564 1230.29 558.054 1219.81 575.404 1210.9Z" fill="white"/>
<path d="M2983.8 2138.38H454.621V2649.31H2983.8V2138.38Z" fill="#E9E8E6"/>
<path d="M187.771 465.759L591.219 425.263L651.963 191.052H187.771V465.759Z" fill="#E9E8E6"/>
<path d="M235.621 1363.22L612.978 1389L683.695 1508.07L235.621 1543.94V1347.8" fill="#E9E8E6"/>
<path d="M2252.96 191.052L2339.39 378.421L2674.94 404.31L2631.93 191.052H2252.96Z" fill="#E9E8E6"/>
<path d="M2089.77 1525.9L2166.33 1347.8L2567.56 1320.6L2587.1 1540.51L2089.77 1525.9Z" fill="#E9E8E6"/>
<path d="M2695.19 1641.45C2695.19 1642.96 2125.13 1645.58 1422.09 1647.49C719.054 1649.41 148.787 1649.61 148.787 1648.2C148.787 1646.79 718.751 1644.07 1421.99 1642.25C2125.23 1640.44 2695.19 1640.04 2695.19 1641.45Z" fill="#263238"/>
<path d="M931.003 1803.94L1017.64 1876.77H1243.08L1152.12 1803.94H931.003Z" fill="white"/>
<path d="M1344.83 1803.94L1431.46 1876.77H1656.8L1565.94 1803.94H1344.83Z" fill="white"/>
<path d="M509.422 1803.94L594.443 1876.77H829.259L738.294 1803.94H509.422Z" fill="white"/>
<path d="M1758.65 1803.94L1845.18 1876.77H2070.63L1979.66 1803.94H1758.65Z" fill="white"/>
<path d="M1152.12 1803.94L1243.08 1876.77H1431.46L1344.83 1803.94H1152.12Z" fill="#E9E8E6"/>
<path d="M1565.94 1803.94L1656.8 1876.77H1845.18L1758.65 1803.94H1565.94Z" fill="#E9E8E6"/>
<path d="M2060.76 1710.05L2172.37 1803.94H1979.66L2070.63 1876.77H2259L2060.76 1710.05Z" fill="#E9E8E6"/>
<path d="M738.294 1803.94L829.259 1876.77H1017.63L931.002 1803.94H738.294Z" fill="#E9E8E6"/>
<path d="M509.422 1803.94L399.922 1710.05L509.422 1803.94Z" fill="#BFDBFE"/>
<path d="M1979.66 1803.94L1862.41 1710.05H1646.93L1758.65 1803.94H1979.66Z" fill="#E9E8E6"/>
<path d="M621.037 1710.05H399.922L509.422 1803.94H738.294L621.037 1710.05Z" fill="#E9E8E6"/>
<path d="M1565.94 1803.94L1448.68 1710.05H1233.11L1344.82 1803.94H1565.94Z" fill="#E9E8E6"/>
<path d="M1152.12 1803.94L1034.86 1710.05H819.386L931.001 1803.94H1152.12Z" fill="#E9E8E6"/>
<path d="M1344.83 1803.94L1233.11 1710.05H1034.86L1152.12 1803.94H1344.83Z" fill="white"/>
<path d="M1758.65 1803.94L1646.93 1710.05H1448.68L1565.94 1803.94H1758.65Z" fill="white"/>
<path d="M2172.37 1803.94L2060.76 1710.05H1862.41L1979.66 1803.94H2172.37Z" fill="white"/>
<path d="M931.002 1803.94L819.386 1710.05H621.037L738.294 1803.94H931.002Z" fill="white"/>
<g opacity="0.2">
<path d="M1152.12 1803.94L1243.08 1876.77H1431.46L1344.83 1803.94H1152.12Z" fill="black"/>
</g>
<g opacity="0.4">
<path d="M1565.94 1803.94L1656.8 1876.77H1845.18L1758.65 1803.94H1565.94Z" fill="black"/>
</g>
<g opacity="0.6">
<path d="M2060.76 1710.05L2172.37 1803.94H1979.66L2070.63 1876.77H2259L2060.76 1710.05Z" fill="black"/>
</g>
<g opacity="0.6">
<path d="M738.294 1803.94L829.259 1876.77H1017.63L931.002 1803.94H738.294Z" fill="black"/>
</g>
<g opacity="0.2">
<path d="M1979.66 1803.94L1862.41 1710.05H1646.93L1758.65 1803.94H1979.66Z" fill="black"/>
</g>
<g opacity="0.4">
<path d="M621.037 1710.05H399.922L509.422 1803.94H738.294L621.037 1710.05Z" fill="black"/>
</g>
<g opacity="0.6">
<path d="M1565.94 1803.94L1448.68 1710.05H1233.11L1344.82 1803.94H1565.94Z" fill="black"/>
</g>
<g opacity="0.4">
<path d="M1152.12 1803.94L1034.86 1710.05H819.386L931.001 1803.94H1152.12Z" fill="black"/>
</g>
<path d="M2259.61 1710.05L2457.86 1876.77H2785.95L2597.98 1710.05H2259.61Z" fill="#263238"/>
<path d="M655.187 2649.31C654.905 2647.34 654.905 2645.34 655.187 2643.37C655.187 2638.94 655.187 2633.29 655.187 2626.44C655.187 2611.03 655.187 2589.78 654.381 2563.79C654.381 2510.09 654.381 2436.56 653.575 2354.16V2351.23H681.58H776.977L774.559 2352.95C793.397 2290.79 809.716 2237.2 821.401 2198.32L835.404 2153.79L839.332 2141.9C839.707 2140.49 840.284 2139.13 841.045 2137.88C840.905 2139.31 840.635 2140.72 840.239 2142.11L837.015 2154.19L823.517 2200.13L778.488 2355.36V2357.08H655.187L657.806 2354.46C657.806 2436.86 657.202 2510.4 657 2564.09C657 2590.08 656.396 2611.33 656.194 2626.75C656.194 2633.7 656.194 2639.24 656.194 2643.67C656.058 2645.58 655.72 2647.47 655.187 2649.31Z" fill="#263238"/>
<path d="M2690.05 2350.53C2690.05 2352.04 2262.43 2353.15 1734.98 2353.15C1207.52 2353.15 779.798 2352.04 779.798 2350.53C779.798 2349.02 1207.32 2347.91 1734.98 2347.91C2262.63 2347.91 2690.05 2349.12 2690.05 2350.53Z" fill="#263238"/>
<path d="M2815.87 2649.31C2815.49 2647.32 2815.32 2645.29 2815.37 2643.27C2815.37 2638.84 2815.37 2633.19 2814.87 2626.14C2814.87 2610.53 2814.87 2588.97 2814.06 2562.58C2814.06 2508.28 2813.56 2433.84 2813.25 2350.53L2815.87 2353.15H2688.24L2687.74 2351.23C2672.32 2289.78 2659.03 2236.9 2649.46 2198.62L2638.88 2154.5C2637.77 2149.66 2636.87 2145.83 2636.26 2142.61C2635.86 2141.27 2635.62 2139.88 2635.56 2138.48C2636.28 2139.69 2636.79 2141.02 2637.07 2142.41C2637.97 2145.53 2639.08 2149.36 2640.39 2154.09C2643.41 2164.87 2647.44 2179.58 2652.48 2197.81C2662.55 2235.99 2676.35 2288.48 2692.77 2350.03L2690.36 2348.21H2793.11H2818.69V2350.83C2818.69 2434.14 2818.09 2508.58 2817.89 2562.88C2817.89 2589.27 2817.28 2610.83 2817.08 2626.44C2817.08 2633.5 2817.08 2639.14 2817.08 2643.57C2816.94 2645.53 2816.53 2647.46 2815.87 2649.31Z" fill="#263238"/>
<path d="M2704.76 2179.18C2705.37 2179.68 2702.65 2182.4 2703.45 2187.54C2703.64 2188.9 2704.1 2190.21 2704.81 2191.39C2705.52 2192.57 2706.46 2193.59 2707.58 2194.39C2708.99 2195.09 2710.56 2195.41 2712.13 2195.3C2713.7 2195.2 2715.21 2194.68 2716.51 2193.8C2717.81 2192.91 2718.86 2191.7 2719.54 2190.28C2720.22 2188.86 2720.51 2187.29 2720.38 2185.72C2720.07 2184.38 2719.49 2183.12 2718.68 2182.01C2717.86 2180.9 2716.83 2179.97 2715.64 2179.28C2711.11 2176.66 2707.58 2178.17 2707.28 2177.36C2706.98 2176.56 2710.6 2173.54 2717.35 2175.95C2719.28 2176.68 2721.01 2177.85 2722.39 2179.38C2723.77 2180.9 2724.77 2182.73 2725.31 2184.72C2725.74 2187.25 2725.43 2189.85 2724.43 2192.21C2723.42 2194.57 2721.76 2196.59 2719.64 2198.03C2717.51 2199.48 2715.02 2200.28 2712.46 2200.35C2709.89 2200.42 2707.36 2199.75 2705.16 2198.42C2703.53 2197.17 2702.21 2195.55 2701.32 2193.69C2700.43 2191.84 2699.98 2189.8 2700.03 2187.74C2700.13 2180.69 2704.56 2178.47 2704.76 2179.18Z" fill="#263238"/>
<path d="M2720.28 2264C2720.88 2264.6 2718.16 2267.32 2718.97 2272.46C2719.15 2273.82 2719.61 2275.13 2720.32 2276.31C2721.03 2277.49 2721.98 2278.51 2723.1 2279.31C2724.51 2280 2726.08 2280.31 2727.65 2280.2C2729.22 2280.1 2730.74 2279.58 2732.05 2278.7C2733.35 2277.82 2734.41 2276.62 2735.1 2275.2C2735.79 2273.79 2736.1 2272.22 2735.99 2270.64C2735.67 2269.3 2735.08 2268.03 2734.24 2266.92C2733.41 2265.81 2732.36 2264.88 2731.15 2264.2C2726.72 2261.58 2723.1 2262.99 2722.89 2262.28C2722.69 2261.58 2726.12 2258.36 2732.97 2260.87C2734.87 2261.6 2736.58 2262.77 2737.97 2264.27C2739.35 2265.77 2740.36 2267.58 2740.93 2269.54C2741.44 2272.1 2741.17 2274.77 2740.14 2277.17C2739.12 2279.58 2737.39 2281.63 2735.18 2283.04C2733.05 2284.54 2730.5 2285.35 2727.88 2285.35C2725.27 2285.35 2722.72 2284.54 2720.58 2283.04C2718.96 2281.79 2717.66 2280.19 2716.77 2278.35C2715.87 2276.52 2715.42 2274.5 2715.44 2272.46C2715.14 2265.61 2720.28 2263.39 2720.28 2264Z" fill="#263238"/>
<path d="M551.429 2421.14C552.134 2421.65 549.414 2424.97 551.429 2430.41C551.8 2431.89 552.475 2433.27 553.412 2434.46C554.349 2435.66 555.527 2436.65 556.869 2437.36C558.542 2438.11 560.405 2438.33 562.206 2437.99C564.007 2437.65 565.66 2436.76 566.942 2435.45C568.303 2434.35 569.32 2432.88 569.873 2431.22C570.427 2429.56 570.493 2427.78 570.065 2426.08C569.519 2424.66 568.681 2423.37 567.605 2422.3C566.529 2421.22 565.239 2420.38 563.82 2419.84C558.581 2417.72 554.955 2419.84 554.653 2419.23C554.35 2418.63 557.574 2414.6 564.726 2416.31C566.925 2416.75 568.987 2417.72 570.739 2419.12C572.491 2420.52 573.883 2422.32 574.8 2424.37C575.719 2427 575.806 2429.85 575.05 2432.54C574.293 2435.22 572.728 2437.61 570.569 2439.38C568.544 2441.53 565.86 2442.94 562.942 2443.4C560.023 2443.86 557.036 2443.33 554.451 2441.9C552.61 2440.86 551.033 2439.41 549.845 2437.66C548.657 2435.92 547.889 2433.92 547.601 2431.82C546.594 2423.56 551.228 2420.54 551.429 2421.14Z" fill="#263238"/>
<path d="M561.905 2527.62C561.905 2528.43 557.875 2529.84 556.062 2535.78C555.52 2537.35 555.32 2539.01 555.476 2540.67C555.632 2542.32 556.141 2543.91 556.969 2545.35C558.17 2546.84 559.746 2547.99 561.536 2548.66C563.325 2549.34 565.263 2549.53 567.15 2549.22C569.038 2548.9 570.806 2548.08 572.274 2546.86C573.743 2545.63 574.857 2544.03 575.504 2542.23C575.788 2540.59 575.729 2538.91 575.33 2537.3C574.931 2535.69 574.202 2534.18 573.187 2532.86C569.46 2527.82 564.826 2527.92 564.927 2527.12C565.028 2526.31 570.165 2524.7 576.008 2530.44C577.628 2532.1 578.85 2534.1 579.583 2536.3C580.316 2538.5 580.54 2540.84 580.239 2543.14C579.607 2546.04 578.099 2548.68 575.919 2550.69C573.739 2552.71 570.992 2554.01 568.05 2554.42C565.138 2555.03 562.107 2554.72 559.381 2553.53C556.655 2552.33 554.368 2550.32 552.839 2547.77C551.77 2545.7 551.212 2543.4 551.212 2541.07C551.212 2538.74 551.77 2536.44 552.839 2534.37C556.163 2527.12 562.106 2527.02 561.905 2527.62Z" fill="#263238"/>
<path d="M2777.89 920.784C2753.29 920.82 2729.48 929.43 2710.54 945.132C2691.6 960.833 2678.73 982.645 2674.14 1006.81C2653.49 1093.65 2613.69 1306.2 2613.69 1306.2L2484.25 979.815H2420.89C2420.89 979.815 2533.41 1358.08 2558.79 1402.91C2590.83 1459.32 2674.24 1434.84 2697.41 1397.67C2720.58 1360.5 2773.97 1117.82 2773.97 1117.82L2777.89 920.784Z" fill="#263238"/>
<path d="M2618.73 1436.45H2616.92C2605.48 1436.35 2594.23 1433.56 2584.08 1428.29C2573.28 1422.53 2564.39 1413.74 2558.49 1403.01C2533.31 1358.78 2421.69 983.844 2420.58 979.916L2484.15 979.412L2613.19 1304.99C2616.01 1290.08 2653.49 1089.52 2673.63 1006.51C2677.7 987.644 2686.35 970.068 2698.82 955.336C2708.41 944.409 2720.27 935.711 2733.57 929.85C2747.4 923.52 2762.39 920.091 2777.59 919.776L2773.46 1117.12C2773.46 1119.54 2719.97 1360.29 2696.9 1397.06C2688.62 1409.24 2677.11 1418.87 2663.66 1424.87C2649.73 1432.01 2634.38 1435.97 2618.73 1436.45ZM2421.19 980.218C2425.02 993.112 2534.11 1359.19 2558.9 1403.31C2564.78 1413.93 2573.59 1422.64 2584.28 1428.39C2594.37 1433.62 2605.56 1436.38 2616.92 1436.45H2618.73C2634.46 1436.26 2649.94 1432.58 2664.06 1425.67C2677.41 1419.65 2688.84 1410.06 2697.11 1397.97C2720.07 1361.3 2773.06 1120.64 2773.56 1118.23L2777.69 920.784H2777.09C2762.23 921.274 2747.61 924.698 2734.08 930.857C2720.86 936.685 2709.07 945.312 2699.52 956.142C2687.09 970.806 2678.47 988.316 2674.44 1007.11C2654.29 1092.84 2614 1304.29 2614 1306.4V1307.31V1306.5L2484.55 980.218H2421.19Z" fill="#263238"/>
<path d="M2714.33 1639.84L2725.91 1561.06L2906.33 1636.51L2796.13 2178.78L2803.38 2654.65L2705.57 2605.49L2670.81 2180.69L2714.33 1639.84Z" fill="#BFDBFE"/>
<path d="M3090.48 1516.94L3091.38 1571.54L2890.52 1654.24L2726.12 1569.73L2729.64 1518.35L3090.48 1516.94Z" fill="#BFDBFE"/>
<path d="M3090.98 1548.07L3072.14 2124.28L3107.4 2599.25L3015.33 2600.66L2942.5 2155.91L2877.52 1641.75L3090.98 1548.07Z" fill="#BFDBFE"/>
<path d="M3192.22 308.612C3191.52 304.784 3190.71 301.057 3190.01 297.329C3180.85 252.614 3162.21 210.382 3135.33 173.486C3108.46 136.589 3073.99 105.886 3034.24 83.4483C2994.49 61.0105 2950.4 47.3603 2904.92 43.4187C2859.45 39.4772 2813.66 45.336 2770.64 60.5999C2753.62 66.5433 2736.19 73.2926 2718.56 80.7471C2600.9 132.324 2514.57 312.44 2519.71 446.016C2524.85 579.592 2598.48 636.81 2592.94 642.048C2587.4 647.286 2615.91 763.536 2625.08 797.685C2634.25 831.835 2684.31 858.127 2729.24 878.274C2774.17 898.421 2842.37 869.611 2842.37 869.611C2842.37 869.611 2851.03 876.36 2847.91 897.011C2844.78 917.662 2786.46 917.158 2748.78 924.21L2746.67 1138.68L2737.7 1454.79L2724.71 1556.03L3090.98 1547.56L3080.91 927.735C3067.37 920.384 3052.51 915.796 3037.19 914.237C3026.91 913.089 3017.31 908.557 3009.88 901.354C3002.46 894.151 2997.65 884.685 2996.19 874.446C2993.16 845.771 2993.37 816.846 2996.79 788.216C3004.15 707.627 3050.69 702.187 3135.71 559.646C3165.19 510.055 3184.88 455.274 3193.73 398.267C3198.22 368.506 3197.71 338.205 3192.22 308.612Z" fill="#BFDBFE"/>
<path d="M2388.95 930.052C2399.83 942.845 2418.17 987.37 2437 992.609C2455.84 997.847 2484.15 987.37 2484.15 987.37C2484.15 987.37 2493.21 932.268 2513.66 907.386C2534.11 882.504 2539.05 888.347 2539.05 888.347C2539.05 888.347 2590.53 886.231 2587.4 857.522C2587.4 857.522 2565.64 832.841 2529.68 868.401C2524.57 873.642 2517.72 876.848 2510.42 877.422C2503.12 877.996 2495.86 875.9 2489.99 871.524C2469.84 855.104 2465.81 814.507 2467.43 787.208C2467.43 787.208 2487.57 739.358 2455.04 730.292C2455.04 730.292 2428.24 732.609 2443.75 788.014C2443.75 788.014 2468.23 846.844 2436 870.718C2436 870.718 2413.63 834.453 2398.72 843.016C2371.42 858.73 2387.14 888.85 2387.14 888.85C2387.14 888.85 2372.03 872.531 2359.94 888.145C2349.57 901.342 2388.95 930.052 2388.95 930.052Z" fill="#BFDBFE"/>
<g opacity="0.2">
<path d="M3022.48 133.633C3031.76 133.494 3040.81 136.523 3048.13 142.218C3055.46 147.914 3060.62 155.936 3062.78 164.962C3064.34 174.398 3062.67 184.085 3058.05 192.457C3053.42 200.829 3046.11 207.397 3037.29 211.099C3028.29 214.359 3018.44 214.438 3009.38 211.322C3000.33 208.207 2992.62 202.084 2987.53 193.974C2982.89 185.601 2981.29 175.882 2983 166.465C2984.7 157.047 2989.61 148.509 2996.89 142.296C3001.58 138.591 3007.03 135.973 3012.84 134.632C3018.66 133.29 3024.71 133.259 3030.54 134.54" fill="white"/>
</g>
<path d="M2955.49 420.327C2959.36 419.913 2963.24 420.823 2966.52 422.91C2969.8 424.997 2972.27 428.136 2973.52 431.811C2974.5 435.677 2974.15 439.757 2972.55 443.405C2970.94 447.054 2968.17 450.063 2964.66 451.959C2961.04 453.616 2956.96 453.991 2953.1 453.021C2949.23 452.05 2945.81 449.792 2943.4 446.619C2941.17 443.346 2940.13 439.397 2940.48 435.448C2940.83 431.498 2942.54 427.791 2945.32 424.961C2947.12 423.231 2949.28 421.925 2951.65 421.141C2954.03 420.356 2956.54 420.113 2959.02 420.428" fill="#BFDBFE"/>
<path d="M2949.55 483.087C2951.51 482.868 2953.49 483.328 2955.16 484.391C2956.83 485.454 2958.08 487.056 2958.72 488.929C2959.19 490.874 2959.01 492.922 2958.18 494.747C2957.36 496.573 2955.95 498.071 2954.18 499.003C2953 499.579 2951.71 499.873 2950.4 499.862C2949.09 499.851 2947.8 499.536 2946.63 498.941C2945.46 498.346 2944.44 497.488 2943.66 496.434C2942.88 495.38 2942.36 494.159 2942.13 492.868C2941.91 491.577 2941.98 490.25 2942.35 488.993C2942.73 487.736 2943.39 486.583 2944.28 485.625C2945.18 484.667 2946.28 483.93 2947.51 483.472C2948.74 483.014 2950.06 482.847 2951.36 482.986" fill="#BFDBFE"/>
<g opacity="0.2">
<path d="M3084.84 227.217C3087.19 227.997 3089.33 229.312 3091.08 231.058C3092.84 232.805 3094.17 234.934 3094.96 237.28C3095.75 239.625 3095.99 242.123 3095.66 244.577C3095.33 247.031 3094.43 249.374 3093.03 251.423C3091.64 253.471 3089.79 255.168 3087.63 256.381C3085.48 257.594 3083.06 258.29 3080.59 258.414C3078.12 258.538 3075.65 258.087 3073.38 257.096C3071.11 256.105 3069.1 254.601 3067.51 252.703C3066.08 250.723 3065.1 248.457 3064.63 246.061C3064.16 243.665 3064.21 241.195 3064.79 238.822C3065.36 236.448 3066.44 234.227 3067.95 232.311C3069.47 230.395 3071.38 228.829 3073.55 227.721" fill="white"/>
</g>
<path d="M2606.74 47.3026C2606.24 49.6196 2631.93 54.6565 2655.3 75.1059C2678.67 95.5553 2687.94 119.732 2690.15 118.725C2692.37 117.717 2690.15 111.874 2685.72 102.103C2679.68 89.4623 2671.07 78.221 2660.43 69.0973C2649.8 59.9736 2637.38 53.1682 2623.97 49.116C2613.59 46.1946 2606.95 46.396 2606.74 47.3026Z" fill="#BFDBFE"/>
<path d="M2588.01 31.1847C2592.71 28.7876 2598.15 28.2548 2603.23 29.6929C2608.31 31.1311 2612.66 34.4342 2615.41 38.9414C2617.22 42.1821 2618.01 45.8971 2617.66 49.5948C2617.32 53.2926 2615.86 56.7988 2613.48 59.649C2611.1 62.4993 2607.91 64.5594 2604.33 65.5566C2600.75 66.5538 2596.96 66.4412 2593.45 65.2335C2590.4 64.2574 2587.64 62.5709 2585.37 60.3137C2583.11 58.0565 2581.42 55.2932 2580.43 52.252C2579.45 49.2108 2579.2 45.9791 2579.71 42.8239C2580.22 39.6686 2581.48 36.6803 2583.37 34.106C2584.52 32.3104 2586.15 30.8752 2588.07 29.9661C2590 29.057 2592.14 28.7111 2594.25 28.9685" fill="#BFDBFE"/>
<path d="M2676.15 18.4922C2675.65 20.8092 2701.33 25.846 2724.71 46.1946C2748.08 66.5433 2757.34 90.8208 2759.56 89.9142C2761.78 89.0075 2759.56 82.9633 2755.13 73.2926C2749.18 60.5864 2740.55 49.3156 2729.84 40.2512C2719.26 31.0204 2706.83 24.1521 2693.38 20.104C2683 17.3842 2676.35 17.4849 2676.15 18.4922Z" fill="#BFDBFE"/>
<path d="M2657.42 2.37418C2662.1 -0.0416309 2667.53 -0.584302 2672.6 0.856282C2677.67 2.29687 2682 5.61279 2684.71 10.1309C2686.51 13.3629 2687.29 17.0631 2686.95 20.7456C2686.6 24.428 2685.16 27.9205 2682.79 30.7644C2680.43 33.6083 2677.26 35.6706 2673.7 36.6805C2670.14 37.6903 2666.36 37.6006 2662.86 36.423C2659.81 35.4469 2657.04 33.7604 2654.78 31.5032C2652.52 29.2459 2650.82 26.4827 2649.84 23.4415C2648.85 20.4003 2648.61 17.1686 2649.12 14.0133C2649.63 10.8581 2650.89 7.8698 2652.78 5.29545C2653.94 3.50642 2655.57 2.07095 2657.49 1.1468C2659.4 0.222644 2661.54 -0.154289 2663.66 0.0572931" fill="#BFDBFE"/>
<path d="M2652.48 2107.35L2910.87 2103.32L2945.62 1984.56L2971.91 2102.42L3107.4 2086.3L3092.79 928.138L3012.81 880.691L3010.09 853.492L2842.36 870.114L2833.2 892.376L2726.52 933.779L2724.81 1491.35L2652.48 2107.35Z" fill="#263238"/>
<path d="M3089.27 926.022C3089.27 926.022 3135.21 936.7 3141.45 1006.01C3148.6 1084.78 3178.22 1406.33 3148.1 1427.99C3117.98 1449.65 3088.97 1416.41 3088.97 1416.41L3089.27 926.022Z" fill="#263238"/>
<path d="M2724.91 1482.09C2723.4 1482.09 2724.91 1390.31 2727.63 1277.19C2730.35 1164.06 2734.18 1072.29 2735.59 1072.39C2737 1072.49 2735.59 1164.16 2732.87 1277.29C2730.15 1390.42 2726.32 1482.09 2724.91 1482.09Z" fill="#263238"/>
<path d="M2609.46 1371.98C2608.05 1371.38 2613.49 1356.77 2614.2 1337.83C2614.9 1318.89 2610.87 1303.88 2612.39 1303.48C2617.52 1314.27 2619.94 1326.15 2619.44 1338.09C2618.93 1350.03 2615.5 1361.67 2609.46 1371.98Z" fill="#263238"/>
<path d="M2697.31 2500.32L2705.97 2602.27C2705.97 2602.27 2541.97 2632.49 2541.77 2651.93H2803.68L2801.37 2490.75L2697.31 2500.32Z" fill="#BFDBFE"/>
<path d="M3001.03 2495.59L3009.69 2597.53C3009.69 2597.53 2850.02 2635.51 2849.72 2654.55H3111.63L3099.95 2490.45L3001.03 2495.59Z" fill="#BFDBFE"/>
<path d="M3094.71 1049.22C3096.12 1049.22 3097.03 1131.83 3096.72 1233.67C3096.42 1335.51 3095.01 1418.12 3093.5 1418.12C3091.99 1418.12 3091.18 1335.51 3091.49 1233.67C3091.79 1131.83 3093 1049.22 3094.71 1049.22Z" fill="#263238"/>
<path d="M3009.39 881.9C3001.26 885.346 2992.73 887.749 2984 889.053C2942.32 897.999 2899.68 901.688 2857.07 900.033C2848.2 900.186 2839.34 899.273 2830.68 897.313C2839.44 896.272 2848.26 895.935 2857.07 896.306C2873.29 896.306 2895.76 895.399 2920.44 893.283C2945.12 891.168 2967.28 887.944 2983.3 885.426C2991.89 883.583 3000.61 882.404 3009.39 881.9Z" fill="#263238"/>
<path d="M2760.57 1684.66C2761.17 1684.66 2759.06 1689 2754.83 1694.74C2749.23 1702.78 2741.43 1709.04 2732.36 1712.77C2727.52 1714.49 2722.3 1714.84 2717.27 1713.8C2712.25 1712.75 2707.6 1710.34 2703.85 1706.83C2698.31 1700.88 2699.22 1695.34 2699.72 1695.44C2700.23 1695.54 2701.23 1699.98 2706.37 1704.11C2709.8 1706.63 2713.79 1708.29 2718 1708.94C2722.21 1709.59 2726.52 1709.21 2730.55 1707.83C2738.77 1704.34 2746.11 1699.03 2752.01 1692.32C2756.34 1687.38 2759.46 1684.16 2760.57 1684.66Z" fill="#263238"/>
<path d="M3048.27 1628.35C3047.7 1631.85 3046.62 1635.25 3045.05 1638.43L3034.47 1665.02C3025.6 1687.38 3013.42 1718.31 3000.92 1752.86C2988.43 1787.42 2978.06 1819.05 2970.7 1842.01C2967.28 1852.59 2964.26 1861.66 2961.84 1869.11C2960.99 1872.62 2959.71 1876 2958.01 1879.19C2958.16 1875.75 2958.8 1872.36 2959.92 1869.11C2961.44 1862.56 2963.85 1853.1 2967.18 1841.41C2973.62 1818.24 2983.6 1786.31 2995.99 1751.65C3008.38 1717 3021.27 1686.08 3031.04 1664.01C3035.98 1653.03 3040.11 1643.87 3043.13 1638.12C3044.44 1634.67 3046.17 1631.39 3048.27 1628.35Z" fill="#263238"/>
</svg>
