<svg width="1885" height="794" viewBox="0 0 1885 794" fill="none" xmlns="http://www.w3.org/2000/svg">
<path d="M14.2076 570.914C8.54281 593.695 300.86 835.333 993.552 785.629C1588.78 742.991 1880.31 470.409 1880.31 470.409L14.2076 570.914Z" fill="#BBBBBB"/>
<path opacity="0.2" d="M14.2076 570.914C8.54281 593.695 300.86 835.333 993.552 785.629C1588.78 742.991 1880.31 470.409 1880.31 470.409L14.2076 570.914Z" fill="black"/>
<path d="M947.952 638.044C1464.93 613.393 1881.36 537.621 1878.08 468.803C1874.8 399.985 1453.05 364.18 936.069 388.832C419.092 413.483 2.66017 489.255 5.94167 558.073C9.22317 626.891 430.976 662.696 947.952 638.044Z" fill="#BBBBBB"/>
<path d="M513.382 481.556C513.382 481.556 486.093 58.1558 905.899 4.49226C1325.71 -49.1713 1363.11 395.67 1363.11 395.67C1363.11 395.67 1091.38 602.771 513.382 481.556Z" fill="#F5F5F5"/>
<path d="M729.924 105.241C731.325 107.251 716.767 118.519 695.509 138.742C690.27 143.798 684.483 149.341 678.636 155.676C672.788 162.011 666.453 168.772 660.362 176.02C633.237 207.905 610.686 243.413 593.359 281.52C589.522 290.413 585.684 298.758 582.821 306.799C579.958 314.839 576.73 322.392 574.659 329.336C565.4 357.112 561.441 375.081 559.005 374.715C556.568 374.35 557.177 355.772 563.878 325.986C565.583 318.616 567.593 310.575 570.395 302.169C573.197 293.763 576.486 284.809 579.958 275.429C596.337 235.024 619.836 197.888 649.337 165.787C656.281 158.6 662.738 151.655 669.438 145.747C675.416 140.093 681.678 134.746 688.199 129.727C711.955 111.332 728.949 103.474 729.924 105.241Z" fill="white"/>
<path d="M1807.46 462.125C1806.74 463.279 1805.88 464.342 1804.9 465.292C1802.21 468.116 1799.29 470.724 1796.19 473.089C1784.5 481.427 1771.71 488.09 1758.18 492.886C1670.16 527.016 1577.68 548.27 1483.59 555.991C1465.32 557.392 1450.94 558.062 1440.95 558.305H1429.32C1427.96 558.398 1426.59 558.398 1425.24 558.305C1426.57 557.976 1427.94 557.812 1429.32 557.818L1440.89 557.026C1451 556.356 1465.56 555.381 1483.53 553.676C1577.27 544.775 1669.43 523.558 1757.63 490.571C1771.1 486.007 1783.91 479.722 1795.76 471.871C1799.83 468.826 1803.73 465.573 1807.46 462.125Z" fill="white"/>
<path d="M831.16 793.547C829.119 792.599 827.197 791.413 825.434 790.014C820.366 786.554 815.542 782.748 810.998 778.623C804.16 772.571 797.805 765.993 791.994 758.949C784.873 750.326 778.495 741.116 772.928 731.417C767.455 721.662 762.79 711.476 758.979 700.961C755.939 692.357 753.537 683.542 751.792 674.586C750.588 668.553 749.774 662.449 749.355 656.312C749.104 654.065 749.104 651.798 749.355 649.551C749.964 649.551 750.634 659.053 754.045 673.916C756.065 682.682 758.649 691.309 761.781 699.742C765.725 710.026 770.386 720.02 775.73 729.65C781.251 739.167 787.461 748.267 794.308 756.878C799.953 763.895 806.057 770.529 812.582 776.735C823.668 787.456 831.526 792.999 831.16 793.547Z" fill="#263238"/>
<path d="M802.41 696.819C802.41 697.245 800.887 697.976 800.4 700.23C800.213 700.811 800.165 701.428 800.261 702.031C800.356 702.634 800.591 703.207 800.948 703.702C801.407 704.15 801.975 704.468 802.596 704.627C803.217 704.785 803.869 704.778 804.486 704.605C805.103 704.432 805.663 704.1 806.112 703.643C806.56 703.185 806.88 702.617 807.04 701.997C807.086 701.388 806.995 700.776 806.774 700.206C806.552 699.637 806.206 699.125 805.76 698.707C804.116 697.002 802.349 697.306 802.227 696.819C802.106 696.332 804.177 695.053 807.161 696.819C808.028 697.375 808.739 698.141 809.229 699.047C809.719 699.952 809.972 700.967 809.963 701.997C809.906 703.323 809.416 704.594 808.57 705.617C807.723 706.639 806.565 707.357 805.273 707.661C804.161 707.969 802.984 707.953 801.88 707.618C800.776 707.282 799.79 706.64 799.037 705.765C798.284 704.891 797.794 703.82 797.626 702.679C797.457 701.537 797.617 700.371 798.085 699.316C799.852 696.088 802.532 696.393 802.41 696.819Z" fill="#263238"/>
<path d="M829.699 745.609C829.699 746.036 828.237 746.706 827.688 749.02C827.52 749.604 827.481 750.217 827.576 750.817C827.671 751.417 827.896 751.989 828.237 752.492C828.672 753.011 829.256 753.383 829.91 753.558C830.564 753.732 831.256 753.7 831.891 753.467C832.557 753.336 833.167 753.003 833.636 752.512C834.105 752.021 834.41 751.397 834.511 750.726C834.548 750.127 834.453 749.527 834.231 748.969C834.01 748.411 833.669 747.909 833.231 747.498C831.587 745.792 829.82 746.036 829.699 745.609C829.577 745.183 831.648 743.843 834.632 745.609C835.499 746.165 836.21 746.932 836.7 747.837C837.19 748.743 837.443 749.757 837.434 750.787C837.28 751.588 836.966 752.35 836.511 753.027C836.056 753.705 835.47 754.284 834.787 754.73C834.104 755.177 833.338 755.482 832.536 755.627C831.733 755.772 830.909 755.754 830.113 755.574C829.317 755.395 828.565 755.057 827.902 754.581C827.239 754.106 826.679 753.501 826.254 752.805C825.829 752.108 825.548 751.334 825.428 750.527C825.308 749.72 825.352 748.897 825.557 748.107C827.14 744.818 829.82 745.183 829.699 745.609Z" fill="#263238"/>
<path d="M8.11621 553.98C9.70446 553.276 11.3566 552.725 13.0501 552.336L27.4253 548.255C39.6077 544.783 57.8813 540.092 80.6015 534.671C125.616 523.829 188.416 510.916 258.465 500.865C328.514 490.815 392.471 485.881 438.765 483.688C461.911 482.591 480.672 482.043 493.586 481.982H508.509C510.251 481.825 512.005 481.825 513.747 481.982C512.036 482.275 510.305 482.437 508.57 482.47L493.646 483.14C480.733 483.627 461.972 484.48 438.825 485.881C392.593 488.622 328.818 494.043 258.83 504.154C188.842 514.266 126.164 526.692 81.028 536.986C58.4296 542.103 40.2169 546.427 27.669 549.595L13.1719 553.128C11.5119 553.545 9.82136 553.83 8.11621 553.98Z" fill="#263238"/>
<path d="M1369.62 601.674C1366.89 600.321 1364.28 598.731 1361.83 596.923L1341.06 583.157C1323.51 571.522 1299.09 555.807 1271.55 539.3C1244.02 522.793 1218.62 508.844 1200.1 498.732L1178.18 486.916C1175.42 485.589 1172.77 484.041 1170.26 482.286C1173.17 483.223 1176.01 484.405 1178.72 485.819C1184.08 488.256 1191.76 491.91 1201.14 496.722C1219.96 506.225 1245.61 520.052 1273.2 536.559C1300.79 553.066 1325.1 569.208 1342.33 581.268C1350.92 587.359 1357.87 592.354 1362.56 595.887C1365.08 597.606 1367.44 599.542 1369.62 601.674Z" fill="#263238"/>
<path d="M1198.95 521.757C1199.31 522.123 1197.49 523.645 1197.61 526.813C1197.64 528.513 1198.34 530.133 1199.56 531.32C1200.36 531.853 1201.28 532.176 1202.24 532.259C1203.2 532.341 1204.16 532.181 1205.04 531.792C1205.92 531.404 1206.69 530.799 1207.27 530.036C1207.86 529.272 1208.24 528.373 1208.39 527.422C1208.39 526.572 1208.21 525.732 1207.86 524.955C1207.51 524.179 1207.01 523.484 1206.38 522.914C1204.13 520.722 1201.81 521.026 1201.75 520.539C1201.69 520.051 1204.25 518.772 1207.84 521.148C1208.84 521.841 1209.68 522.747 1210.29 523.799C1210.9 524.852 1211.27 526.027 1211.37 527.239C1211.37 528.825 1210.89 530.373 1210 531.686C1209.11 532.999 1207.85 534.016 1206.38 534.609C1204.97 535.29 1203.38 535.532 1201.83 535.304C1200.28 535.076 1198.83 534.389 1197.67 533.33C1196.8 532.452 1196.14 531.386 1195.75 530.213C1195.36 529.041 1195.25 527.794 1195.41 526.569C1195.96 522.427 1198.89 521.392 1198.95 521.757Z" fill="#263238"/>
<path d="M410.745 498.185C410.745 498.55 409.283 500.073 409.405 503.179C409.399 504.025 409.57 504.862 409.905 505.638C410.241 506.414 410.734 507.112 411.354 507.687C412.151 508.237 413.075 508.574 414.039 508.665C415.003 508.757 415.975 508.599 416.861 508.208C417.747 507.817 418.517 507.206 419.1 506.432C419.682 505.658 420.056 504.748 420.186 503.789C420.176 502.949 419.992 502.121 419.646 501.355C419.3 500.59 418.8 499.905 418.176 499.342C415.923 497.088 413.608 497.454 413.547 496.967C413.486 496.479 416.044 495.2 419.638 497.576C420.644 498.263 421.484 499.167 422.095 500.221C422.707 501.275 423.074 502.452 423.171 503.667C423.17 505.246 422.692 506.788 421.801 508.092C420.91 509.396 419.647 510.401 418.176 510.976C416.754 511.662 415.158 511.907 413.595 511.679C412.032 511.451 410.573 510.761 409.405 509.697C408.553 508.808 407.914 507.739 407.534 506.568C407.154 505.397 407.044 504.155 407.212 502.936C407.76 498.855 410.684 497.758 410.745 498.185Z" fill="#263238"/>
<path d="M265.348 516.519C265.348 516.885 263.886 518.347 263.947 521.514C263.966 522.361 264.154 523.196 264.499 523.969C264.844 524.743 265.34 525.441 265.957 526.021C266.729 526.613 267.652 526.978 268.62 527.075C269.588 527.171 270.564 526.997 271.439 526.57C272.351 526.215 273.145 525.61 273.727 524.822C274.309 524.035 274.656 523.1 274.728 522.123C274.734 521.278 274.563 520.44 274.228 519.664C273.892 518.888 273.399 518.191 272.779 517.616C270.525 515.423 268.21 515.727 268.15 515.24C268.089 514.753 270.647 513.535 274.241 515.91C275.245 516.594 276.08 517.498 276.682 518.554C277.283 519.61 277.636 520.789 277.713 522.001C277.742 523.579 277.283 525.127 276.4 526.435C275.518 527.743 274.253 528.747 272.779 529.311C271.356 529.997 269.761 530.242 268.197 530.014C266.634 529.786 265.175 529.095 264.008 528.032C263.156 527.143 262.516 526.073 262.136 524.902C261.757 523.731 261.647 522.49 261.815 521.27C262.424 517.189 265.287 516.093 265.348 516.519Z" fill="#263238"/>
<path d="M99.5449 542.102C99.8495 542.468 98.0222 543.991 98.144 547.158C98.146 548.008 98.3259 548.848 98.6721 549.624C99.0183 550.401 99.5231 551.096 100.154 551.666C100.926 552.261 101.853 552.623 102.824 552.709C103.795 552.795 104.771 552.602 105.636 552.153C106.548 551.815 107.343 551.222 107.927 550.444C108.51 549.667 108.857 548.737 108.925 547.767C108.895 546.067 108.194 544.447 106.976 543.26C104.722 541.067 102.347 541.371 102.347 540.884C102.347 540.397 104.844 539.118 108.438 541.554C109.439 542.241 110.272 543.146 110.873 544.201C111.474 545.256 111.829 546.434 111.91 547.645C111.913 549.217 111.445 550.754 110.565 552.057C109.686 553.36 108.435 554.37 106.976 554.955C105.553 555.641 103.958 555.885 102.395 555.658C100.832 555.43 99.3726 554.739 98.2049 553.676C97.3603 552.78 96.7212 551.711 96.3319 550.544C95.9427 549.376 95.8128 548.137 95.9511 546.914C96.5603 542.772 99.484 541.737 99.5449 542.102Z" fill="#263238"/>
<path d="M1265.34 566.589C1265.71 566.954 1263.88 568.477 1264 571.584C1264 572.429 1264.17 573.267 1264.5 574.043C1264.84 574.819 1265.33 575.516 1265.95 576.091C1266.72 576.696 1267.64 577.069 1268.61 577.166C1269.58 577.263 1270.56 577.081 1271.43 576.64C1272.35 576.288 1273.16 575.685 1273.75 574.898C1274.34 574.112 1274.7 573.174 1274.78 572.193C1274.77 571.353 1274.59 570.525 1274.24 569.759C1273.9 568.994 1273.4 568.309 1272.77 567.746C1270.52 565.493 1268.2 565.858 1268.14 565.371C1268.08 564.884 1270.64 563.604 1274.23 565.98C1275.24 566.667 1276.08 567.571 1276.69 568.625C1277.3 569.679 1277.67 570.857 1277.77 572.071C1277.85 573.202 1277.68 574.336 1277.29 575.4C1276.9 576.463 1276.29 577.432 1275.5 578.242C1274.7 579.053 1273.75 579.687 1272.7 580.102C1271.64 580.518 1270.51 580.706 1269.38 580.654C1268.25 580.603 1267.14 580.312 1266.13 579.802C1265.11 579.291 1264.22 578.573 1263.51 577.693C1262.79 576.814 1262.27 575.793 1261.98 574.698C1261.69 573.603 1261.63 572.459 1261.81 571.34C1262.36 567.259 1265.28 566.163 1265.34 566.589Z" fill="#263238"/>
<path d="M970.954 52.1867C953.628 46.358 935.255 44.3105 917.071 46.1819C898.887 48.0534 881.316 53.8004 865.541 63.0358C849.765 72.2712 836.153 84.7804 825.62 99.7206C815.087 114.661 807.879 131.685 804.481 149.646L803.933 152.996C801.826 165.272 801.826 177.816 803.933 190.092C807.857 212.934 816.128 234.811 828.298 254.537C863.2 311.124 881.9 312.951 885.311 345.235C888.722 377.518 893.595 384.401 877.088 398.167C877.088 398.167 854.429 399.568 842.064 407.121C829.699 414.674 819.343 420.157 818.003 457.983C816.663 495.809 815.019 518.895 815.019 518.895C880.976 522.768 947.154 520.218 1012.62 511.281L1004.33 415.893C1003.01 411.472 1000.52 407.487 997.139 404.349C993.755 401.211 989.593 399.035 985.085 398.046C969.979 395.304 946.65 395.975 945.249 387.751C943.848 379.528 947.32 376.726 947.32 376.726C947.32 376.726 974.791 387.751 992.638 379.467C1010.49 371.183 1030.46 360.28 1033.88 346.514C1037.29 332.748 1048.07 286.028 1046.06 283.957C1044.05 281.886 1072.92 258.557 1074.14 204.771C1075.36 150.986 1039.66 79.6581 992.212 59.7398C984.862 56.9785 977.776 54.4607 970.954 52.1867Z" fill="#BFCFEE"/>
<path d="M883.18 173.706C883.18 173.706 985.268 142.702 970.04 260.75C970.04 260.75 860.886 274.455 883.18 173.706Z" fill="#263238"/>
<path d="M1014.02 258.191C1014.02 258.191 971.015 155.615 1046.42 165.849C1046.42 166.153 1087.36 240.1 1014.02 258.191Z" fill="#263238"/>
<path d="M1152.04 386.898C1152.04 386.898 1133.77 392.989 1129.26 397.984C1124.76 402.979 1117.93 421.131 1110.44 423.324C1104.08 424.337 1097.56 423.729 1091.5 421.557C1091.5 421.557 1087.54 399.507 1079.32 389.7C1071.09 379.893 1069.02 382.208 1069.02 382.208C1069.02 382.208 1048.37 381.721 1049.47 370.026C1049.47 370.026 1058.06 359.975 1072.62 373.985C1074.71 376.028 1077.46 377.251 1080.38 377.43C1083.3 377.609 1086.19 376.732 1088.51 374.959C1096.68 368.32 1097.89 351.996 1097.04 341.092C1097.04 341.092 1088.82 322.027 1101.67 318.189C1101.67 318.189 1112.45 318.981 1106.54 341.275C1106.54 341.275 1097.1 364.97 1110.14 374.35C1110.14 374.35 1120.74 378.98 1132.67 358.391L1136.63 350.838C1136.63 350.838 1137.3 334.514 1151.5 334.088C1152.32 334.058 1153.13 334.323 1153.78 334.837C1154.43 335.351 1154.87 336.078 1155.03 336.889C1155.77 340.759 1155.06 344.767 1153.02 348.14C1150.99 351.514 1147.77 354.015 1144 355.163C1144 355.163 1127.74 367.345 1129.87 381.416C1129.87 381.416 1134.81 386.716 1147.05 381.112L1151.74 379.345C1151.74 379.345 1167.15 366.188 1169.4 372.218C1171.72 379.65 1162.95 387.446 1152.04 386.898Z" fill="#BFCFEE"/>
<path d="M1091.44 418.39L1071.52 503.18L1088.76 500.439L1106.54 496.906L1116.84 418.146L1091.44 418.39Z" fill="#BFCFEE"/>
<g opacity="0.2">
<path d="M870.571 82.947C866.835 82.9425 863.211 84.2143 860.297 86.5518C857.384 88.8893 855.356 92.1521 854.551 95.7995C854.01 99.5775 854.747 103.428 856.645 106.739C858.544 110.05 861.494 112.631 865.028 114.073C868.662 115.302 872.606 115.26 876.214 113.954C879.822 112.648 882.879 110.156 884.885 106.886C886.691 103.501 887.271 99.5964 886.527 95.8331C885.784 92.0697 883.761 88.6793 880.804 86.2364C878.901 84.7886 876.704 83.7763 874.368 83.2711C872.031 82.7658 869.612 82.78 867.281 83.3125" fill="white"/>
</g>
<path d="M899.2 197.401C897.655 197.256 896.108 197.642 894.813 198.494C893.517 199.347 892.551 200.616 892.073 202.091C891.604 203.653 891.711 205.33 892.372 206.82C893.034 208.31 894.208 209.514 895.68 210.213C897.153 210.913 898.827 211.062 900.4 210.633C901.973 210.205 903.341 209.227 904.255 207.878C905.138 206.546 905.529 204.948 905.363 203.358C905.196 201.769 904.481 200.287 903.342 199.167C902.611 198.495 901.741 197.993 900.792 197.698C899.844 197.403 898.843 197.322 897.86 197.462" fill="#455A64"/>
<path d="M902.001 222.497C901.22 222.419 900.437 222.613 899.782 223.046C899.127 223.478 898.642 224.124 898.407 224.873C898.215 225.658 898.297 226.485 898.641 227.217C898.984 227.948 899.569 228.54 900.296 228.893C901.021 229.243 901.848 229.325 902.628 229.125C903.409 228.924 904.093 228.453 904.56 227.796C904.956 227.261 905.183 226.62 905.213 225.954C905.243 225.289 905.074 224.63 904.727 224.061C904.381 223.493 903.873 223.04 903.268 222.761C902.663 222.483 901.989 222.391 901.331 222.497" fill="#455A64"/>
<g opacity="0.2">
<path d="M846.206 120.834C844.787 121.362 843.599 122.373 842.85 123.688C842.1 125.003 841.837 126.54 842.105 128.03C842.374 129.519 843.157 130.868 844.319 131.838C845.48 132.809 846.946 133.341 848.46 133.341C849.973 133.341 851.439 132.809 852.601 131.838C853.762 130.868 854.546 129.519 854.814 128.03C855.082 126.54 854.819 125.003 854.069 123.688C853.32 122.373 852.132 121.362 850.713 120.834" fill="white"/>
</g>
<path d="M939.522 271.957C937.934 272.277 936.298 272.277 934.71 271.957C930.305 271.806 925.932 271.152 921.675 270.008C907.372 266.389 894.557 258.39 885.023 247.13C875.489 235.87 869.711 221.912 868.499 207.208C868.041 202.814 868.041 198.384 868.499 193.99C868.549 192.369 868.921 190.775 869.595 189.3C870.204 189.3 869.047 196.122 870.509 206.903C872.273 220.958 878.082 234.197 887.231 245.011C896.38 255.824 908.473 263.747 922.041 267.815C932.457 271.348 939.583 271.409 939.522 271.957Z" fill="#263238"/>
<path d="M970.223 196.122C962.642 186.247 953.334 177.827 942.751 171.27C931.691 165.586 919.707 161.915 907.361 160.427C911.028 159.507 914.85 159.383 918.569 160.062C927.635 161.141 936.394 164.018 944.333 168.527C952.271 173.035 959.23 179.082 964.801 186.315C967.321 189.136 969.174 192.488 970.223 196.122Z" fill="#263238"/>
<path d="M1001.41 208.791C1000.29 205.81 999.715 202.655 999.704 199.472C998.822 191.78 999.505 183.989 1001.71 176.569C1002.9 172.798 1004.83 169.3 1007.38 166.278C1009.93 163.257 1013.06 160.771 1016.58 158.965C1017.97 158.087 1019.52 157.5 1021.14 157.238C1022.76 156.977 1024.42 157.046 1026.02 157.442C1023.15 158.438 1020.34 159.597 1017.61 160.914C1011.51 164.816 1006.94 170.714 1004.7 177.604C1002.64 184.683 1001.71 192.043 1001.96 199.411C1002.29 202.546 1002.11 205.716 1001.41 208.791Z" fill="#263238"/>
<path d="M1050.2 246.983C1049.01 250.209 1047.16 253.146 1044.75 255.603C1042.35 258.059 1039.45 259.979 1036.25 261.237C1033.3 262.996 1030.01 264.112 1026.6 264.511C1023.19 264.91 1019.73 264.583 1016.46 263.551C1022.71 262.485 1028.83 260.77 1034.73 258.435C1040.28 255.179 1045.46 251.34 1050.2 246.983Z" fill="#263238"/>
<path d="M991.237 306.251C991.237 306.616 990.019 307.895 987.095 308.626C985.154 309.105 983.138 309.192 981.163 308.883C979.189 308.574 977.296 307.874 975.594 306.825C973.893 305.776 972.418 304.398 971.255 302.773C970.092 301.147 969.265 299.306 968.821 297.358C968.212 294.373 968.821 292.606 969.187 292.606C969.552 292.606 969.918 294.312 970.953 296.627C972.214 299.645 974.332 302.229 977.045 304.058C979.879 305.732 983.135 306.557 986.425 306.434C989.41 306.251 991.054 305.763 991.237 306.251Z" fill="#263238"/>
<path d="M973.451 380.624C969.866 381.541 966.124 381.666 962.486 380.989C953.612 379.892 945.061 376.966 937.376 372.394C929.691 367.823 923.038 361.707 917.838 354.432C915.47 351.588 913.801 348.23 912.965 344.625C915.376 347.302 917.614 350.13 919.665 353.092C930.657 366.413 945.952 375.482 962.913 378.736C966.464 379.127 969.985 379.758 973.451 380.624Z" fill="#263238"/>
<path d="M856.987 519.808C854.875 500.394 854.875 480.808 856.987 461.394C859.099 480.808 859.099 500.394 856.987 519.808Z" fill="#263238"/>
<path d="M919.665 497.21C911.036 500.51 901.743 501.7 892.56 500.682C885.802 501.011 879.137 499.012 873.677 495.017C869.657 491.301 869.718 487.525 870.083 487.586C870.449 487.647 871.362 490.571 875.078 493.251C880.412 496.339 886.525 497.819 892.681 497.514C907.483 498.306 919.483 496.296 919.665 497.21Z" fill="#263238"/>
<path d="M979.299 514.936C977.072 506.996 975.824 498.814 975.583 490.571C974.337 482.386 974.132 474.077 974.974 465.841C978.56 481.966 980.013 498.493 979.299 514.997V514.936Z" fill="#263238"/>
<path d="M976.314 475.586C974.505 481.115 970.741 485.793 965.728 488.743C960.714 491.693 954.797 492.711 949.086 491.606C954.243 490.145 959.275 488.271 964.131 486.002C971.745 481.617 975.461 475.099 976.314 475.586Z" fill="#263238"/>
<path d="M1036.5 45.791C1029.66 48.8558 1023.2 52.6983 1017.25 57.2424C1012 62.5916 1007.4 68.5412 1003.54 74.9679C1003.18 74.9679 1003.54 72.1659 1005.25 68.2675C1007.58 63.1647 1010.95 58.6052 1015.15 54.8815C1019.34 51.1577 1024.27 48.3518 1029.61 46.6438C1033.75 45.4256 1036.43 45.4256 1036.5 45.791Z" fill="#455A64"/>
<path d="M1043.93 39.273C1042.04 38.3332 1039.86 38.1437 1037.84 38.7427C1035.82 39.3417 1034.1 40.6846 1033.02 42.5013C1032.33 43.8116 1032.04 45.302 1032.2 46.7774C1032.37 48.2529 1032.97 49.6446 1033.94 50.7702C1034.91 51.8959 1036.19 52.7031 1037.63 53.0862C1039.06 53.4693 1040.58 53.4105 1041.98 52.9174C1043.17 52.4744 1044.24 51.7622 1045.11 50.8364C1045.97 49.9107 1046.62 48.7965 1046.98 47.5812C1047.35 46.3659 1047.43 45.0824 1047.21 43.8313C1047 42.5801 1046.5 41.3953 1045.75 40.3695C1045.26 39.6636 1044.59 39.1039 1043.81 38.7499C1043.03 38.396 1042.16 38.261 1041.31 38.3594" fill="#455A64"/>
<path d="M1008.54 34.7049C1001.69 37.7184 995.225 41.5426 989.288 46.0954C984.039 51.4446 979.438 57.3942 975.583 63.8209C975.217 63.8209 975.583 61.0799 977.227 57.1206C979.591 52.0087 982.993 47.4449 987.217 43.7199C991.42 39.9933 996.359 37.1917 1001.71 35.4968C1005.55 34.2785 1008.48 34.3394 1008.54 34.7049Z" fill="#455A64"/>
<path d="M1015.97 28.1262C1014.07 27.1916 1011.89 27.0113 1009.87 27.6218C1007.84 28.2324 1006.13 29.5882 1005.06 31.4155C1004.35 32.7221 1004.05 34.2151 1004.21 35.6949C1004.37 37.1747 1004.98 38.5707 1005.95 39.6965C1006.93 40.8223 1008.22 41.6241 1009.66 41.9947C1011.1 42.3654 1012.62 42.2871 1014.02 41.7706C1015.21 41.3353 1016.28 40.6298 1017.15 39.7098C1018.01 38.7898 1018.66 37.6805 1019.02 36.4695C1019.39 35.2585 1019.47 33.9789 1019.26 32.7318C1019.04 31.4847 1018.54 30.3042 1017.79 29.2836C1017.32 28.5625 1016.65 27.9909 1015.86 27.6351C1015.08 27.2793 1014.2 27.1539 1013.35 27.2735" fill="#455A64"/>
</svg>
