<svg xmlns="http://www.w3.org/2000/svg" width="476" height="104" fill="none">
  <path stroke="#000" stroke-width="2" d="M233.468 6.546C299.107.113 359.013-.531 402.797 3.618c21.9 2.075 39.716 5.344 52.185 9.663 6.237 2.161 11.08 4.566 14.422 7.173 3.342 2.607 5.09 5.34 5.367 8.162.276 2.823-.908 5.842-3.68 9.048-2.773 3.207-7.057 6.506-12.756 9.836-11.393 6.658-28.235 13.324-49.315 19.61-42.146 12.57-101.037 23.57-166.677 30.002-65.639 6.433-125.545 7.076-169.329 2.928-21.9-2.076-39.715-5.345-52.184-9.664-6.238-2.16-11.08-4.565-14.423-7.172-3.342-2.607-5.09-5.34-5.367-8.162-.276-2.823.908-5.842 3.68-9.049 2.773-3.206 7.057-6.505 12.756-9.836 11.393-6.657 28.235-13.323 49.316-19.61 42.145-12.57 101.036-23.568 166.676-30.001Z"/>
</svg>
