<svg xmlns="http://www.w3.org/2000/svg" fill="none" viewBox="0 0 476 104"><path stroke="currentColor" d="M233.419 6.048C299.08-.387 359.02-1.032 402.845 3.12c21.916 2.077 39.775 5.351 52.299 9.69 6.264 2.169 11.165 4.595 14.568 7.25 3.403 2.654 5.262 5.498 5.556 8.507.295 3.009-.976 6.16-3.799 9.424-2.823 3.265-7.159 6.597-12.883 9.941-11.443 6.687-28.327 13.366-49.423 19.658-42.185 12.582-101.109 23.585-166.771 30.02-65.661 6.434-125.601 7.08-169.425 2.928-21.916-2.077-39.776-5.352-52.3-9.69-6.264-2.17-11.165-4.595-14.568-7.25C2.696 80.944.838 78.099.543 75.091c-.295-3.01.976-6.16 3.799-9.425 2.823-3.264 7.16-6.596 12.883-9.94 11.443-6.687 28.328-13.367 49.423-19.659 42.185-12.581 101.11-23.584 166.771-30.019Z"/></svg>