<svg width="4161" height="2643" viewBox="0 0 4161 2643" fill="none" xmlns="http://www.w3.org/2000/svg">
<path d="M471.657 22.5866C368.898 56.2709 259.317 138.319 235.683 244.063C212.049 349.806 240.312 463.651 302.686 551.912C350.442 619.342 427.069 675.686 509.117 666.305C570.03 659.24 621.683 617.576 680.707 600.338C735.101 584.379 793.942 589.617 848.337 573.719C962.303 540.461 1033.69 411.937 1018.1 294.194C1002.51 176.45 911.929 76.5547 801.922 31.9061C691.915 -12.7425 566.07 -7.26036 452.774 28.1296" fill="#E0E0E0"/>
<path d="M3601.62 2113.82C3516.77 2097.01 3424.55 2132.88 3370.65 2200.56C3316.74 2268.23 3301.94 2363.99 3329.53 2445.97C3357.12 2527.96 3425.16 2594.42 3506.54 2623.59C3566.05 2644.91 3635.86 2646.07 3689.28 2612.51C3735.33 2583.7 3763.95 2533.32 3779.55 2481C3803.49 2401.26 3799.89 2311.42 3759.69 2238.51C3719.49 2165.59 3655.35 2107.97 3572.08 2109.68" fill="#EBEBEB"/>
<path d="M3855.02 1471.08L3857.94 1476.37C3861.21 1482.33 3866.14 1487.19 3872.13 1490.38L3877.43 1493.31L3872.13 1496.17C3866.13 1499.37 3861.19 1504.26 3857.94 1510.24L3855.02 1515.48L3852.09 1510.24C3848.81 1504.29 3843.88 1499.4 3837.9 1496.17L3832.6 1493.31L3837.9 1490.38C3843.87 1487.16 3848.79 1482.3 3852.09 1476.37L3855.02 1471.08Z" fill="#EBEBEB"/>
<path d="M472.936 1729.65L475.798 1734.89C479.082 1740.84 484.009 1745.72 489.991 1748.96L495.351 1751.82L489.991 1754.74C484.025 1757.97 479.102 1762.83 475.798 1768.75L472.936 1774.05L470.012 1768.75C466.708 1762.83 461.785 1757.97 455.819 1754.74L450.459 1751.82L455.819 1748.96C461.802 1745.72 466.728 1740.84 470.012 1734.89L472.936 1729.65Z" fill="#EBEBEB"/>
<path d="M3971.18 2067.1L3976.11 2076.24C3981.72 2086.53 3990.18 2094.99 4000.48 2100.6L4009.61 2105.6L4000.48 2110.53C3990.18 2116.14 3981.72 2124.6 3976.11 2134.9L3971.18 2144.03L3966.18 2134.9C3960.57 2124.6 3952.11 2116.14 3941.82 2110.53L3932.68 2105.6L3941.82 2100.6C3952.11 2094.99 3960.57 2086.53 3966.18 2076.24L3971.18 2067.1Z" fill="#EBEBEB"/>
<path d="M347.213 2314.89L352.208 2324.03C357.815 2334.32 366.275 2342.78 376.573 2348.39L385.709 2353.39L376.573 2358.38C366.275 2363.99 357.815 2372.45 352.208 2382.75L347.213 2391.82L342.279 2382.75C336.672 2372.45 328.212 2363.99 317.914 2358.38L308.777 2353.39L317.914 2348.39C328.212 2342.78 336.672 2334.32 342.279 2324.03L347.213 2314.89Z" fill="#EBEBEB"/>
<path d="M1741.13 235.23L1746.12 244.367C1751.73 254.665 1760.19 263.125 1770.48 268.732L1779.62 273.727L1770.48 278.722C1760.19 284.329 1751.73 292.789 1746.12 303.087L1741.13 312.162L1736.13 303.087C1730.52 292.789 1722.06 284.329 1711.77 278.722L1702.81 273.483L1711.89 268.488C1722.18 262.881 1730.64 254.421 1736.25 244.124L1741.13 235.23Z" fill="#EBEBEB"/>
<path d="M3045.74 1051.94L3050.67 1061.08C3056.28 1071.37 3064.74 1079.83 3075.04 1085.44L3084.18 1090.44L3075.04 1095.37C3064.74 1100.98 3056.28 1109.44 3050.67 1119.73L3045.74 1128.87L3040.74 1119.73C3035.14 1109.44 3026.68 1100.98 3016.38 1095.37L3007.24 1090.44L3016.38 1085.44C3026.68 1079.83 3035.14 1071.37 3040.74 1061.08L3045.74 1051.94Z" fill="#FAFAFA"/>
<path d="M1225.57 1549.29C1219.9 1572.07 1512.22 1813.71 2204.91 1764C2800.14 1721.36 3091.67 1448.78 3091.67 1448.78L1225.57 1549.29Z" fill="#1C2024"/>
<path opacity="0.2" d="M1225.57 1549.29C1219.9 1572.07 1512.22 1813.71 2204.91 1764C2800.14 1721.36 3091.67 1448.78 3091.67 1448.78L1225.57 1549.29Z" fill="black"/>
<path d="M2159.31 1616.42C2676.29 1591.77 3092.72 1515.99 3089.44 1447.18C3086.15 1378.36 2664.4 1342.55 2147.43 1367.2C1630.45 1391.86 1214.02 1467.63 1217.3 1536.45C1220.58 1605.26 1642.33 1641.07 2159.31 1616.42Z" fill="#1C2024"/>
<path d="M1724.74 1459.93C1724.74 1459.93 1697.45 1036.53 2117.26 982.865C2537.06 929.202 2574.46 1374.04 2574.46 1374.04C2574.46 1374.04 2302.73 1581.14 1724.74 1459.93Z" fill="#F5F5F5"/>
<path d="M1941.28 1083.61C1942.68 1085.62 1928.12 1096.89 1906.87 1117.12C1901.63 1122.17 1895.84 1127.71 1889.99 1134.05C1884.15 1140.38 1877.81 1147.14 1871.72 1154.39C1844.59 1186.28 1822.04 1221.79 1804.72 1259.89C1800.88 1268.79 1797.04 1277.13 1794.18 1285.17C1791.32 1293.21 1788.09 1300.77 1786.02 1307.71C1776.76 1335.48 1772.8 1353.45 1770.36 1353.09C1767.93 1352.72 1768.53 1334.14 1775.23 1304.36C1776.94 1296.99 1778.95 1288.95 1781.75 1280.54C1784.55 1272.14 1787.84 1263.18 1791.32 1253.8C1807.69 1213.4 1831.19 1176.26 1860.69 1144.16C1867.64 1136.97 1874.1 1130.03 1880.8 1124.12C1886.77 1118.47 1893.04 1113.12 1899.56 1108.1C1923.31 1089.7 1940.31 1081.85 1941.28 1083.61Z" fill="white"/>
<path d="M3018.82 1440.5C3018.09 1441.65 3017.23 1442.72 3016.26 1443.67C3013.56 1446.49 3010.65 1449.1 3007.55 1451.46C2995.86 1459.8 2983.07 1466.46 2969.54 1471.26C2881.52 1505.39 2789.04 1526.64 2694.95 1534.36C2676.67 1535.76 2662.3 1536.43 2652.31 1536.68H2640.67C2639.32 1536.77 2637.95 1536.77 2636.59 1536.68C2637.93 1536.35 2639.3 1536.19 2640.67 1536.19L2652.25 1535.4C2662.36 1534.73 2676.92 1533.75 2694.89 1532.05C2788.63 1523.15 2880.79 1501.93 2968.99 1468.94C2982.45 1464.38 2995.27 1458.09 3007.12 1450.24C3011.18 1447.2 3015.09 1443.95 3018.82 1440.5Z" fill="white"/>
<path d="M2042.52 1771.92C2040.48 1770.97 2038.55 1769.79 2036.79 1768.39C2031.72 1764.93 2026.9 1761.12 2022.36 1757C2015.52 1750.94 2009.16 1744.37 2003.35 1737.32C1996.23 1728.7 1989.85 1719.49 1984.29 1709.79C1978.81 1700.04 1974.15 1689.85 1970.34 1679.33C1967.3 1670.73 1964.89 1661.92 1963.15 1652.96C1961.95 1646.93 1961.13 1640.82 1960.71 1634.69C1960.46 1632.44 1960.46 1630.17 1960.71 1627.92C1961.32 1627.92 1961.99 1637.43 1965.4 1652.29C1967.42 1661.06 1970.01 1669.68 1973.14 1678.12C1977.08 1688.4 1981.74 1698.39 1987.09 1708.02C1992.61 1717.54 1998.82 1726.64 2005.67 1735.25C2011.31 1742.27 2017.41 1748.9 2023.94 1755.11C2035.03 1765.83 2042.88 1771.37 2042.52 1771.92Z" fill="#263238"/>
<path d="M2013.77 1675.19C2013.77 1675.62 2012.24 1676.35 2011.76 1678.6C2011.57 1679.18 2011.52 1679.8 2011.62 1680.4C2011.71 1681.01 2011.95 1681.58 2012.31 1682.08C2012.76 1682.52 2013.33 1682.84 2013.95 1683C2014.57 1683.16 2015.23 1683.15 2015.84 1682.98C2016.46 1682.81 2017.02 1682.47 2017.47 1682.02C2017.92 1681.56 2018.24 1680.99 2018.4 1680.37C2018.44 1679.76 2018.35 1679.15 2018.13 1678.58C2017.91 1678.01 2017.56 1677.5 2017.12 1677.08C2015.47 1675.37 2013.71 1675.68 2013.58 1675.19C2013.46 1674.7 2015.53 1673.43 2018.52 1675.19C2019.39 1675.75 2020.1 1676.51 2020.59 1677.42C2021.08 1678.33 2021.33 1679.34 2021.32 1680.37C2021.26 1681.7 2020.77 1682.97 2019.93 1683.99C2019.08 1685.01 2017.92 1685.73 2016.63 1686.03C2015.52 1686.34 2014.34 1686.33 2013.24 1685.99C2012.13 1685.66 2011.15 1685.01 2010.39 1684.14C2009.64 1683.26 2009.15 1682.19 2008.98 1681.05C2008.81 1679.91 2008.97 1678.74 2009.44 1677.69C2011.21 1674.46 2013.89 1674.77 2013.77 1675.19Z" fill="#263238"/>
<path d="M2041.06 1723.98C2041.06 1724.41 2039.59 1725.08 2039.05 1727.39C2038.88 1727.98 2038.84 1728.59 2038.93 1729.19C2039.03 1729.79 2039.25 1730.36 2039.59 1730.87C2040.03 1731.38 2040.61 1731.76 2041.27 1731.93C2041.92 1732.11 2042.61 1732.07 2043.25 1731.84C2043.91 1731.71 2044.52 1731.38 2044.99 1730.88C2045.46 1730.39 2045.77 1729.77 2045.87 1729.1C2045.91 1728.5 2045.81 1727.9 2045.59 1727.34C2045.37 1726.78 2045.03 1726.28 2044.59 1725.87C2042.94 1724.17 2041.18 1724.41 2041.06 1723.98C2040.93 1723.56 2043.01 1722.22 2045.99 1723.98C2046.86 1724.54 2047.57 1725.3 2048.06 1726.21C2048.55 1727.12 2048.8 1728.13 2048.79 1729.16C2048.64 1729.96 2048.32 1730.72 2047.87 1731.4C2047.41 1732.08 2046.83 1732.66 2046.14 1733.1C2045.46 1733.55 2044.7 1733.85 2043.89 1734C2043.09 1734.14 2042.27 1734.13 2041.47 1733.95C2040.67 1733.77 2039.92 1733.43 2039.26 1732.95C2038.6 1732.48 2038.04 1731.87 2037.61 1731.18C2037.19 1730.48 2036.91 1729.71 2036.79 1728.9C2036.67 1728.09 2036.71 1727.27 2036.91 1726.48C2038.5 1723.19 2041.18 1723.56 2041.06 1723.98Z" fill="#263238"/>
<path d="M1219.47 1532.35C1221.06 1531.65 1222.71 1531.1 1224.41 1530.71L1238.78 1526.63C1250.97 1523.16 1269.24 1518.47 1291.96 1513.04C1336.97 1502.2 1399.77 1489.29 1469.82 1479.24C1539.87 1469.19 1603.83 1464.25 1650.12 1462.06C1673.27 1460.96 1692.03 1460.42 1704.94 1460.36H1719.87C1721.61 1460.2 1723.36 1460.2 1725.1 1460.36C1723.39 1460.65 1721.66 1460.81 1719.93 1460.84L1705 1461.51C1692.09 1462 1673.33 1462.85 1650.18 1464.25C1603.95 1466.99 1540.18 1472.42 1470.19 1482.53C1400.2 1492.64 1337.52 1505.06 1292.39 1515.36C1269.79 1520.48 1251.57 1524.8 1239.03 1527.97L1224.53 1531.5C1222.87 1531.92 1221.18 1532.2 1219.47 1532.35Z" fill="#263238"/>
<path d="M2580.98 1580.05C2578.25 1578.69 2575.64 1577.1 2573.18 1575.3L2552.41 1561.53C2534.87 1549.9 2510.44 1534.18 2482.91 1517.67C2455.38 1501.17 2429.98 1487.22 2411.46 1477.11L2389.53 1465.29C2386.77 1463.96 2384.13 1462.41 2381.62 1460.66C2384.53 1461.6 2387.36 1462.78 2390.08 1464.19C2395.44 1466.63 2403.12 1470.28 2412.5 1475.1C2431.32 1484.6 2456.96 1498.42 2484.56 1514.93C2512.15 1531.44 2536.45 1547.58 2553.69 1559.64C2562.28 1565.73 2569.22 1570.73 2573.91 1574.26C2576.43 1575.98 2578.8 1577.92 2580.98 1580.05Z" fill="#263238"/>
<path d="M2410.3 1500.13C2410.67 1500.5 2408.84 1502.02 2408.96 1505.19C2409 1506.89 2409.7 1508.51 2410.91 1509.69C2411.72 1510.23 2412.64 1510.55 2413.6 1510.63C2414.55 1510.71 2415.52 1510.55 2416.4 1510.17C2417.28 1509.78 2418.05 1509.17 2418.63 1508.41C2419.22 1507.64 2419.6 1506.75 2419.75 1505.79C2419.74 1504.94 2419.56 1504.1 2419.22 1503.33C2418.87 1502.55 2418.37 1501.86 2417.74 1501.29C2415.48 1499.09 2413.17 1499.4 2413.11 1498.91C2413.05 1498.42 2415.6 1497.15 2419.2 1499.52C2420.2 1500.21 2421.03 1501.12 2421.64 1502.17C2422.25 1503.23 2422.63 1504.4 2422.73 1505.61C2422.73 1507.2 2422.25 1508.75 2421.36 1510.06C2420.47 1511.37 2419.21 1512.39 2417.74 1512.98C2416.32 1513.66 2414.74 1513.91 2413.19 1513.68C2411.63 1513.45 2410.18 1512.76 2409.03 1511.7C2408.16 1510.83 2407.5 1509.76 2407.11 1508.59C2406.72 1507.41 2406.6 1506.17 2406.77 1504.94C2407.32 1500.8 2410.24 1499.76 2410.3 1500.13Z" fill="#263238"/>
<path d="M1622.1 1476.56C1622.1 1476.92 1620.64 1478.45 1620.76 1481.55C1620.76 1482.4 1620.93 1483.24 1621.26 1484.01C1621.6 1484.79 1622.09 1485.49 1622.71 1486.06C1623.51 1486.61 1624.43 1486.95 1625.4 1487.04C1626.36 1487.13 1627.33 1486.97 1628.22 1486.58C1629.1 1486.19 1629.87 1485.58 1630.46 1484.81C1631.04 1484.03 1631.41 1483.12 1631.54 1482.16C1631.53 1481.32 1631.35 1480.49 1631 1479.73C1630.66 1478.96 1630.16 1478.28 1629.53 1477.72C1627.28 1475.46 1624.97 1475.83 1624.9 1475.34C1624.84 1474.85 1627.4 1473.57 1631 1475.95C1632 1476.64 1632.84 1477.54 1633.45 1478.59C1634.06 1479.65 1634.43 1480.83 1634.53 1482.04C1634.53 1483.62 1634.05 1485.16 1633.16 1486.46C1632.27 1487.77 1631 1488.77 1629.53 1489.35C1628.11 1490.04 1626.52 1490.28 1624.95 1490.05C1623.39 1489.82 1621.93 1489.13 1620.76 1488.07C1619.91 1487.18 1619.27 1486.11 1618.89 1484.94C1618.51 1483.77 1618.4 1482.53 1618.57 1481.31C1619.12 1477.23 1622.04 1476.13 1622.1 1476.56Z" fill="#263238"/>
<path d="M1476.71 1494.89C1476.71 1495.26 1475.24 1496.72 1475.3 1499.89C1475.32 1500.73 1475.51 1501.57 1475.86 1502.34C1476.2 1503.12 1476.7 1503.81 1477.31 1504.39C1478.09 1504.99 1479.01 1505.35 1479.98 1505.45C1480.95 1505.54 1481.92 1505.37 1482.8 1504.94C1483.71 1504.59 1484.5 1503.98 1485.08 1503.2C1485.67 1502.41 1486.01 1501.47 1486.09 1500.5C1486.09 1499.65 1485.92 1498.81 1485.59 1498.04C1485.25 1497.26 1484.76 1496.56 1484.14 1495.99C1481.88 1493.8 1479.57 1494.1 1479.51 1493.61C1479.45 1493.13 1482 1491.91 1485.6 1494.28C1486.6 1494.97 1487.44 1495.87 1488.04 1496.93C1488.64 1497.98 1488.99 1499.16 1489.07 1500.37C1489.1 1501.95 1488.64 1503.5 1487.76 1504.81C1486.87 1506.12 1485.61 1507.12 1484.14 1507.68C1482.71 1508.37 1481.12 1508.61 1479.55 1508.39C1477.99 1508.16 1476.53 1507.47 1475.36 1506.4C1474.51 1505.52 1473.87 1504.45 1473.49 1503.28C1473.11 1502.1 1473 1500.86 1473.17 1499.64C1473.78 1495.56 1476.64 1494.47 1476.71 1494.89Z" fill="#263238"/>
<path d="M1310.9 1520.48C1311.21 1520.84 1309.38 1522.36 1309.5 1525.53C1309.5 1526.38 1309.68 1527.22 1310.03 1528C1310.38 1528.77 1310.88 1529.47 1311.51 1530.04C1312.28 1530.63 1313.21 1531 1314.18 1531.08C1315.15 1531.17 1316.13 1530.98 1316.99 1530.53C1317.91 1530.19 1318.7 1529.6 1319.28 1528.82C1319.87 1528.04 1320.21 1527.11 1320.28 1526.14C1320.25 1524.44 1319.55 1522.82 1318.33 1521.63C1316.08 1519.44 1313.7 1519.74 1313.7 1519.26C1313.7 1518.77 1316.2 1517.49 1319.8 1519.93C1320.8 1520.61 1321.63 1521.52 1322.23 1522.57C1322.83 1523.63 1323.19 1524.81 1323.27 1526.02C1323.27 1527.59 1322.8 1529.13 1321.92 1530.43C1321.04 1531.73 1319.79 1532.74 1318.33 1533.33C1316.91 1534.01 1315.32 1534.26 1313.75 1534.03C1312.19 1533.8 1310.73 1533.11 1309.56 1532.05C1308.72 1531.15 1308.08 1530.08 1307.69 1528.92C1307.3 1527.75 1307.17 1526.51 1307.31 1525.29C1307.92 1521.15 1310.84 1520.11 1310.9 1520.48Z" fill="#263238"/>
<path d="M2476.7 1544.96C2477.06 1545.33 2475.24 1546.85 2475.36 1549.96C2475.35 1550.8 2475.52 1551.64 2475.86 1552.42C2476.19 1553.19 2476.69 1553.89 2477.31 1554.46C2478.07 1555.07 2479 1555.44 2479.97 1555.54C2480.94 1555.64 2481.92 1555.45 2482.79 1555.01C2483.71 1554.66 2484.51 1554.06 2485.11 1553.27C2485.7 1552.48 2486.06 1551.55 2486.14 1550.57C2486.13 1549.73 2485.95 1548.9 2485.6 1548.13C2485.25 1547.37 2484.75 1546.68 2484.13 1546.12C2481.88 1543.87 2479.56 1544.23 2479.5 1543.74C2479.44 1543.26 2482 1541.98 2485.59 1544.35C2486.6 1545.04 2487.44 1545.94 2488.05 1547C2488.66 1548.05 2489.03 1549.23 2489.13 1550.44C2489.2 1551.57 2489.04 1552.71 2488.65 1553.77C2488.26 1554.84 2487.65 1555.81 2486.85 1556.62C2486.06 1557.43 2485.11 1558.06 2484.05 1558.48C2483 1558.89 2481.87 1559.08 2480.74 1559.03C2479.6 1558.98 2478.5 1558.68 2477.48 1558.17C2476.47 1557.66 2475.58 1556.95 2474.86 1556.07C2474.15 1555.19 2473.63 1554.17 2473.34 1553.07C2473.04 1551.98 2472.99 1550.83 2473.17 1549.71C2473.71 1545.63 2476.64 1544.54 2476.7 1544.96Z" fill="#263238"/>
<path d="M2182.31 1030.56C2164.99 1024.73 2146.61 1022.68 2128.43 1024.55C2110.24 1026.43 2092.67 1032.17 2076.9 1041.41C2061.12 1050.64 2047.51 1063.15 2036.98 1078.09C2026.44 1093.03 2019.24 1110.06 2015.84 1128.02L2015.29 1131.37C2013.18 1143.64 2013.18 1156.19 2015.29 1168.46C2019.21 1191.31 2027.49 1213.18 2039.66 1232.91C2074.56 1289.5 2093.26 1291.32 2096.67 1323.61C2100.08 1355.89 2104.95 1362.77 2088.45 1376.54C2088.45 1376.54 2065.79 1377.94 2053.42 1385.49C2041.06 1393.05 2030.7 1398.53 2029.36 1436.36C2028.02 1474.18 2026.38 1497.27 2026.38 1497.27C2092.33 1501.14 2158.51 1498.59 2223.98 1489.65L2215.69 1394.27C2214.36 1389.85 2211.88 1385.86 2208.5 1382.72C2205.11 1379.58 2200.95 1377.41 2196.44 1376.42C2181.34 1373.68 2158.01 1374.35 2156.61 1366.12C2155.21 1357.9 2158.68 1355.1 2158.68 1355.1C2158.68 1355.1 2186.15 1366.12 2204 1357.84C2221.84 1349.56 2241.82 1338.65 2245.23 1324.89C2248.64 1311.12 2259.43 1264.4 2257.42 1262.33C2255.41 1260.26 2284.28 1236.93 2285.5 1183.14C2286.71 1129.36 2251.02 1058.03 2203.57 1038.11C2196.22 1035.35 2189.13 1032.83 2182.31 1030.56Z" fill="#BBBBBB"/>
<path d="M2094.54 1152.08C2094.54 1152.08 2196.63 1121.08 2181.4 1239.12C2181.4 1239.12 2072.24 1252.83 2094.54 1152.08Z" fill="#263238"/>
<path d="M2225.38 1236.56C2225.38 1236.56 2182.37 1133.99 2257.78 1144.22C2257.78 1144.53 2298.71 1218.47 2225.38 1236.56Z" fill="#263238"/>
<path d="M2363.4 1365.27C2363.4 1365.27 2345.13 1371.36 2340.62 1376.36C2336.11 1381.35 2329.29 1399.5 2321.8 1401.7C2315.44 1402.71 2308.92 1402.1 2302.86 1399.93C2302.86 1399.93 2298.9 1377.88 2290.67 1368.07C2282.45 1358.27 2280.38 1360.58 2280.38 1360.58C2280.38 1360.58 2259.73 1360.09 2260.83 1348.4C2260.83 1348.4 2269.42 1338.35 2283.97 1352.36C2286.06 1354.4 2288.82 1355.62 2291.74 1355.8C2294.66 1355.98 2297.55 1355.11 2299.87 1353.33C2308.03 1346.69 2309.25 1330.37 2308.4 1319.47C2308.4 1319.47 2300.18 1300.4 2313.03 1296.56C2313.03 1296.56 2323.81 1297.35 2317.9 1319.65C2317.9 1319.65 2308.46 1343.34 2321.49 1352.72C2321.49 1352.72 2332.09 1357.35 2344.03 1336.76L2347.99 1329.21C2347.99 1329.21 2348.66 1312.89 2362.85 1312.46C2363.68 1312.43 2364.49 1312.7 2365.14 1313.21C2365.78 1313.72 2366.23 1314.45 2366.39 1315.26C2367.13 1319.13 2366.41 1323.14 2364.38 1326.51C2362.34 1329.89 2359.13 1332.39 2355.36 1333.54C2355.36 1333.54 2339.1 1345.72 2341.23 1359.79C2341.23 1359.79 2346.16 1365.09 2358.41 1359.48L2363.1 1357.72C2363.1 1357.72 2378.51 1344.56 2380.76 1350.59C2383.08 1358.02 2374.31 1365.82 2363.4 1365.27Z" fill="#BBBBBB"/>
<path d="M2302.8 1396.76L2282.88 1481.55L2300.12 1478.81L2317.9 1475.28L2328.2 1396.52L2302.8 1396.76Z" fill="#BBBBBB"/>
<g opacity="0.2">
<path d="M2081.93 1061.32C2078.19 1061.32 2074.57 1062.59 2071.65 1064.92C2068.74 1067.26 2066.71 1070.53 2065.91 1074.17C2065.37 1077.95 2066.1 1081.8 2068 1085.11C2069.9 1088.42 2072.85 1091 2076.39 1092.45C2080.02 1093.67 2083.96 1093.63 2087.57 1092.33C2091.18 1091.02 2094.24 1088.53 2096.24 1085.26C2098.05 1081.87 2098.63 1077.97 2097.88 1074.21C2097.14 1070.44 2095.12 1067.05 2092.16 1064.61C2090.26 1063.16 2088.06 1062.15 2085.73 1061.64C2083.39 1061.14 2080.97 1061.15 2078.64 1061.69" fill="white"/>
</g>
<path d="M2110.56 1175.77C2109.01 1175.63 2107.47 1176.01 2106.17 1176.87C2104.87 1177.72 2103.91 1178.99 2103.43 1180.46C2102.96 1182.03 2103.07 1183.7 2103.73 1185.19C2104.39 1186.68 2105.57 1187.89 2107.04 1188.59C2108.51 1189.29 2110.18 1189.43 2111.76 1189.01C2113.33 1188.58 2114.7 1187.6 2115.61 1186.25C2116.5 1184.92 2116.89 1183.32 2116.72 1181.73C2116.55 1180.14 2115.84 1178.66 2114.7 1177.54C2113.97 1176.87 2113.1 1176.37 2112.15 1176.07C2111.2 1175.78 2110.2 1175.7 2109.22 1175.83" fill="#455A64"/>
<path d="M2113.36 1200.87C2112.58 1200.79 2111.79 1200.99 2111.14 1201.42C2110.48 1201.85 2110 1202.5 2109.76 1203.25C2109.57 1204.03 2109.65 1204.86 2110 1205.59C2110.34 1206.32 2110.93 1206.91 2111.65 1207.27C2112.38 1207.62 2113.21 1207.7 2113.99 1207.5C2114.77 1207.3 2115.45 1206.83 2115.92 1206.17C2116.31 1205.63 2116.54 1204.99 2116.57 1204.33C2116.6 1203.66 2116.43 1203 2116.08 1202.43C2115.74 1201.87 2115.23 1201.41 2114.63 1201.13C2114.02 1200.86 2113.35 1200.76 2112.69 1200.87" fill="#455A64"/>
<g opacity="0.2">
<path d="M2057.56 1099.21C2056.14 1099.74 2054.96 1100.75 2054.21 1102.06C2053.46 1103.38 2053.19 1104.91 2053.46 1106.4C2053.73 1107.89 2054.51 1109.24 2055.68 1110.21C2056.84 1111.18 2058.3 1111.71 2059.82 1111.71C2061.33 1111.71 2062.8 1111.18 2063.96 1110.21C2065.12 1109.24 2065.9 1107.89 2066.17 1106.4C2066.44 1104.91 2066.18 1103.38 2065.43 1102.06C2064.68 1100.75 2063.49 1099.74 2062.07 1099.21" fill="white"/>
</g>
<path d="M2150.88 1250.33C2149.29 1250.65 2147.66 1250.65 2146.07 1250.33C2141.66 1250.18 2137.29 1249.52 2133.03 1248.38C2118.73 1244.76 2105.91 1236.76 2096.38 1225.5C2086.85 1214.24 2081.07 1200.29 2079.86 1185.58C2079.4 1181.19 2079.4 1176.76 2079.86 1172.36C2079.91 1170.74 2080.28 1169.15 2080.95 1167.67C2081.56 1167.67 2080.4 1174.5 2081.87 1185.28C2083.63 1199.33 2089.44 1212.57 2098.59 1223.38C2107.74 1234.2 2119.83 1242.12 2133.4 1246.19C2143.81 1249.72 2150.94 1249.78 2150.88 1250.33Z" fill="#263238"/>
<path d="M2181.58 1174.49C2174 1164.62 2164.69 1156.2 2154.11 1149.64C2143.05 1143.96 2131.06 1140.29 2118.72 1138.8C2122.39 1137.88 2126.21 1137.76 2129.93 1138.43C2138.99 1139.51 2147.75 1142.39 2155.69 1146.9C2163.63 1151.41 2170.59 1157.46 2176.16 1164.69C2178.68 1167.51 2180.53 1170.86 2181.58 1174.49Z" fill="#263238"/>
<path d="M2212.77 1187.16C2211.65 1184.18 2211.07 1181.03 2211.06 1177.84C2210.18 1170.15 2210.86 1162.36 2213.07 1154.94C2214.26 1151.17 2216.19 1147.67 2218.74 1144.65C2221.29 1141.63 2224.42 1139.14 2227.93 1137.34C2229.32 1136.46 2230.88 1135.87 2232.5 1135.61C2234.12 1135.35 2235.78 1135.42 2237.37 1135.82C2234.51 1136.81 2231.7 1137.97 2228.97 1139.29C2222.86 1143.19 2218.3 1149.09 2216.06 1155.98C2214 1163.06 2213.07 1170.42 2213.31 1177.78C2213.65 1180.92 2213.46 1184.09 2212.77 1187.16Z" fill="#263238"/>
<path d="M2261.56 1225.36C2260.37 1228.58 2258.51 1231.52 2256.11 1233.98C2253.7 1236.43 2250.81 1238.35 2247.61 1239.61C2244.66 1241.37 2241.37 1242.49 2237.96 1242.88C2234.55 1243.28 2231.09 1242.96 2227.81 1241.92C2234.06 1240.86 2240.19 1239.14 2246.09 1236.81C2251.64 1233.55 2256.82 1229.71 2261.56 1225.36Z" fill="#263238"/>
<path d="M2202.59 1284.62C2202.59 1284.99 2201.38 1286.27 2198.45 1287C2196.51 1287.48 2194.5 1287.57 2192.52 1287.26C2190.55 1286.95 2188.65 1286.25 2186.95 1285.2C2185.25 1284.15 2183.78 1282.77 2182.61 1281.15C2181.45 1279.52 2180.62 1277.68 2180.18 1275.73C2179.57 1272.75 2180.18 1270.98 2180.54 1270.98C2180.91 1270.98 2181.28 1272.69 2182.31 1275C2183.57 1278.02 2185.69 1280.6 2188.4 1282.43C2191.24 1284.11 2194.49 1284.93 2197.78 1284.81C2200.77 1284.62 2202.41 1284.14 2202.59 1284.62Z" fill="#263238"/>
<path d="M2184.81 1359C2181.22 1359.91 2177.48 1360.04 2173.84 1359.36C2164.97 1358.27 2156.42 1355.34 2148.73 1350.77C2141.05 1346.2 2134.4 1340.08 2129.2 1332.8C2126.83 1329.96 2125.16 1326.6 2124.32 1323C2126.73 1325.67 2128.97 1328.5 2131.02 1331.46C2142.01 1344.79 2157.31 1353.85 2174.27 1357.11C2177.82 1357.5 2181.34 1358.13 2184.81 1359Z" fill="#263238"/>
<path d="M2068.34 1498.18C2066.23 1478.77 2066.23 1459.18 2068.34 1439.77C2070.46 1459.18 2070.46 1478.77 2068.34 1498.18Z" fill="#263238"/>
<path d="M2131.02 1475.58C2122.39 1478.88 2113.1 1480.07 2103.92 1479.05C2097.16 1479.38 2090.49 1477.38 2085.03 1473.39C2081.01 1469.67 2081.08 1465.9 2081.44 1465.96C2081.81 1466.02 2082.72 1468.94 2086.44 1471.62C2091.77 1474.71 2097.88 1476.19 2104.04 1475.89C2118.84 1476.68 2130.84 1474.67 2131.02 1475.58Z" fill="#263238"/>
<path d="M2190.66 1493.31C2188.43 1485.37 2187.18 1477.19 2186.94 1468.94C2185.69 1460.76 2185.49 1452.45 2186.33 1444.21C2189.92 1460.34 2191.37 1476.87 2190.66 1493.37V1493.31Z" fill="#263238"/>
<path d="M2187.67 1453.96C2185.86 1459.49 2182.1 1464.17 2177.09 1467.12C2172.07 1470.07 2166.15 1471.08 2160.44 1469.98C2165.6 1468.52 2170.63 1466.64 2175.49 1464.38C2183.1 1459.99 2186.82 1453.47 2187.67 1453.96Z" fill="#263238"/>
<path d="M2247.85 1024.16C2241.02 1027.23 2234.56 1031.07 2228.6 1035.62C2223.36 1040.96 2218.76 1046.91 2214.9 1053.34C2214.53 1053.34 2214.9 1050.54 2216.6 1046.64C2218.94 1041.54 2222.31 1036.98 2226.5 1033.25C2230.7 1029.53 2235.63 1026.72 2240.97 1025.02C2245.11 1023.8 2247.79 1023.8 2247.85 1024.16Z" fill="#455A64"/>
<path d="M2255.28 1017.65C2253.39 1016.71 2251.22 1016.52 2249.2 1017.12C2247.17 1017.71 2245.45 1019.06 2244.38 1020.87C2243.68 1022.18 2243.4 1023.68 2243.56 1025.15C2243.72 1026.63 2244.33 1028.02 2245.3 1029.14C2246.26 1030.27 2247.55 1031.08 2248.98 1031.46C2250.42 1031.84 2251.93 1031.78 2253.33 1031.29C2254.52 1030.85 2255.59 1030.14 2256.46 1029.21C2257.33 1028.28 2257.97 1027.17 2258.34 1025.95C2258.7 1024.74 2258.78 1023.46 2258.57 1022.2C2258.36 1020.95 2257.86 1019.77 2257.11 1018.74C2256.62 1018.04 2255.95 1017.48 2255.17 1017.12C2254.38 1016.77 2253.52 1016.63 2252.66 1016.73" fill="#455A64"/>
<path d="M2219.89 1013.08C2213.05 1016.09 2206.58 1019.92 2200.65 1024.47C2195.4 1029.82 2190.8 1035.77 2186.94 1042.19C2186.57 1042.19 2186.94 1039.45 2188.58 1035.49C2190.95 1030.38 2194.35 1025.82 2198.57 1022.09C2202.78 1018.37 2207.72 1015.56 2213.07 1013.87C2216.91 1012.65 2219.83 1012.71 2219.89 1013.08Z" fill="#455A64"/>
<path d="M2227.32 1006.5C2225.43 1005.56 2223.25 1005.38 2221.22 1005.99C2219.2 1006.61 2217.48 1007.96 2216.42 1009.79C2215.71 1011.1 2215.41 1012.59 2215.57 1014.07C2215.73 1015.55 2216.34 1016.94 2217.31 1018.07C2218.28 1019.2 2219.58 1020 2221.02 1020.37C2222.46 1020.74 2223.98 1020.66 2225.38 1020.14C2226.56 1019.71 2227.63 1019 2228.5 1018.08C2229.37 1017.16 2230.01 1016.05 2230.38 1014.84C2230.75 1013.63 2230.83 1012.35 2230.61 1011.1C2230.4 1009.86 2229.9 1008.68 2229.15 1007.66C2228.68 1006.94 2228.01 1006.36 2227.22 1006.01C2226.43 1005.65 2225.56 1005.53 2224.71 1005.65" fill="#455A64"/>
<path d="M1436.57 1102.5L1439.49 1107.8C1442.82 1113.71 1447.74 1118.59 1453.68 1121.87L1458.98 1124.73L1453.68 1127.65C1447.72 1130.88 1442.79 1135.74 1439.49 1141.66L1436.57 1146.96L1433.64 1141.66C1430.38 1135.73 1425.47 1130.86 1419.51 1127.65L1414.15 1124.73L1419.51 1121.87C1425.46 1118.61 1430.36 1113.73 1433.64 1107.8L1436.57 1102.5Z" fill="#FAFAFA"/>
<path d="M1894.08 1952.04L1897 1957.34C1900.26 1963.27 1905.17 1968.14 1911.13 1971.35L1916.49 1974.27L1911.13 1977.13C1905.2 1980.37 1900.33 1985.26 1897.12 1991.2L1894.2 1996.44L1891.27 1991.2C1887.99 1985.25 1883.06 1980.37 1877.08 1977.13L1871.78 1974.27L1877.08 1971.35C1883.05 1968.12 1887.97 1963.26 1891.27 1957.34L1894.08 1952.04Z" fill="#EBEBEB"/>
<path d="M985.755 2483.62L988.678 2488.92C991.982 2494.84 996.905 2499.7 1002.87 2502.93L1008.23 2505.85L1002.87 2508.71C996.888 2511.95 991.962 2516.83 988.678 2522.78L985.755 2528.02L982.831 2522.78C979.589 2516.82 974.678 2511.93 968.699 2508.71L963.339 2505.85L968.699 2502.93C974.661 2499.72 979.568 2494.85 982.831 2488.92L985.755 2483.62Z" fill="#EBEBEB"/>
<path d="M2946.33 127.965L2949.26 133.264C2952.5 139.183 2957.36 144.061 2963.27 147.335L2968.56 150.198L2963.27 153.061C2957.36 156.334 2952.5 161.212 2949.26 167.131L2946.33 172.431L2943.47 167.131C2940.27 161.221 2935.45 156.342 2929.58 153.061L2924.34 150.198L2929.58 147.335C2935.43 144.087 2940.25 139.251 2943.47 133.386L2946.33 127.965Z" fill="#455A64"/>
<path d="M2139.19 2186.61L2142.11 2191.91C2145.34 2197.82 2150.2 2202.69 2156.12 2205.92L2161.42 2208.84L2156.12 2211.71C2150.19 2214.95 2145.32 2219.83 2142.11 2225.78L2139.19 2231.01L2136.32 2225.78C2133.1 2219.82 2128.21 2214.93 2122.25 2211.71L2116.95 2208.84L2122.25 2205.92C2128.2 2202.7 2133.08 2197.84 2136.32 2191.91L2139.19 2186.61Z" fill="#455A64"/>
<path d="M453.2 464.687L456.124 469.986C459.378 475.921 464.259 480.803 470.195 484.057L475.433 486.919L470.195 489.782C464.259 493.036 459.378 497.918 456.124 503.853L453.2 509.152L450.337 503.853C447.084 497.918 442.202 493.036 436.267 489.782L431.028 486.919L436.267 484.057C442.202 480.803 447.084 475.921 450.337 469.986L453.2 464.687Z" fill="#455A64"/>
<path d="M3223.73 2351.99L3226.65 2357.29C3229.9 2363.2 3234.75 2368.08 3240.66 2371.36L3245.96 2374.22L3240.66 2377.14C3234.74 2380.38 3229.88 2385.24 3226.65 2391.15L3223.73 2396.45L3220.86 2391.15C3217.62 2385.22 3212.74 2380.36 3206.79 2377.14L3201.55 2374.22L3206.79 2371.36C3212.73 2368.1 3217.61 2363.22 3220.86 2357.29L3223.73 2351.99Z" fill="#455A64"/>
<path d="M2917.4 1789.65L2920.26 1794.95C2923.53 1800.85 2928.41 1805.71 2934.33 1808.96L2939.63 1811.88L2934.33 1814.74C2928.4 1818 2923.51 1822.88 2920.26 1828.81L2917.4 1834.11L2914.47 1828.81C2911.26 1822.87 2906.39 1817.98 2900.46 1814.74L2895.17 1811.88L2900.46 1808.96C2906.38 1805.72 2911.24 1800.86 2914.47 1794.95L2917.4 1789.65Z" fill="#455A64"/>
<path d="M963.339 1452.99L966.263 1458.28C969.511 1464.2 974.368 1469.08 980.273 1472.36L985.572 1475.22L980.273 1478.08C974.368 1481.35 969.511 1486.23 966.263 1492.15L963.339 1497.45L960.476 1492.15C957.178 1486.25 952.307 1481.38 946.406 1478.08L941.106 1475.22L946.406 1472.36C952.307 1469.06 957.178 1464.19 960.476 1458.28L963.339 1452.99Z" fill="#455A64"/>
<path d="M3559.11 1311.91L3560.57 1314.53C3562.19 1317.49 3564.62 1319.92 3567.57 1321.54L3570.25 1323L3567.57 1324.46C3564.62 1326.08 3562.19 1328.51 3560.57 1331.47L3559.11 1334.15L3557.71 1331.47C3556.08 1328.49 3553.63 1326.06 3550.64 1324.46L3548.02 1323L3550.64 1321.54C3553.63 1319.94 3556.08 1317.51 3557.71 1314.53L3559.11 1311.91Z" fill="#455A64"/>
<path d="M1496.38 1940.95L1497.72 1943.63C1499.22 1946.66 1501.57 1949.18 1504.48 1950.88L1507.04 1952.46L1504.36 1953.8C1501.35 1955.32 1498.83 1957.66 1497.11 1960.57L1495.53 1963.12L1494.19 1960.44C1492.7 1957.4 1490.35 1954.86 1487.43 1953.13L1484.87 1951.61L1487.55 1950.27C1490.58 1948.76 1493.11 1946.41 1494.86 1943.51L1496.38 1940.95Z" fill="#455A64"/>
<path d="M3333.43 645.718L3334.89 648.337C3336.47 651.32 3338.91 653.76 3341.89 655.342L3344.51 656.804L3341.89 658.266C3338.91 659.847 3336.47 662.287 3334.89 665.271L3333.43 667.89L3331.97 665.271C3330.38 662.287 3327.94 659.847 3324.96 658.266L3322.34 656.804L3324.96 655.342C3327.94 653.76 3330.38 651.32 3331.97 648.337L3333.43 645.718Z" fill="#455A64"/>
<path d="M1546.88 720.03L1548.34 722.71C1549.98 725.646 1552.41 728.07 1555.34 729.715L1558.02 731.177L1555.34 732.578C1552.4 734.24 1549.98 736.686 1548.34 739.644L1546.88 742.507L1545.48 739.888C1543.84 736.91 1541.39 734.459 1538.41 732.822L1535.79 731.421L1538.41 729.959C1541.37 728.322 1543.81 725.898 1545.48 722.954L1546.88 720.03Z" fill="#455A64"/>
<path d="M766.41 231.881L767.811 234.561C769.473 237.505 771.919 239.929 774.877 241.566L777.496 243.028L774.877 244.429C771.899 246.066 769.448 248.517 767.811 251.495L766.41 254.114L764.948 251.495C763.312 248.537 760.887 246.091 757.943 244.429L755.02 243.028L757.7 241.566C760.635 239.92 763.059 237.496 764.705 234.561L766.41 231.881Z" fill="#455A64"/>
<path d="M2275.63 426.373L2280.56 435.449C2286.17 445.746 2294.63 454.206 2304.93 459.814L2314.06 464.809L2304.93 469.803C2294.63 475.411 2286.17 483.871 2280.56 494.168L2275.63 503.305L2270.63 494.168C2265.03 483.871 2256.57 475.411 2246.27 469.803L2237.13 464.809L2246.27 459.814C2256.57 454.206 2265.03 445.746 2270.63 435.449L2275.63 426.373Z" fill="#455A64"/>
<path d="M3794.53 1850.19L3799.53 1859.33C3805.13 1869.63 3813.59 1878.09 3823.89 1883.69L3832.97 1888.69L3823.89 1893.68C3813.59 1899.29 3805.13 1907.75 3799.53 1918.05L3794.53 1927.12L3789.66 1918.11C3784.05 1907.81 3775.59 1899.35 3765.29 1893.74L3756.16 1888.75L3765.29 1883.75C3775.59 1878.15 3784.05 1869.69 3789.66 1859.39L3794.53 1850.19Z" fill="#455A64"/>
<path d="M708.422 2192.7L713.356 2201.84C718.963 2212.14 727.424 2220.6 737.721 2226.2L746.858 2231.14L737.721 2236.13C727.424 2241.74 718.963 2250.2 713.356 2260.5L708.422 2269.63L703.427 2260.5C697.82 2250.2 689.36 2241.74 679.063 2236.13L669.926 2231.14L679.063 2226.2C689.36 2220.6 697.82 2212.14 703.427 2201.84L708.422 2192.7Z" fill="#455A64"/>
<path d="M3735.33 345.542C3701.34 325.807 3657.42 343.289 3626.84 368.08C3596.26 392.871 3570.56 425.215 3534.25 440.382C3511.11 450.067 3484.67 452.565 3464.21 466.757C3430.83 490.269 3424.98 537.659 3430.76 578.044C3436.55 618.428 3450.68 658.569 3445.75 699.076C3442.03 728.74 3428.15 758.465 3435.7 787.459C3446.24 828.027 3492.9 847.336 3515.62 882.604C3531.94 907.883 3536.39 941.993 3560.75 959.719C3588.95 980.307 3628.18 968.307 3662.96 971.475C3705.6 975.312 3742.45 1002.78 3783.2 1016.61C3815.95 1027.28 3850.91 1029.19 3884.63 1022.16C3918.34 1015.13 3949.63 999.398 3975.38 976.53C4001.27 952.957 4020.27 922.867 4045.73 898.868C4067.48 878.34 4093.85 862.32 4111.7 838.26C4129.55 814.2 4136.67 786.18 4144.05 758.161C4154.83 717.228 4165.67 674.65 4157.81 633.047C4145.2 566.653 4088.62 518.35 4059.13 457.56C4047.62 433.865 4039.22 406.759 4017.9 391.287C3995.3 374.841 3964.72 376.242 3938.28 367.288C3900.34 354.496 3871.65 320.629 3832.85 310.701C3814.97 306.45 3796.24 307.486 3778.93 313.682C3761.63 319.878 3746.5 330.968 3735.39 345.603" fill="#1C2024"/>
<g opacity="0.2">
<path d="M3735.33 345.542C3701.34 325.807 3657.42 343.289 3626.84 368.08C3596.26 392.871 3570.56 425.215 3534.25 440.382C3511.11 450.067 3484.67 452.565 3464.21 466.757C3430.83 490.269 3424.98 537.659 3430.76 578.044C3436.55 618.428 3450.68 658.569 3445.75 699.076C3442.03 728.74 3428.15 758.465 3435.7 787.459C3446.24 828.027 3492.9 847.336 3515.62 882.604C3531.94 907.883 3536.39 941.993 3560.75 959.719C3588.95 980.307 3628.18 968.307 3662.96 971.475C3705.6 975.312 3742.45 1002.78 3783.2 1016.61C3815.95 1027.28 3850.91 1029.19 3884.63 1022.16C3918.34 1015.13 3949.63 999.398 3975.38 976.53C4001.27 952.957 4020.27 922.867 4045.73 898.868C4067.48 878.34 4093.85 862.32 4111.7 838.26C4129.55 814.2 4136.67 786.18 4144.05 758.161C4154.83 717.228 4165.67 674.65 4157.81 633.047C4145.2 566.653 4088.62 518.35 4059.13 457.56C4047.62 433.865 4039.22 406.759 4017.9 391.287C3995.3 374.841 3964.72 376.242 3938.28 367.288C3900.34 354.496 3871.65 320.629 3832.85 310.701C3814.97 306.45 3796.24 307.486 3778.93 313.682C3761.63 319.878 3746.5 330.968 3735.39 345.603" fill="white"/>
</g>
<path d="M3801.22 954.195C3960.75 948.541 4085.48 814.636 4079.83 655.11C4074.18 495.585 3940.27 370.848 3780.75 376.502C3621.22 382.156 3496.48 516.061 3502.14 675.587C3507.79 835.112 3641.7 959.849 3801.22 954.195Z" fill="#1C2024"/>
<path opacity="0.4" d="M3705.78 713.086C3700.04 720.432 3692.24 725.908 3683.38 728.822C3674.52 731.736 3664.99 731.956 3656.01 729.455C3647.02 726.954 3638.98 721.844 3632.9 714.772C3626.82 707.7 3622.97 698.983 3621.85 689.724C3620.72 680.466 3622.37 671.081 3626.58 662.758C3630.79 654.435 3637.37 647.548 3645.5 642.967C3653.62 638.387 3662.92 636.319 3672.22 637.025C3681.52 637.732 3690.4 641.18 3697.74 646.936C3707.57 654.646 3713.94 665.943 3715.45 678.347C3716.96 690.751 3713.48 703.245 3705.78 713.086Z" fill="black"/>
<path opacity="0.4" d="M3737.09 564.765C3733.75 569.031 3729.22 572.211 3724.07 573.902C3718.92 575.593 3713.38 575.719 3708.16 574.265C3702.94 572.81 3698.26 569.84 3694.73 565.73C3691.2 561.62 3688.96 556.555 3688.31 551.175C3687.65 545.794 3688.6 540.34 3691.05 535.502C3693.49 530.664 3697.31 526.659 3702.03 523.993C3706.75 521.327 3712.16 520.121 3717.56 520.526C3722.97 520.931 3728.13 522.929 3732.4 526.268C3735.24 528.487 3737.61 531.243 3739.38 534.379C3741.15 537.515 3742.29 540.969 3742.72 544.545C3743.16 548.12 3742.89 551.746 3741.92 555.215C3740.95 558.685 3739.31 561.93 3737.09 564.765Z" fill="black"/>
<path d="M1442.62 2636.86C1514.88 2633.74 1570.93 2572.64 1567.81 2500.38C1564.7 2428.12 1503.59 2372.06 1431.33 2375.18C1359.07 2378.3 1303.02 2439.4 1306.13 2511.66C1309.25 2583.93 1370.36 2639.98 1442.62 2636.86Z" fill="#1C2024"/>
<path opacity="0.2" d="M1381.74 2470.22C1377.54 2470.69 1373.29 2469.9 1369.53 2467.95C1365.78 2466 1362.68 2462.99 1360.64 2459.28C1358.6 2455.57 1357.71 2451.35 1358.07 2447.13C1358.44 2442.92 1360.04 2438.9 1362.69 2435.6C1365.33 2432.3 1368.9 2429.86 1372.93 2428.58C1376.96 2427.31 1381.29 2427.26 1385.35 2428.44C1389.41 2429.62 1393.03 2431.98 1395.75 2435.22C1398.47 2438.46 1400.17 2442.44 1400.63 2446.64C1401.24 2452.27 1399.6 2457.92 1396.06 2462.33C1392.52 2466.75 1387.37 2469.59 1381.74 2470.22Z" fill="black"/>
<path opacity="0.2" d="M1425.48 2421.24C1423.1 2421.45 1420.71 2420.95 1418.61 2419.82C1416.52 2418.68 1414.8 2416.95 1413.67 2414.84C1412.55 2412.73 1412.07 2410.34 1412.29 2407.97C1412.52 2405.59 1413.43 2403.33 1414.93 2401.47C1416.43 2399.61 1418.44 2398.23 1420.71 2397.5C1422.98 2396.78 1425.42 2396.73 1427.72 2397.38C1430.02 2398.03 1432.08 2399.33 1433.64 2401.14C1435.2 2402.94 1436.2 2405.17 1436.5 2407.54C1436.72 2409.17 1436.59 2410.82 1436.15 2412.4C1435.71 2413.99 1434.94 2415.46 1433.91 2416.74C1432.88 2418.02 1431.61 2419.08 1430.16 2419.85C1428.71 2420.63 1427.12 2421.1 1425.48 2421.24Z" fill="black"/>
<path opacity="0.2" d="M1465.56 2432.69C1465.46 2431.8 1465.62 2430.89 1466.04 2430.09C1466.45 2429.28 1467.09 2428.62 1467.88 2428.18C1468.67 2427.74 1469.57 2427.55 1470.48 2427.62C1471.38 2427.7 1472.23 2428.04 1472.94 2428.6C1473.65 2429.16 1474.17 2429.92 1474.45 2430.78C1474.72 2431.64 1474.74 2432.57 1474.49 2433.43C1474.24 2434.3 1473.74 2435.08 1473.05 2435.66C1472.36 2436.25 1471.51 2436.61 1470.61 2436.72C1470.02 2436.79 1469.41 2436.75 1468.83 2436.59C1468.25 2436.42 1467.71 2436.15 1467.24 2435.77C1466.77 2435.4 1466.38 2434.93 1466.09 2434.4C1465.8 2433.87 1465.62 2433.29 1465.56 2432.69Z" fill="black"/>
<path d="M416.165 1416.38C556.347 1416.38 669.986 1302.74 669.986 1162.56C669.986 1022.37 556.347 908.735 416.165 908.735C275.984 908.735 162.345 1022.37 162.345 1162.56C162.345 1302.74 275.984 1416.38 416.165 1416.38Z" fill="#1C2024"/>
<path opacity="0.2" d="M329.731 1251.49C329.731 1259.68 327.3 1267.69 322.746 1274.51C318.192 1281.32 311.72 1286.63 304.148 1289.76C296.576 1292.89 288.244 1293.71 280.208 1292.11C272.171 1290.5 264.791 1286.55 259.001 1280.75C253.211 1274.96 249.27 1267.57 247.679 1259.53C246.088 1251.49 246.917 1243.16 250.061 1235.59C253.205 1228.03 258.524 1221.56 265.343 1217.02C272.163 1212.47 280.177 1210.06 288.372 1210.07C293.808 1210.07 299.191 1211.14 304.213 1213.22C309.235 1215.3 313.797 1218.36 317.639 1222.2C321.48 1226.05 324.525 1230.62 326.6 1235.64C328.675 1240.67 329.739 1246.05 329.731 1251.49Z" fill="white"/>
<path opacity="0.2" d="M271.012 1131.98C271.072 1136.81 269.695 1141.55 267.055 1145.6C264.414 1149.64 260.631 1152.81 256.184 1154.7C251.738 1156.6 246.829 1157.12 242.083 1156.22C237.337 1155.31 232.967 1153.01 229.529 1149.62C226.091 1146.22 223.74 1141.88 222.775 1137.15C221.81 1132.41 222.274 1127.5 224.109 1123.03C225.944 1118.56 229.066 1114.74 233.08 1112.05C237.093 1109.36 241.815 1107.92 246.647 1107.92C253.057 1107.92 259.208 1110.44 263.769 1114.95C268.33 1119.45 270.932 1125.57 271.012 1131.98Z" fill="white"/>
<path d="M170.263 1224.32C171.36 1228.71 -47.0101 1438.24 9.27263 1482.83C65.5554 1527.42 302.382 1412.96 504.244 1249.96C706.107 1086.96 890.183 888.695 839.687 836.554C789.191 784.413 537.015 939.313 537.015 939.313L567.471 958.5C567.471 958.5 719.751 860.675 768.481 898.624C817.21 936.572 679.245 1084.95 485.118 1226.63C290.991 1368.32 102.894 1467.79 73.7785 1428.98C44.6625 1390.18 182.019 1260.68 182.019 1260.68L170.263 1224.32Z" fill="#1C2024"/>
<path opacity="0.4" d="M170.263 1224.32C171.36 1228.71 -47.0101 1438.24 9.27263 1482.83C65.5554 1527.42 302.382 1412.96 504.244 1249.96C706.107 1086.96 890.183 888.695 839.687 836.554C789.191 784.413 537.015 939.313 537.015 939.313L567.471 958.5C567.471 958.5 719.751 860.675 768.481 898.624C817.21 936.572 679.245 1084.95 485.118 1226.63C290.991 1368.32 102.894 1467.79 73.7785 1428.98C44.6625 1390.18 182.019 1260.68 182.019 1260.68L170.263 1224.32Z" fill="black"/>
<path d="M2893.55 969.115C2926.94 934.201 2925.7 878.832 2890.79 845.445C2855.87 812.057 2800.5 813.295 2767.12 848.208C2733.73 883.122 2734.97 938.491 2769.88 971.878C2804.79 1005.27 2860.16 1004.03 2893.55 969.115Z" fill="#455A64"/>
<path d="M2858.86 875.233C2858.93 872.418 2859.84 869.688 2861.46 867.386C2863.09 865.085 2865.35 863.316 2867.98 862.303C2870.61 861.29 2873.48 861.078 2876.23 861.693C2878.97 862.309 2881.48 863.725 2883.42 865.762C2885.37 867.8 2886.66 870.368 2887.15 873.141C2887.64 875.915 2887.29 878.771 2886.15 881.348C2885.02 883.925 2883.15 886.108 2880.77 887.622C2878.4 889.135 2875.63 889.912 2872.81 889.852C2870.93 889.813 2869.08 889.403 2867.36 888.646C2865.65 887.889 2864.09 886.8 2862.8 885.442C2861.5 884.083 2860.49 882.482 2859.81 880.73C2859.14 878.978 2858.81 877.11 2858.86 875.233Z" fill="#263238"/>
<path d="M2887.37 908.553C2887.39 906.897 2887.91 905.287 2888.85 903.926C2889.79 902.565 2891.12 901.515 2892.66 900.91C2894.2 900.305 2895.89 900.172 2897.51 900.528C2899.12 900.884 2900.6 901.713 2901.74 902.909C2902.89 904.105 2903.65 905.614 2903.93 907.245C2904.22 908.876 2904.01 910.555 2903.34 912.068C2902.67 913.58 2901.56 914.859 2900.16 915.741C2898.76 916.622 2897.12 917.067 2895.47 917.019C2893.28 916.956 2891.2 916.032 2889.68 914.447C2888.17 912.863 2887.34 910.745 2887.37 908.553Z" fill="#263238"/>
<path d="M2876.28 934.014C2876.99 934.155 2877.62 934.536 2878.07 935.091C2878.53 935.646 2878.78 936.342 2878.78 937.059C2878.78 937.777 2878.53 938.472 2878.07 939.028C2877.62 939.583 2876.99 939.963 2876.28 940.105C2875.47 940.073 2874.7 939.724 2874.14 939.131C2873.58 938.539 2873.28 937.751 2873.3 936.937C2873.36 936.171 2873.69 935.452 2874.24 934.914C2874.79 934.376 2875.51 934.056 2876.28 934.014Z" fill="#263238"/>
</svg>
