<svg width="17950" height="17365" viewBox="0 0 17950 17365" fill="none" xmlns="http://www.w3.org/2000/svg">
<path d="M17672.1 7837.37C17672 7907.21 17658 7976.33 17631 8040.71C17603.9 8105.09 17564.3 8163.45 17514.5 8212.39C17464.7 8261.33 17405.6 8299.87 17340.8 8325.78C17275.9 8351.69 17206.5 8364.44 17136.7 8363.3H17040.7V9089.8C17036.8 9226.62 16979.7 9356.53 16881.6 9451.93C16783.4 9547.32 16651.9 9600.69 16515 9600.69C16378.1 9600.69 16246.7 9547.32 16148.5 9451.93C16050.3 9356.53 15993.2 9226.62 15989.3 9089.8V8363.3H12976.2C12857.2 8367.7 12741 8326.61 12651.2 8248.39C12595.8 8206.79 12549.4 8154.35 12514.9 8094.26C12480.3 8034.18 12458.4 7967.7 12450.3 7898.87C12442.3 7830.04 12448.3 7760.29 12468 7693.85C12487.8 7627.42 12520.8 7565.7 12565.1 7512.43L16102.1 3114.72C16112 3114.72 16112 3105.25 16121.4 3095.78C16133 3084.65 16142.8 3071.72 16150.3 3057.48C16168.5 3052.27 16185 3042.32 16198 3028.64C16207.5 3019.17 16226.4 3009.7 16236.3 2999.81C16253.1 2987.87 16273 2981.27 16293.6 2980.87C16303.1 2961.93 16312.5 2952.03 16331.9 2952.03C16341.4 2942.56 16360.3 2942.56 16389.1 2933.1C16402.6 2934.5 16416.2 2931.15 16427.4 2923.63H16591.4C16606.1 2931.32 16622.7 2934.6 16639.2 2933.1C16649.1 2942.56 16677.5 2942.56 16696.9 2952.03C16706.3 2952.03 16725.7 2961.93 16735.2 2961.93C16754.1 2980.87 16773 2990.34 16782.5 2999.81C16801.9 3009.7 16811.3 3019.17 16830.7 3028.64C16833.2 3028.64 16835.6 3029.64 16837.4 3031.42C16839.2 3033.19 16840.2 3035.6 16840.2 3038.11C16849.7 3038.11 16869 3047.58 16869 3057.48L16906.9 3095.78C16916.8 3105.25 16926.3 3124.19 16935.7 3133.66C16950.2 3148.14 16963 3164.16 16974 3181.43C16976.3 3195.93 16983.1 3209.34 16993.4 3219.73C17001.1 3238.47 17007.5 3257.74 17012.3 3277.41C17012.3 3286.87 17021.8 3305.81 17021.8 3315.28C17030.3 3333.24 17033.6 3353.22 17031.3 3372.95C17031.3 3391.89 17040.7 3401.36 17040.7 3420.73V7311.43H17136.7C17277.3 7310.74 17412.4 7365.63 17512.7 7464.14C17613 7562.65 17670.3 7696.8 17672.1 7837.37ZM15988.9 4950.32L14086.6 7311.43H15988.9V4950.32Z" fill="#E9E8E6"/>
<path d="M5954.81 6056.85L6052.07 5511.55C6065.35 5436.68 6048.38 5359.6 6004.89 5297.23C5961.4 5234.85 5894.94 5192.28 5820.09 5178.86C5745.16 5165.59 5668.03 5182.62 5605.64 5226.2C5543.26 5269.78 5500.73 5336.35 5487.4 5411.27L5390.14 5956.14C5376.85 6031.06 5393.81 6108.2 5437.29 6170.64C5480.77 6233.08 5547.24 6275.74 5622.12 6289.26C5697.05 6302.53 5774.18 6285.5 5836.57 6241.92C5898.95 6198.34 5941.48 6131.78 5954.81 6056.85Z" fill="#BFDBFE"/>
<path d="M12558.7 6183.39L12479.5 5635.07C12474.1 5597.79 12461.4 5561.93 12442.2 5529.55C12422.9 5497.17 12397.5 5468.89 12367.3 5446.35C12337.2 5423.81 12302.8 5407.43 12266.3 5398.16C12229.8 5388.89 12191.8 5386.91 12154.5 5392.33C12117.3 5397.71 12081.4 5410.38 12049 5429.63C12016.6 5448.87 11988.4 5474.31 11965.8 5504.49C11943.3 5534.67 11926.9 5569 11917.6 5605.51C11908.4 5642.02 11906.4 5680 11911.8 5717.28L11990.6 6265.16C12001.5 6340.52 12042 6408.45 12103 6454.04C12164 6499.63 12240.6 6519.16 12315.9 6508.33C12391.2 6497.36 12459 6456.99 12504.5 6396.06C12550 6335.14 12569.5 6258.65 12558.7 6183.39Z" fill="#BFDBFE"/>
<path d="M6897.35 4053.4L7114.7 3850.25C7170.29 3798.34 7203.02 3726.49 7205.68 3650.48C7208.34 3574.46 7180.73 3500.5 7128.9 3444.83C7076.92 3389.21 7005 3356.47 6928.91 3353.81C6852.83 3351.15 6778.79 3378.77 6723.05 3430.62L6505.7 3633.77C6478.15 3659.47 6455.94 3690.35 6440.34 3724.64C6424.73 3758.94 6416.04 3795.97 6414.76 3833.63C6413.48 3871.28 6419.64 3908.82 6432.88 3944.09C6446.12 3979.36 6466.19 4011.68 6491.93 4039.19C6543.84 4094.79 6615.69 4127.51 6691.7 4130.17C6767.72 4132.84 6841.68 4105.22 6897.35 4053.4Z" fill="#BFDBFE"/>
<path d="M7201.64 8575.05L6998.93 8359.86C6973.22 8332.27 6942.32 8310.01 6908.01 8294.37C6873.69 8278.72 6836.63 8269.98 6798.94 8268.67C6761.25 8267.35 6723.67 8273.47 6688.35 8286.68C6653.02 8299.89 6620.65 8319.93 6593.07 8345.66C6537.54 8397.62 6504.89 8469.51 6502.31 8545.52C6499.73 8621.53 6527.42 8695.47 6579.3 8751.08L6782.01 8968.86C6834.05 9024.42 6906.01 9057.07 6982.09 9059.66C7058.18 9062.24 7132.18 9034.54 7187.87 8982.63C7215.68 8956.87 7238.12 8925.85 7253.89 8891.36C7269.65 8856.88 7278.43 8819.61 7279.71 8781.71C7280.99 8743.82 7274.75 8706.04 7261.35 8670.57C7247.95 8635.1 7227.65 8602.64 7201.64 8575.05Z" fill="#BFDBFE"/>
<path d="M12136.8 4616.19L11744.9 4054.1C11715.6 4011.99 11657.6 4001.64 11615.5 4031L11297.4 4252.76C11255.3 4282.12 11244.9 4340.07 11274.3 4382.18L11666.1 4944.27C11695.5 4986.39 11753.4 4996.73 11795.6 4967.37L12113.7 4745.62C12155.8 4716.26 12166.1 4658.31 12136.8 4616.19Z" fill="#BFDBFE"/>
<path d="M10107.2 9590.34L10386.9 9489.2C10422.4 9476.41 10454.9 9456.76 10482.7 9431.38C10510.5 9406.01 10533.1 9375.4 10549.1 9341.31C10565.1 9307.21 10574.2 9270.3 10575.9 9232.69C10577.6 9195.07 10571.9 9157.49 10559.1 9122.08C10546.3 9086.66 10526.7 9054.11 10501.3 9026.29C10475.9 8998.47 10445.3 8975.92 10411.2 8959.94C10377.1 8943.95 10340.2 8934.84 10302.6 8933.12C10265 8931.4 10227.4 8937.11 10192 8949.92L9912.23 9051.06C9840.74 9077.09 9782.48 9130.38 9750.21 9199.27C9717.95 9268.17 9714.3 9347.04 9740.07 9418.61C9766.18 9489.92 9819.44 9548 9888.22 9580.17C9957.01 9612.34 10035.7 9616 10107.2 9590.34Z" fill="#BFDBFE"/>
<path d="M9553.63 9503.71C11354.9 9190.31 12561.1 7476 12247.7 5674.69C11934.3 3873.39 10220 2667.21 8418.69 2980.62C6617.39 3294.02 5411.21 5008.33 5724.62 6809.64C6038.02 8610.94 7752.33 9817.12 9553.63 9503.71Z" fill="#BFDBFE"/>
<path opacity="0.2" d="M8672.28 3737.06C8770.21 3862.65 8825.14 4016.41 8828.94 4175.63C8834.21 4338.58 8794.93 4499.89 8715.32 4642.17C8635.01 4790.41 8500.8 4902.12 8340.45 4954.2C8187.05 5002.04 8021.71 4994.26 7873.48 4932.25C8019.96 4936.65 8165.57 4908.12 8299.56 4848.75C8361.57 4820.24 8418.1 4781.05 8466.55 4732.98C8515.52 4685.83 8556.9 4631.39 8589.21 4571.58C8605.57 4541.46 8621.92 4509.61 8636.55 4477.76C8651.19 4445.91 8663.67 4412.77 8672.71 4379.2C8694.6 4312.28 8709.04 4243.14 8715.75 4173.04C8729.68 4026.27 8714.91 3878.19 8672.28 3737.06Z" fill="black"/>
<path opacity="0.2" d="M7804.18 4573.73C7728.84 4491.76 7684.8 4385.85 7679.8 4274.61C7672.48 4160.21 7698.49 4046.14 7754.69 3946.23C7782.82 3893.89 7821.1 3847.68 7867.28 3810.29C7913.47 3772.9 7966.63 3745.08 8023.68 3728.45C8131.74 3696.99 8247.76 3708.24 8347.76 3759.87C8249.26 3765.26 8152.83 3790.28 8064.14 3833.47C7986.49 3875.25 7922.75 3938.83 7880.79 4016.38C7787.16 4186.28 7759.86 4384.87 7804.18 4573.73Z" fill="black"/>
<path opacity="0.2" d="M9000.66 8225.58C9041.88 8293.53 9057.16 8374.07 9043.7 8452.39C9030.89 8533.33 8993.64 8608.41 8936.96 8667.59C8908.18 8698.9 8873.36 8724.07 8834.61 8741.6C8795.86 8759.12 8753.96 8768.65 8711.44 8769.59C8631.65 8771.52 8553.95 8743.93 8493.23 8692.12C8562.54 8702.97 8633.23 8701.37 8701.97 8687.39C8762.76 8673.2 8817.83 8640.94 8859.93 8594.85C8904.93 8547.86 8940.18 8492.42 8963.65 8431.74C8988.01 8365.73 9000.54 8295.94 9000.66 8225.58Z" fill="black"/>
<path opacity="0.2" d="M8549.62 8577.64C8515.13 8532.82 8499.67 8476.24 8506.58 8420.11C8513.76 8361.63 8539.56 8307 8580.17 8264.31C8601.08 8241.74 8626.46 8223.78 8654.69 8211.55C8682.92 8199.32 8713.39 8193.11 8744.15 8193.3C8772.38 8193.57 8800.25 8199.59 8826.07 8210.98C8851.9 8222.38 8875.13 8238.91 8894.36 8259.58C8846.88 8257.78 8799.42 8263.3 8753.62 8275.93C8716.73 8287.61 8683.51 8308.67 8657.21 8337.05C8595.88 8403.24 8558.07 8487.8 8549.62 8577.64Z" fill="black"/>
<path opacity="0.2" d="M6968.8 7360.93C7008.35 7366.41 7046.38 7379.88 7080.56 7400.53C7114.75 7421.17 7144.37 7448.55 7167.64 7481.01C7193.03 7516.1 7211.14 7555.93 7220.9 7598.14C7230.65 7640.34 7231.86 7684.08 7224.45 7726.76C7216.79 7770.53 7199.14 7811.94 7172.86 7847.77C7146.59 7883.6 7112.4 7912.88 7072.95 7933.34C7003.63 7971.64 6923.22 7984.86 6845.28 7970.79C6902.91 7932.95 6956.81 7889.72 7006.24 7841.67C7045.58 7804.18 7072.09 7755.23 7081.99 7701.8C7091.39 7646.31 7086.81 7589.36 7068.65 7536.1C7045.29 7472.58 7011.54 7413.39 6968.8 7360.93Z" fill="black"/>
<path opacity="0.2" d="M6816.01 7858.89C6786.82 7859.22 6757.95 7852.79 6731.67 7840.1C6705.38 7827.4 6682.4 7808.79 6664.51 7785.72C6644.69 7760.71 6630.38 7731.79 6622.51 7700.86C6614.65 7669.93 6613.42 7637.69 6618.89 7606.25C6624.56 7573.6 6637.99 7542.79 6658.07 7516.42C6678.15 7490.05 6704.27 7468.9 6734.24 7454.75C6759.77 7442.07 6787.56 7434.59 6816.01 7432.75C6844.45 7430.9 6872.98 7434.72 6899.94 7443.99C6864.67 7475.86 6831.59 7510.09 6800.95 7546.43C6780.09 7570.94 6766.39 7600.72 6761.35 7632.5C6755.65 7665.78 6756.53 7699.85 6763.93 7732.78C6775.11 7777.11 6792.65 7819.59 6816.01 7858.89Z" fill="black"/>
<path opacity="0.2" d="M10704.6 4027.14C10730.5 4057.62 10750 4093.07 10761.9 4131.32C10773.7 4169.57 10777.6 4209.83 10773.4 4249.65C10769.1 4292.71 10756.3 4334.47 10735.6 4372.47C10714.9 4410.47 10686.8 4443.93 10652.9 4470.87C10618.1 4498.39 10577.4 4517.55 10533.9 4526.87C10490.5 4536.2 10445.5 4535.45 10402.4 4524.67C10325.2 4507.15 10256.3 4463.53 10207.5 4401.15C10275.6 4411.12 10344.4 4414.58 10413.2 4411.48C10467.4 4409.88 10519.7 4391.03 10562.5 4357.68C10606.7 4322.54 10641.2 4276.79 10662.8 4224.69C10687.7 4161.63 10701.8 4094.86 10704.6 4027.14Z" fill="black"/>
<path opacity="0.2" d="M10259.5 4298.29C10237.5 4279.11 10220.3 4255.12 10209.1 4228.16C10197.9 4201.21 10193 4172.04 10195 4142.92C10196.9 4110.98 10205.5 4079.81 10220.4 4051.47C10235.2 4023.12 10255.9 3998.26 10281.1 3978.51C10306.9 3957.84 10337.3 3943.69 10369.7 3937.25C10402.2 3930.81 10435.7 3932.27 10467.4 3941.49C10523 3956.9 10570.2 3993.74 10598.7 4043.93C10551.2 4044.25 10503.7 4047.85 10456.7 4054.69C10425.2 4058.98 10395.5 4071.61 10370.6 4091.27C10344.1 4112.26 10322 4138.3 10305.6 4167.88C10284.2 4208.97 10268.7 4252.87 10259.5 4298.29Z" fill="black"/>
<path d="M9892.86 6868.99C10035.1 6842.21 10166.2 6773.85 10269.6 6672.56C10372.9 6571.27 10443.9 6441.59 10473.6 6299.93C10503.3 6158.28 10490.3 6011.01 10436.2 5876.75C10382.2 5742.49 10289.5 5627.27 10170 5545.68C10050.4 5464.08 9909.39 5419.77 9764.67 5418.34C9619.95 5416.92 9478.06 5458.45 9356.94 5537.68C9235.82 5616.91 9140.92 5730.28 9084.25 5863.45C9027.57 5996.62 9011.66 6143.61 9038.54 6285.82C9074.55 6476.41 9184.77 6644.91 9344.97 6754.26C9505.17 6863.62 9702.24 6904.89 9892.86 6868.99Z" fill="#BFDBFE"/>
<path opacity="0.1" d="M9892.86 6868.99C10035.1 6842.21 10166.2 6773.85 10269.6 6672.56C10372.9 6571.27 10443.9 6441.59 10473.6 6299.93C10503.3 6158.28 10490.3 6011.01 10436.2 5876.75C10382.2 5742.49 10289.5 5627.27 10170 5545.68C10050.4 5464.08 9909.39 5419.77 9764.67 5418.34C9619.95 5416.92 9478.06 5458.45 9356.94 5537.68C9235.82 5616.91 9140.92 5730.28 9084.25 5863.45C9027.57 5996.62 9011.66 6143.61 9038.54 6285.82C9074.55 6476.41 9184.77 6644.91 9344.97 6754.26C9505.17 6863.62 9702.24 6904.89 9892.86 6868.99Z" fill="black"/>
<path opacity="0.2" d="M9839.06 5669.5C9941.58 5649.76 10047.3 5654.64 10147.6 5683.74C10247.8 5712.85 10339.8 5765.35 10415.8 5836.92C10363.2 5725.52 10283.4 5629.19 10183.8 5556.84C10084.1 5484.5 9967.75 5438.49 9845.55 5423.08C9723.35 5407.67 9599.24 5423.36 9484.72 5468.69C9370.2 5514.02 9268.98 5587.53 9190.43 5682.4C9111.89 5777.27 9058.56 5890.43 9035.4 6011.4C9012.24 6132.37 9019.99 6257.22 9057.94 6374.4C9095.88 6491.57 9162.79 6597.27 9252.47 6681.7C9342.14 6766.13 9451.68 6826.56 9570.93 6857.37C9467.36 6780.5 9388.35 6675.19 9343.5 6554.26C9298.66 6433.33 9289.9 6301.97 9318.3 6176.15C9346.7 6050.34 9411.03 5935.48 9503.48 5845.54C9595.93 5755.59 9712.51 5694.44 9839.06 5669.5Z" fill="black"/>
<path opacity="0.2" d="M10655.5 5669.5C10769.7 5827.19 10832.5 6016.25 10835.4 6210.93C10839.7 6409.53 10790.8 6605.66 10693.8 6779.04C10596.5 6958.89 10434.5 7095.05 10240.6 7159.94C10054.1 7219.81 9852.8 7214.81 9669.48 7145.73C9851.03 7157.18 10032.7 7126.09 10200.2 7054.92C10239 7036.26 10276.8 7015.42 10313.3 6992.52C10348.6 6968.39 10381.5 6941.17 10411.9 6911.17C10474.2 6852.27 10526.8 6783.85 10567.7 6708.46C10588.4 6670.16 10608.6 6630.56 10626.7 6590.53C10644.7 6550.51 10660.2 6509.19 10669.7 6467.01C10696.6 6383.16 10713.9 6296.53 10721.4 6208.78C10736.6 6026.41 10714.2 5842.84 10655.5 5669.5Z" fill="black"/>
<path d="M11472 5440.97C11522.4 5421.09 11565.8 5386.68 11596.7 5342.09C11627.6 5297.5 11644.5 5244.75 11645.3 5190.52C11646.2 5136.3 11630.9 5083.05 11601.4 5037.53C11571.9 4992.01 11529.6 4956.26 11479.8 4934.84C11430 4913.41 11374.9 4907.26 11321.6 4917.17C11268.3 4927.09 11219.1 4952.61 11180.3 4990.51C11141.5 5028.41 11114.9 5076.98 11103.7 5130.05C11092.6 5183.13 11097.5 5238.31 11117.7 5288.61C11131 5321.89 11150.6 5352.23 11175.6 5377.91C11200.6 5403.58 11230.4 5424.08 11263.3 5438.23C11296.2 5452.38 11331.5 5459.91 11367.3 5460.38C11403.1 5460.85 11438.7 5454.25 11472 5440.97Z" fill="#BFDBFE"/>
<path opacity="0.1" d="M11472 5440.97C11522.4 5421.09 11565.8 5386.68 11596.7 5342.09C11627.6 5297.5 11644.5 5244.75 11645.3 5190.52C11646.2 5136.3 11630.9 5083.05 11601.4 5037.53C11571.9 4992.01 11529.6 4956.26 11479.8 4934.84C11430 4913.41 11374.9 4907.26 11321.6 4917.17C11268.3 4927.09 11219.1 4952.61 11180.3 4990.51C11141.5 5028.41 11114.9 5076.98 11103.7 5130.05C11092.6 5183.13 11097.5 5238.31 11117.7 5288.61C11131 5321.89 11150.6 5352.23 11175.6 5377.91C11200.6 5403.58 11230.4 5424.08 11263.3 5438.23C11296.2 5452.38 11331.5 5459.91 11367.3 5460.38C11403.1 5460.85 11438.7 5454.25 11472 5440.97Z" fill="black"/>
<path opacity="0.2" d="M11366.9 5005.84C11403 4991.25 11442.1 4985.48 11480.9 4988.99C11519.6 4992.51 11557 5005.22 11589.9 5026.07C11562.7 4989.27 11526.6 4959.92 11485.1 4940.72C11443.5 4921.53 11397.8 4913.11 11352.1 4916.25C11306.5 4919.38 11262.3 4933.97 11223.8 4958.67C11185.3 4983.37 11153.6 5017.37 11131.7 5057.55C11109.7 5097.73 11098.3 5142.78 11098.4 5188.55C11098.5 5234.32 11110.1 5279.33 11132.2 5319.43C11154.2 5359.52 11186 5393.41 11224.7 5417.96C11263.3 5442.51 11307.5 5456.94 11353.2 5459.9C11309.8 5439.12 11273.3 5406.18 11248.3 5365.08C11223.3 5323.98 11210.7 5276.49 11212.2 5228.39C11213.6 5180.29 11229 5133.65 11256.5 5094.14C11284 5054.63 11322.4 5023.96 11366.9 5005.84Z" fill="black"/>
<path opacity="0.2" d="M11666.1 4948.17C11722.2 4995.88 11761.3 5060.52 11777.5 5132.38C11794.7 5205.91 11791.3 5282.75 11767.6 5354.46C11744.3 5429.33 11692.8 5492.17 11623.9 5529.63C11558 5564.87 11481.6 5575.26 11408.7 5558.89C11474.9 5546.82 11537.8 5520.54 11592.9 5481.85C11642.6 5444.02 11679.3 5391.68 11697.9 5332.08C11718.5 5269.2 11726.3 5202.84 11720.8 5136.91C11715.3 5070.97 11696.7 5006.8 11666.1 4948.17Z" fill="black"/>
<path d="M10944.7 7968.64C11009.8 7928.36 11061.6 7869.69 11093.4 7800.04C11125.2 7730.38 11135.6 7652.87 11123.4 7577.28C11111.1 7501.7 11076.8 7431.43 11024.6 7375.37C10972.5 7319.31 10904.9 7279.96 10830.4 7262.29C10755.9 7244.63 10677.8 7249.44 10606 7276.12C10534.2 7302.8 10472 7350.16 10427.1 7412.2C10382.3 7474.25 10356.8 7548.2 10353.9 7624.72C10351.1 7701.23 10370.9 7776.88 10411 7842.1C10437.7 7885.5 10472.7 7923.21 10514 7953.07C10555.3 7982.92 10602.1 8004.34 10651.6 8016.09C10701.2 8027.85 10752.6 8029.71 10802.9 8021.56C10853.2 8013.42 10901.4 7995.43 10944.7 7968.64Z" fill="#BFDBFE"/>
<path opacity="0.1" d="M10944.7 7968.64C11009.8 7928.36 11061.6 7869.69 11093.4 7800.04C11125.2 7730.38 11135.6 7652.87 11123.4 7577.28C11111.1 7501.7 11076.8 7431.43 11024.6 7375.37C10972.5 7319.31 10904.9 7279.96 10830.4 7262.29C10755.9 7244.63 10677.8 7249.44 10606 7276.12C10534.2 7302.8 10472 7350.16 10427.1 7412.2C10382.3 7474.25 10356.8 7548.2 10353.9 7624.72C10351.1 7701.23 10370.9 7776.88 10411 7842.1C10437.7 7885.5 10472.7 7923.21 10514 7953.07C10555.3 7982.92 10602.1 8004.34 10651.6 8016.09C10701.2 8027.85 10752.6 8029.71 10802.9 8021.56C10853.2 8013.42 10901.4 7995.43 10944.7 7968.64Z" fill="black"/>
<path opacity="0.2" d="M10690.4 7385.03C10737.4 7355.85 10790.7 7338.26 10845.8 7333.7C10900.9 7329.13 10956.4 7337.73 11007.6 7358.78C10960.5 7313.86 10902.9 7281.52 10840 7264.74C10777.2 7247.96 10711.1 7247.29 10647.9 7262.78C10584.7 7278.27 10526.5 7309.42 10478.5 7353.37C10430.5 7397.31 10394.4 7452.63 10373.4 7514.22C10352.5 7575.81 10347.4 7641.69 10358.6 7705.77C10369.8 7769.86 10397 7830.08 10437.6 7880.89C10478.2 7931.71 10531 7971.46 10591.1 7996.5C10651.1 8021.54 10716.5 8031.05 10781.2 8024.16C10715.4 8005.63 10656.4 7968.43 10611.3 7917.04C10566.2 7865.66 10537 7802.31 10527.2 7734.66C10517.4 7667.02 10527.5 7597.98 10556.1 7535.93C10584.8 7473.87 10630.8 7421.45 10688.6 7385.03H10690.4Z" fill="black"/>
<path opacity="0.2" d="M11094.5 7230.95C11180.3 7287.98 11246.6 7369.8 11284.7 7465.51C11324.1 7562.69 11337.1 7668.58 11322.2 7772.38C11307.9 7879.33 11254 7977.03 11171.1 8046.11C11090.3 8110.94 10990.2 8146.99 10886.6 8148.54C10979.1 8120.79 11063.7 8071.36 11133.2 8004.36C11197.8 7938.63 11238.9 7853.48 11250.3 7762.05C11264.4 7669.13 11258.1 7574.24 11231.8 7484.02C11204.4 7390.93 11157.6 7304.69 11094.5 7230.95Z" fill="black"/>
<path d="M7346.25 5890.29C7354.86 6188.98 7088.02 6439.47 6751.02 6449.8C6414.03 6460.13 6132.98 6225.56 6123.95 5927.74C6114.91 5629.91 6382.18 5378.56 6718.74 5368.23C7055.31 5357.9 7338.07 5591.17 7346.25 5890.29Z" fill="#BFDBFE"/>
<path opacity="0.1" d="M7346.25 5890.29C7354.86 6188.98 7088.02 6439.47 6751.02 6449.8C6414.03 6460.13 6132.98 6225.56 6123.95 5927.74C6114.91 5629.91 6382.18 5378.56 6718.74 5368.23C7055.31 5357.9 7338.07 5591.17 7346.25 5890.29Z" fill="black"/>
<path opacity="0.2" d="M6359.8 6047.81C6363.56 6127.66 6387.48 6205.25 6429.32 6273.36C6471.16 6341.47 6529.57 6397.87 6599.09 6437.32C6333.11 6385.67 6130.83 6179.08 6123.52 5926.44C6114.48 5627.76 6381.75 5377.27 6718.74 5366.94C6829.6 5361.24 6939.96 5385.34 7038.36 5436.74C7136.75 5488.13 7219.58 5564.93 7278.25 5659.17C7169.35 5576.65 7035.17 5534.51 6898.64 5539.96C6593.93 5548.99 6351.62 5776.67 6359.8 6047.81Z" fill="black"/>
<path opacity="0.2" d="M7273.51 5437.09C7344.77 5466.16 7409.54 5509.09 7464.06 5563.4C7518.59 5617.7 7561.79 5682.29 7591.14 5753.43C7622.83 5827.72 7637.53 5908.15 7634.18 5988.85C7630.91 6069.51 7613.27 6148.94 7582.1 6223.41C7546.75 6296.43 7498.16 6362.24 7438.78 6417.52C7381.01 6470.56 7315.21 6514.14 7243.82 6546.63C7106.98 6610.4 6956.97 6640.78 6806.11 6635.29C6941.67 6589.74 7071.62 6528.96 7193.46 6454.1C7307.62 6386.61 7399.95 6287.71 7459.44 6169.18C7485.44 6109.79 7501.57 6046.55 7507.22 5981.96C7515.05 5917.14 7510.52 5851.42 7493.87 5788.29C7454.24 5653.13 7377.97 5531.58 7273.51 5437.09Z" fill="black"/>
<path d="M5497.73 7837.37C5497.63 7907.21 5483.64 7976.33 5456.58 8040.71C5429.52 8105.09 5389.92 8163.45 5340.1 8212.39C5290.28 8261.33 5231.23 8299.87 5166.37 8325.78C5101.52 8351.69 5032.16 8364.44 4962.33 8363.3H4866.78V9089.8C4862.87 9226.62 4805.76 9356.53 4707.6 9451.93C4609.44 9547.32 4477.95 9600.69 4341.07 9600.69C4204.18 9600.69 4072.7 9547.32 3974.53 9451.93C3876.37 9356.53 3819.26 9226.62 3815.35 9089.8V8363.3H802.629C683.644 8367.7 567.451 8326.61 477.686 8248.39C422.261 8206.79 375.873 8154.35 341.338 8094.26C306.804 8034.18 284.844 7967.7 276.794 7898.87C268.743 7830.04 274.77 7760.29 294.507 7693.85C314.244 7627.42 347.28 7565.7 391.608 7512.43L3928.54 3114.72C3938.44 3114.72 3938.44 3105.25 3947.91 3095.78C3959.52 3084.65 3969.26 3071.72 3976.74 3057.48C3994.89 3052.16 4011.35 3042.22 4024.51 3028.64C4033.98 3019.17 4052.92 3009.7 4062.82 2999.81C4079.56 2987.87 4099.51 2981.27 4120.06 2980.87C4129.53 2961.93 4139 2952.03 4158.37 2952.03C4167.83 2942.56 4186.77 2942.56 4215.61 2933.1C4229.09 2934.47 4242.62 2931.12 4253.91 2923.63H4416.17C4430.85 2931.32 4447.44 2934.6 4463.94 2933.1C4473.41 2942.56 4502.25 2942.56 4521.61 2952.03C4531.08 2952.03 4550.02 2961.93 4559.92 2961.93C4578.85 2980.87 4597.79 2990.34 4607.26 2999.81C4626.63 3009.7 4636.1 3019.17 4655.46 3028.64C4657.98 3028.64 4660.38 3029.64 4662.16 3031.42C4663.94 3033.19 4664.93 3035.6 4664.93 3038.11C4674.4 3038.11 4693.77 3047.58 4693.77 3057.48L4731.64 3095.78C4741.11 3105.25 4751.01 3124.19 4760.48 3133.66C4774.82 3148.25 4787.65 3164.26 4798.78 3181.43C4801.04 3195.83 4807.65 3209.2 4817.72 3219.73C4825.81 3238.37 4832.29 3257.67 4837.09 3277.41C4837.09 3286.87 4846.56 3305.81 4846.56 3315.28C4855.06 3333.24 4858.34 3353.22 4856.03 3372.95C4856.03 3391.89 4865.49 3401.36 4865.49 3420.73V7311.43H4961.04C5101.84 7310.4 5237.32 7365.14 5337.88 7463.68C5438.45 7562.23 5495.92 7696.58 5497.73 7837.37ZM3815.35 4950.32L1915.18 7311.43H3817.5L3815.35 4950.32Z" fill="#E9E8E6"/>
<path d="M9437.5 15583.9L9612.24 15616.2L9651.41 15800L9690.14 15616.2L9864.88 15583.5L9691 15541.3L9651.41 15367L9611.38 15541.3L9437.5 15583.9Z" fill="#E9E8E6"/>
<path d="M5529.15 9115.19L5703.89 9147.47L5742.62 9331.68L5781.79 9147.47L5956.52 9115.19L5782.65 9072.58L5742.62 8898.71L5703.02 9072.58L5529.15 9115.19Z" fill="#E9E8E6"/>
<path d="M15234.8 9039.01L15409.6 9071.29L15448.7 9255.5L15487.9 9071.29L15662.6 9039.01L15488.3 8996.4L15448.7 8822.53L15408.7 8996.4L15234.8 9039.01Z" fill="#E9E8E6"/>
<path d="M17123.4 13969.5L17221.1 13987.6L17243 14090.5L17264.5 13987.6L17362.2 13969.5L17265 13945.9L17243 13848.6L17220.6 13945.9L17123.4 13969.5Z" fill="#E9E8E6"/>
<path d="M15786.6 2018.52L15883.9 2036.6L15905.8 2139.46L15927.8 2036.6L16025.5 2018.52L15928.2 1994.85L15905.8 1897.58L15883.9 1994.85L15786.6 2018.52Z" fill="#E9E8E6"/>
<path d="M17710.4 5079.44L17808.1 5097.52L17829.6 5200.38L17851.6 5097.52L17949.3 5079.44L17852 5055.77L17829.6 4958.5L17807.7 5055.77L17710.4 5079.44Z" fill="#E9E8E6"/>
<path d="M2800.92 6459.69L2898.62 6477.77L2920.14 6580.63L2942.09 6477.77L3039.78 6459.69L2942.52 6436.02L2920.14 6338.76L2898.19 6436.02L2800.92 6459.69Z" fill="#E9E8E6"/>
<path d="M309.832 14479.1L407.53 14497.2L429.48 14600.1L451.43 14497.2L549.128 14479.1L451.86 14455L429.48 14358.2L407.1 14455L309.832 14479.1Z" fill="#E9E8E6"/>
<path d="M16507.9 11943.7L16605.2 11961.8L16627.1 12064.6L16649.1 11961.8L16746.8 11943.3L16649.5 11919.6L16627.1 11822.3L16604.8 11919.6L16507.9 11943.7Z" fill="#E9E8E6"/>
<path d="M3192.57 15073.1L3290.27 15091.1L3312.22 15194L3333.74 15091.1L3431.44 15073.1L3334.17 15049.4L3312.22 14952.1L3289.84 15049.4L3192.57 15073.1Z" fill="#E9E8E6"/>
<path d="M6631.8 2436L6729.5 2453.64L6751.45 2556.94L6773.4 2453.64L6870.67 2435.57L6773.4 2411.89L6751.45 2314.63L6729.07 2411.89L6631.8 2436Z" fill="#E9E8E6"/>
<path d="M12412.8 5321.75L12510.5 5339.83L12532.4 5442.69L12553.9 5339.83L12651.6 5321.32L12554.4 5297.65L12532.4 5200.38L12510 5297.65L12412.8 5321.75Z" fill="#E9E8E6"/>
<path d="M4654.17 13062.3L4751.87 13080.4L4773.39 13183.2L4795.34 13080.4L4893.04 13062.3L4795.77 13038.6L4773.39 12941.3L4751.44 13038.6L4654.17 13062.3Z" fill="#E9E8E6"/>
<path d="M429.48 16245.9C437.013 16245.9 444.239 16248.9 449.566 16254.2C454.893 16259.5 457.885 16266.7 457.885 16274.3C457.885 16281.8 454.893 16289 449.566 16294.4C444.239 16299.7 437.013 16302.7 429.48 16302.7C421.946 16302.7 414.721 16299.7 409.394 16294.4C404.067 16289 401.074 16281.8 401.074 16274.3C401.074 16266.7 404.067 16259.5 409.394 16254.2C414.721 16248.9 421.946 16245.9 429.48 16245.9Z" fill="#E9E8E6"/>
<path d="M14531.6 12800.2C14539.1 12800.2 14546.3 12803.2 14551.7 12808.5C14557 12813.8 14560 12821 14560 12828.6C14560 12836.1 14557 12843.3 14551.7 12848.7C14546.3 12854 14539.1 12857 14531.6 12857C14524 12857 14516.8 12854 14511.5 12848.7C14506.2 12843.3 14503.2 12836.1 14503.2 12828.6C14503.2 12821 14506.2 12813.8 14511.5 12808.5C14516.8 12803.2 14524 12800.2 14531.6 12800.2Z" fill="#E9E8E6"/>
<path d="M14799.3 8753.23C14806.2 8754.09 14812.5 8757.42 14817.1 8762.61C14821.7 8767.81 14824.2 8774.5 14824.2 8781.42C14824.2 8788.35 14821.7 8795.04 14817.1 8800.24C14812.5 8805.43 14806.2 8808.76 14799.3 8809.62C14792.4 8808.76 14786.1 8805.43 14781.5 8800.24C14776.9 8795.04 14774.4 8788.35 14774.4 8781.42C14774.4 8774.5 14776.9 8767.81 14781.5 8762.61C14786.1 8757.42 14792.4 8754.09 14799.3 8753.23Z" fill="#E9E8E6"/>
<path d="M12819.5 6666.28C12827 6666.28 12834.3 6669.28 12839.6 6674.6C12844.9 6679.93 12847.9 6687.16 12847.9 6694.69C12847.9 6702.22 12844.9 6709.45 12839.6 6714.77C12834.3 6720.1 12827 6723.09 12819.5 6723.09C12812 6723.09 12804.7 6720.1 12799.4 6714.77C12794.1 6709.45 12791.1 6702.22 12791.1 6694.69C12791.1 6687.16 12794.1 6679.93 12799.4 6674.6C12804.7 6669.28 12812 6666.28 12819.5 6666.28Z" fill="#E9E8E6"/>
<path d="M4081.32 16628.9C4088.2 16629.8 4094.53 16633.1 4099.12 16638.3C4103.7 16643.5 4106.24 16650.2 4106.24 16657.1C4106.24 16664 4103.7 16670.7 4099.12 16675.9C4094.53 16681.1 4088.2 16684.4 4081.32 16685.3C4074.45 16684.4 4068.12 16681.1 4063.53 16675.9C4058.94 16670.7 4056.41 16664 4056.41 16657.1C4056.41 16650.2 4058.94 16643.5 4063.53 16638.3C4068.12 16633.1 4074.45 16629.8 4081.32 16628.9Z" fill="#E9E8E6"/>
<path d="M2920.14 14988.3C2927.02 14989.1 2933.34 14992.5 2937.93 14997.6C2942.52 15002.8 2945.05 15009.5 2945.05 15016.5C2945.05 15023.4 2942.52 15030.1 2937.93 15035.3C2933.34 15040.5 2927.02 15043.8 2920.14 15044.6C2913.26 15043.8 2906.93 15040.5 2902.34 15035.3C2897.76 15030.1 2895.22 15023.4 2895.22 15016.5C2895.22 15009.5 2897.76 15002.8 2902.34 14997.6C2906.93 14992.5 2913.26 14989.1 2920.14 14988.3Z" fill="#E9E8E6"/>
<path d="M5837.74 14236.8C5845.27 14236.8 5852.5 14239.8 5857.82 14245.1C5863.15 14250.5 5866.14 14257.7 5866.14 14265.2C5866.14 14272.7 5863.15 14280 5857.82 14285.3C5852.5 14290.6 5845.27 14293.6 5837.74 14293.6C5830.2 14293.6 5822.98 14290.6 5817.65 14285.3C5812.32 14280 5809.33 14272.7 5809.33 14265.2C5809.33 14257.7 5812.32 14250.5 5817.65 14245.1C5822.98 14239.8 5830.2 14236.8 5837.74 14236.8Z" fill="#E9E8E6"/>
<path d="M11196.9 14988.3C11203.8 14989.1 11210.1 14992.5 11214.7 14997.6C11219.3 15002.8 11221.8 15009.5 11221.8 15016.5C11221.8 15023.4 11219.3 15030.1 11214.7 15035.3C11210.1 15040.5 11203.8 15043.8 11196.9 15044.6C11190.1 15043.8 11183.7 15040.5 11179.1 15035.3C11174.5 15030.1 11172 15023.4 11172 15016.5C11172 15009.5 11174.5 15002.8 11179.1 14997.6C11183.7 14992.5 11190.1 14989.1 11196.9 14988.3Z" fill="#E9E8E6"/>
<path d="M15878.7 13171.2C15885.6 13172 15891.9 13175.4 15896.5 13180.5C15901.1 13185.7 15903.6 13192.4 15903.6 13199.4C15903.6 13206.3 15901.1 13213 15896.5 13218.2C15891.9 13223.4 15885.6 13226.7 15878.7 13227.5C15871.8 13226.7 15865.5 13223.4 15860.9 13218.2C15856.3 13213 15853.8 13206.3 15853.8 13199.4C15853.8 13192.4 15856.3 13185.7 15860.9 13180.5C15865.5 13175.4 15871.8 13172 15878.7 13171.2Z" fill="#E9E8E6"/>
<path d="M14694.3 10040.1C14701.8 10040.1 14709 10043.1 14714.4 10048.4C14719.7 10053.7 14722.7 10061 14722.7 10068.5C14722.7 10076 14719.7 10083.3 14714.4 10088.6C14709 10093.9 14701.8 10096.9 14694.3 10096.9C14686.7 10096.9 14679.5 10093.9 14674.2 10088.6C14668.9 10083.3 14665.9 10076 14665.9 10068.5C14665.9 10061 14668.9 10053.7 14674.2 10048.4C14679.5 10043.1 14686.7 10040.1 14694.3 10040.1Z" fill="#E9E8E6"/>
<path d="M9887.26 14931.9C9892.07 14932.6 9896.46 14935 9899.63 14938.7C9902.8 14942.4 9904.55 14947 9904.55 14951.9C9904.55 14956.8 9902.8 14961.4 9899.63 14965.1C9896.46 14968.8 9892.07 14971.2 9887.26 14971.9C9882.46 14971.2 9878.07 14968.8 9874.9 14965.1C9871.72 14961.4 9869.98 14956.8 9869.98 14951.9C9869.98 14947 9871.72 14942.4 9874.9 14938.7C9878.07 14935 9882.46 14932.6 9887.26 14931.9Z" fill="#E9E8E6"/>
<path d="M3701.29 2513.04C3706.1 2513.74 3710.49 2516.15 3713.66 2519.83C3716.83 2523.5 3718.58 2528.2 3718.58 2533.05C3718.58 2537.9 3716.83 2542.6 3713.66 2546.27C3710.49 2549.95 3706.1 2552.36 3701.29 2553.06C3696.49 2552.36 3692.1 2549.95 3688.93 2546.27C3685.75 2542.6 3684.01 2537.9 3684.01 2533.05C3684.01 2528.2 3685.75 2523.5 3688.93 2519.83C3692.1 2516.15 3696.49 2513.74 3701.29 2513.04Z" fill="#E9E8E6"/>
<path d="M11469.8 12594.9C11474.6 12595.6 11479 12598 11482.2 12601.7C11485.3 12605.3 11487.1 12610 11487.1 12614.9C11487.1 12619.7 11485.3 12624.4 11482.2 12628.1C11479 12631.8 11474.6 12634.2 11469.8 12634.9C11465 12634.2 11460.6 12631.8 11457.4 12628.1C11454.3 12624.4 11452.5 12619.7 11452.5 12614.9C11452.5 12610 11454.3 12605.3 11457.4 12601.7C11460.6 12598 11465 12595.6 11469.8 12594.9Z" fill="#E9E8E6"/>
<path d="M3751.64 15173.8C3756.45 15174.5 3760.84 15176.9 3764.01 15180.6C3767.18 15184.2 3768.93 15188.9 3768.93 15193.8C3768.93 15198.6 3767.18 15203.3 3764.01 15207C3760.84 15210.7 3756.45 15213.1 3751.64 15213.8C3746.84 15213.1 3742.45 15210.7 3739.28 15207C3736.11 15203.3 3734.36 15198.6 3734.36 15193.8C3734.36 15188.9 3736.11 15184.2 3739.28 15180.6C3742.45 15176.9 3746.84 15174.5 3751.64 15173.8Z" fill="#E9E8E6"/>
<path d="M8871.97 10343.1C8876.78 10343.8 8881.17 10346.2 8884.34 10349.9C8887.51 10353.6 8889.26 10358.2 8889.26 10363.1C8889.26 10368 8887.51 10372.6 8884.34 10376.3C8881.17 10380 8876.78 10382.4 8871.97 10383.1C8867.17 10382.4 8862.78 10380 8859.61 10376.3C8856.43 10372.6 8854.69 10368 8854.69 10363.1C8854.69 10358.2 8856.43 10353.6 8859.61 10349.9C8862.78 10346.2 8867.17 10343.8 8871.97 10343.1Z" fill="#E9E8E6"/>
<path d="M13202.5 10573.3C13216.9 10573.3 13230.7 10579.1 13240.9 10589.2C13251.1 10599.4 13256.8 10613.2 13256.8 10627.6C13256.8 10642 13251.1 10655.7 13240.9 10665.9C13230.7 10676.1 13216.9 10681.8 13202.5 10681.8C13188.2 10681.8 13174.4 10676.1 13164.2 10665.9C13154 10655.7 13148.3 10642 13148.3 10627.6C13148.3 10613.2 13154 10599.4 13164.2 10589.2C13174.4 10579.1 13188.2 10573.3 13202.5 10573.3Z" fill="#E9E8E6"/>
<path d="M5596.72 3094.06L5771.03 3126.34L5810.19 3310.55L5849.36 3126.34L6024.09 3094.06L5850.22 3051.45L5810.19 2877.58L5770.6 3051.45L5596.72 3094.06Z" fill="#E9E8E6"/>
<path d="M12941.3 4572.44L13116 4604.72L13155.2 4788.93L13193.9 4604.72L13368.7 4572.44L13194.8 4529.84L13155.2 4355.96L13115.2 4529.84L12941.3 4572.44Z" fill="#E9E8E6"/>
<path d="M216.008 8988.22L390.315 9020.5L429.48 9204.71L468.646 9020.5L643.383 8988.22L469.506 8945.62L429.48 8771.74L389.885 8945.62L216.008 8988.22Z" fill="#E9E8E6"/>
<path d="M15692.3 216.485L15867.1 248.764L15905.8 432.971L15945 248.764L16119.7 216.055L15945.8 173.877L15905.8 0L15866.2 173.877L15692.3 216.485Z" fill="#E9E8E6"/>
<path d="M9412.11 631.81L9509.81 649.886L9531.76 752.749L9553.71 649.886L9651.41 631.81L9554.14 608.139L9531.76 510.871L9509.38 608.139L9412.11 631.81Z" fill="#E9E8E6"/>
<path d="M429.48 4070.18L527.179 4088.26L549.128 4191.12L570.648 4088.26L668.346 4070.18L571.078 4046.51L549.128 3949.24L526.748 4046.51L429.48 4070.18Z" fill="#E9E8E6"/>
<path d="M2222.91 3899.32C2230.44 3899.32 2237.67 3902.31 2243 3907.64C2248.32 3912.96 2251.32 3920.19 2251.32 3927.72C2251.32 3935.26 2248.32 3942.48 2243 3947.81C2237.67 3953.14 2230.44 3956.13 2222.91 3956.13C2215.38 3956.13 2208.15 3953.14 2202.82 3947.81C2197.5 3942.48 2194.5 3935.26 2194.5 3927.72C2194.5 3920.19 2197.5 3912.96 2202.82 3907.64C2208.15 3902.31 2215.38 3899.32 2222.91 3899.32Z" fill="#E9E8E6"/>
<path d="M70.5384 14038.4C78.0721 14038.4 85.2971 14041.4 90.6242 14046.7C95.9513 14052 98.944 14059.3 98.944 14066.8C98.944 14074.3 95.9513 14081.6 90.6242 14086.9C85.2971 14092.2 78.0721 14095.2 70.5384 14095.2C63.0048 14095.2 55.7797 14092.2 50.4526 14086.9C45.1256 14081.6 42.1328 14074.3 42.1328 14066.8C42.1328 14059.3 45.1256 14052 50.4526 14046.7C55.7797 14041.4 63.0048 14038.4 70.5384 14038.4Z" fill="#E9E8E6"/>
<path d="M2392.48 13062.3C2399.36 13063.1 2405.69 13066.5 2410.28 13071.7C2414.87 13076.9 2417.4 13083.5 2417.4 13090.5C2417.4 13097.4 2414.87 13104.1 2410.28 13109.3C2405.69 13114.5 2399.36 13117.8 2392.48 13118.7C2385.61 13117.8 2379.28 13114.5 2374.69 13109.3C2370.1 13104.1 2367.57 13097.4 2367.57 13090.5C2367.57 13083.5 2370.1 13076.9 2374.69 13071.7C2379.28 13066.5 2385.61 13063.1 2392.48 13062.3Z" fill="#E9E8E6"/>
<path d="M98.0836 5895.46C104.96 5896.31 111.289 5899.64 115.878 5904.84C120.467 5910.03 122.999 5916.72 122.999 5923.65C122.999 5930.58 120.467 5937.27 115.878 5942.46C111.289 5947.65 104.96 5950.99 98.0836 5951.84C91.2068 5950.99 84.8785 5947.65 80.2896 5942.46C75.7007 5937.27 73.168 5930.58 73.168 5923.65C73.168 5916.72 75.7007 5910.03 80.2896 5904.84C84.8785 5899.64 91.2068 5896.31 98.0836 5895.46Z" fill="#E9E8E6"/>
<path d="M2392.48 1639.35C2400.01 1639.35 2407.24 1642.34 2412.57 1647.67C2417.89 1653 2420.89 1660.22 2420.89 1667.75C2420.89 1675.29 2417.89 1682.51 2412.57 1687.84C2407.24 1693.17 2400.01 1696.16 2392.48 1696.16C2384.95 1696.16 2377.72 1693.17 2372.39 1687.84C2367.07 1682.51 2364.07 1675.29 2364.07 1667.75C2364.07 1660.22 2367.07 1653 2372.39 1647.67C2377.72 1642.34 2384.95 1639.35 2392.48 1639.35Z" fill="#E9E8E6"/>
<path d="M6098.99 188.079C6105.86 188.93 6112.19 192.266 6116.78 197.458C6121.37 202.65 6123.9 209.34 6123.9 216.269C6123.9 223.199 6121.37 229.889 6116.78 235.081C6112.19 240.273 6105.86 243.609 6098.99 244.46C6092.11 243.609 6085.78 240.273 6081.19 235.081C6076.6 229.889 6074.07 223.199 6074.07 216.269C6074.07 209.34 6076.6 202.65 6081.19 197.458C6085.78 192.266 6092.11 188.93 6098.99 188.079Z" fill="#E9E8E6"/>
<path d="M4961.9 10309.1C4966.7 10309.8 4971.09 10312.2 4974.26 10315.9C4977.44 10319.6 4979.18 10324.2 4979.18 10329.1C4979.18 10334 4977.44 10338.6 4974.26 10342.3C4971.09 10346 4966.7 10348.4 4961.9 10349.1C4957.1 10348.4 4952.71 10346 4949.53 10342.3C4946.36 10338.6 4944.61 10334 4944.61 10329.1C4944.61 10324.2 4946.36 10319.6 4949.53 10315.9C4952.71 10312.2 4957.1 10309.8 4961.9 10309.1Z" fill="#E9E8E6"/>
<path d="M4942.53 15466.4C4947.33 15467.1 4951.72 15469.5 4954.9 15473.2C4958.07 15476.9 4959.82 15481.6 4959.82 15486.4C4959.82 15491.3 4958.07 15496 4954.9 15499.7C4951.72 15503.3 4947.33 15505.7 4942.53 15506.5C4937.73 15505.7 4933.34 15503.3 4930.17 15499.7C4926.99 15496 4925.25 15491.3 4925.25 15486.4C4925.25 15481.6 4926.99 15476.9 4930.17 15473.2C4933.34 15469.5 4937.73 15467.1 4942.53 15466.4Z" fill="#E9E8E6"/>
<path d="M15171.1 3699.62L15268.8 3717.69L15290.4 3820.56L15312.3 3717.69L15410 3699.62L15312.7 3675.95L15290.4 3578.68L15268.4 3675.95L15171.1 3699.62Z" fill="#E9E8E6"/>
<path d="M17356.2 8810.48L17453.9 8828.55L17475.9 8931.42L17497.8 8828.55L17595.1 8810.05L17498.2 8786.37L17475.9 8689.11L17453.5 8786.37L17356.2 8810.48Z" fill="#E9E8E6"/>
<path d="M14898.7 3796.88C14905.6 3797.74 14911.9 3801.07 14916.5 3806.26C14921.1 3811.46 14923.6 3818.15 14923.6 3825.08C14923.6 3832 14921.1 3838.69 14916.5 3843.89C14911.9 3849.08 14905.6 3852.41 14898.7 3853.27C14891.8 3852.41 14885.5 3849.08 14880.9 3843.89C14876.3 3838.69 14873.8 3832 14873.8 3825.08C14873.8 3818.15 14876.3 3811.46 14880.9 3806.26C14885.5 3801.07 14891.8 3797.74 14898.7 3796.88Z" fill="#E9E8E6"/>
<path d="M12007.8 967.513C12012.6 968.219 12017 970.629 12020.2 974.304C12023.3 977.978 12025.1 982.671 12025.1 987.526C12025.1 992.381 12023.3 997.074 12020.2 1000.75C12017 1004.42 12012.6 1006.83 12007.8 1007.54C12003 1006.83 11998.6 1004.42 11995.4 1000.75C11992.2 997.074 11990.5 992.381 11990.5 987.526C11990.5 982.671 11992.2 977.978 11995.4 974.304C11998.6 970.629 12003 968.219 12007.8 967.513Z" fill="#E9E8E6"/>
<path d="M7749.09 17324.4C7753.89 17325.1 7758.28 17327.5 7761.46 17331.2C7764.63 17334.9 7766.38 17339.6 7766.38 17344.4C7766.38 17349.3 7764.63 17354 7761.46 17357.6C7758.28 17361.3 7753.89 17363.7 7749.09 17364.4C7744.29 17363.7 7739.9 17361.3 7736.72 17357.6C7733.55 17354 7731.8 17349.3 7731.8 17344.4C7731.8 17339.6 7733.55 17334.9 7736.72 17331.2C7739.9 17327.5 7744.29 17325.1 7749.09 17324.4Z" fill="#E9E8E6"/>
<path d="M16921.1 4275.05C16925.9 4275.75 16930.3 4278.16 16933.5 4281.84C16936.6 4285.51 16938.4 4290.2 16938.4 4295.06C16938.4 4299.91 16936.6 4304.61 16933.5 4308.28C16930.3 4311.96 16925.9 4314.37 16921.1 4315.07C16916.3 4314.37 16911.9 4311.96 16908.7 4308.28C16905.6 4304.61 16903.8 4299.91 16903.8 4295.06C16903.8 4290.2 16905.6 4285.51 16908.7 4281.84C16911.9 4278.16 16916.3 4275.75 16921.1 4275.05Z" fill="#E9E8E6"/>
<path d="M12892.7 3290.75C12897.5 3291.45 12901.9 3293.86 12905 3297.54C12908.2 3301.21 12909.9 3305.91 12909.9 3310.76C12909.9 3315.62 12908.2 3320.31 12905 3323.98C12901.9 3327.66 12897.5 3330.07 12892.7 3330.77C12887.9 3330.07 12883.5 3327.66 12880.3 3323.98C12877.1 3320.31 12875.4 3315.62 12875.4 3310.76C12875.4 3305.91 12877.1 3301.21 12880.3 3297.54C12883.5 3293.86 12887.9 3291.45 12892.7 3290.75Z" fill="#E9E8E6"/>
<path d="M12950.3 224.662C12955.1 225.368 12959.5 227.779 12962.7 231.453C12965.9 235.127 12967.6 239.82 12967.6 244.675C12967.6 249.53 12965.9 254.223 12962.7 257.897C12959.5 261.572 12955.1 263.982 12950.3 264.688C12945.5 263.982 12941.1 261.572 12938 257.897C12934.8 254.223 12933 249.53 12933 244.675C12933 239.82 12934.8 235.127 12938 231.453C12941.1 227.779 12945.5 225.368 12950.3 224.662Z" fill="#E9E8E6"/>
<path d="M7341.08 9597.65C7355.47 9597.65 7369.26 9603.37 7379.43 9613.54C7389.6 9623.71 7395.31 9637.5 7395.31 9651.88C7395.31 9666.27 7389.6 9680.06 7379.43 9690.23C7369.26 9700.4 7355.47 9706.11 7341.08 9706.11C7326.7 9706.11 7312.91 9700.4 7302.74 9690.23C7292.57 9680.06 7286.86 9666.27 7286.86 9651.88C7286.86 9637.5 7292.57 9623.71 7302.74 9613.54C7312.91 9603.37 7326.7 9597.65 7341.08 9597.65Z" fill="#E9E8E6"/>
<path d="M14746.8 6820.36C14760.4 6821.57 14773 6827.83 14782.3 6837.91C14791.5 6847.98 14796.6 6861.15 14796.6 6874.81C14796.6 6888.46 14791.5 6901.63 14782.3 6911.7C14773 6921.78 14760.4 6928.04 14746.8 6929.25C14733.2 6928.04 14720.5 6921.78 14711.3 6911.7C14702.1 6901.63 14697 6888.46 14697 6874.81C14697 6861.15 14702.1 6847.98 14711.3 6837.91C14720.5 6827.83 14733.2 6821.57 14746.8 6820.36Z" fill="#E9E8E6"/>
<path d="M2484.58 6874.59C2498.97 6874.59 2512.76 6880.3 2522.93 6890.47C2533.1 6900.64 2538.81 6914.44 2538.81 6928.82C2538.81 6943.2 2533.1 6956.99 2522.93 6967.16C2512.76 6977.33 2498.97 6983.05 2484.58 6983.05C2470.2 6983.05 2456.41 6977.33 2446.24 6967.16C2436.07 6956.99 2430.36 6943.2 2430.36 6928.82C2430.36 6914.44 2436.07 6900.64 2446.24 6890.47C2456.41 6880.3 2470.2 6874.59 2484.58 6874.59Z" fill="#E9E8E6"/>
<path d="M17414.7 7202.12C17429.1 7202.12 17442.9 7207.83 17453.1 7218C17463.3 7228.17 17469 7241.96 17469 7256.34C17469 7270.73 17463.3 7284.52 17453.1 7294.69C17442.9 7304.86 17429.1 7310.57 17414.7 7310.57C17400.4 7310.57 17386.6 7304.86 17376.4 7294.69C17366.2 7284.52 17360.5 7270.73 17360.5 7256.34C17360.5 7241.96 17366.2 7228.17 17376.4 7218C17386.6 7207.83 17400.4 7202.12 17414.7 7202.12Z" fill="#E9E8E6"/>
<path d="M1728.39 12168.4C1742.78 12168.4 1756.57 12174.1 1766.74 12184.2C1776.91 12194.4 1782.62 12208.2 1782.62 12222.6C1782.62 12237 1776.91 12250.8 1766.74 12260.9C1756.57 12271.1 1742.78 12276.8 1728.39 12276.8C1714.01 12276.8 1700.22 12271.1 1690.05 12260.9C1679.88 12250.8 1674.16 12237 1674.16 12222.6C1674.16 12208.2 1679.88 12194.4 1690.05 12184.2C1700.22 12174.1 1714.01 12168.4 1728.39 12168.4Z" fill="#E9E8E6"/>
<path d="M4465.23 1575.22L4562.5 1592.87L4584.45 1696.16L4606.4 1592.87L4704.1 1574.79L4606.83 1551.12L4584.45 1453.85L4562.5 1551.12L4465.23 1575.22Z" fill="#E9E8E6"/>
<path d="M9789.13 11808.1L9886.4 11826.2L9908.35 11929.1L9930.3 11826.2L10028 11808.1L9930.73 11784L9908.35 11686.8L9886.4 11784L9789.13 11808.1Z" fill="#E9E8E6"/>
<path d="M12941.3 16512.7C12948.8 16512.7 12956.1 16515.7 12961.4 16521C12966.7 16526.3 12969.7 16533.6 12969.7 16541.1C12969.7 16548.6 12966.7 16555.9 12961.4 16561.2C12956.1 16566.5 12948.8 16569.5 12941.3 16569.5C12933.8 16569.5 12926.5 16566.5 12921.2 16561.2C12915.9 16555.9 12912.9 16548.6 12912.9 16541.1C12912.9 16533.6 12915.9 16526.3 12921.2 16521C12926.5 16515.7 12933.8 16512.7 12941.3 16512.7Z" fill="#E9E8E6"/>
<path d="M11065.2 16245.9C11072.8 16245.9 11080 16248.9 11085.3 16254.2C11090.6 16259.5 11093.6 16266.7 11093.6 16274.3C11093.6 16281.8 11090.6 16289 11085.3 16294.4C11080 16299.7 11072.8 16302.7 11065.2 16302.7C11057.7 16302.7 11050.5 16299.7 11045.1 16294.4C11039.8 16289 11036.8 16281.8 11036.8 16274.3C11036.8 16266.7 11039.8 16259.5 11045.1 16254.2C11050.5 16248.9 11057.7 16245.9 11065.2 16245.9Z" fill="#E9E8E6"/>
<path d="M11669.1 8682.22L11766.3 8700.3L11788.3 8803.16L11810.2 8700.3L11907.9 8682.22L11810.7 8658.55L11788.3 8561.28L11765.9 8658.55L11669.1 8682.22Z" fill="#E9E8E6"/>
<path d="M15015.3 14549.7L15113 14567.8L15135 14670.6L15156.5 14567.8L15254.2 14549.7L15156.9 14526L15135 14428.8L15112.6 14526L15015.3 14549.7Z" fill="#E9E8E6"/>
<path d="M15905.8 17016.7L16003.5 17034.8L16025.5 17137.6L16047.4 17034.8L16144.7 17016.7L16047.8 16992.6L16025.5 16895.3L16003.1 16992.6L15905.8 17016.7Z" fill="#E9E8E6"/>
<path d="M12080.9 3254.17C12087.8 3255.02 12094.2 3258.35 12098.7 3263.54C12103.3 3268.74 12105.9 3275.43 12105.9 3282.36C12105.9 3289.28 12103.3 3295.98 12098.7 3301.17C12094.2 3306.36 12087.8 3309.69 12080.9 3310.55C12074.1 3309.69 12067.7 3306.36 12063.2 3301.17C12058.6 3295.98 12056 3289.28 12056 3282.36C12056 3275.43 12058.6 3268.74 12063.2 3263.54C12067.7 3258.35 12074.1 3255.02 12080.9 3254.17Z" fill="#E9E8E6"/>
<path d="M15254.2 15849C15259 15849.8 15263.4 15852.2 15266.6 15855.8C15269.7 15859.5 15271.5 15864.2 15271.5 15869.1C15271.5 15873.9 15269.7 15878.6 15266.6 15882.3C15263.4 15886 15259 15888.4 15254.2 15889.1C15249.4 15888.4 15245 15886 15241.8 15882.3C15238.7 15878.6 15236.9 15873.9 15236.9 15869.1C15236.9 15864.2 15238.7 15859.5 15241.8 15855.8C15245 15852.2 15249.4 15849.8 15254.2 15849Z" fill="#E9E8E6"/>
<path d="M1153.82 9597.66L1251.52 9615.73L1273.47 9718.59L1294.99 9615.73L1392.69 9597.66L1295.42 9573.55L1273.47 9476.72L1251.09 9573.55L1153.82 9597.66Z" fill="#E9E8E6"/>
<path d="M24.9158 11694.9C31.7926 11695.8 38.1209 11699.1 42.7098 11704.3C47.2987 11709.5 49.8314 11716.2 49.8314 11723.1C49.8314 11730.1 47.2987 11736.7 42.7098 11741.9C38.1209 11747.1 31.7926 11750.5 24.9158 11751.3C18.039 11750.5 11.7105 11747.1 7.12164 11741.9C2.53276 11736.7 0 11730.1 0 11723.1C0 11716.2 2.53276 11709.5 7.12164 11704.3C11.7105 11699.1 18.039 11695.8 24.9158 11694.9Z" fill="#E9E8E6"/>
<path d="M7017.86 7227.94C7025.4 7227.94 7032.62 7230.93 7037.95 7236.26C7043.28 7241.59 7046.27 7248.81 7046.27 7256.34C7046.27 7263.88 7043.28 7271.1 7037.95 7276.43C7032.62 7281.76 7025.4 7284.75 7017.86 7284.75C7010.33 7284.75 7003.1 7281.76 6997.78 7276.43C6992.45 7271.1 6989.46 7263.88 6989.46 7256.34C6989.46 7248.81 6992.45 7241.59 6997.78 7236.26C7003.1 7230.93 7010.33 7227.94 7017.86 7227.94Z" fill="#E9E8E6"/>
<path d="M4942.53 4095.14C4947.33 4095.85 4951.72 4098.26 4954.9 4101.93C4958.07 4105.61 4959.82 4110.3 4959.82 4115.16C4959.82 4120.01 4958.07 4124.7 4954.9 4128.38C4951.72 4132.05 4947.33 4134.46 4942.53 4135.17C4937.73 4134.46 4933.34 4132.05 4930.17 4128.38C4926.99 4124.7 4925.25 4120.01 4925.25 4115.16C4925.25 4110.3 4926.99 4105.61 4930.17 4101.93C4933.34 4098.26 4937.73 4095.85 4942.53 4095.14Z" fill="#E9E8E6"/>
<path d="M1675.89 577.581C1690.27 577.581 1704.06 583.294 1714.23 593.464C1724.4 603.634 1730.11 617.428 1730.11 631.81C1730.11 646.192 1724.4 659.986 1714.23 670.156C1704.06 680.326 1690.27 686.039 1675.89 686.039C1661.5 686.039 1647.71 680.326 1637.54 670.156C1627.37 659.986 1621.66 646.192 1621.66 631.81C1621.66 617.428 1627.37 603.634 1637.54 593.464C1647.71 583.294 1661.5 577.581 1675.89 577.581Z" fill="#E9E8E6"/>
<path d="M14539.8 1789.12C14554.1 1789.12 14567.9 1794.84 14578.1 1805.01C14588.3 1815.18 14594 1828.97 14594 1843.35C14594 1857.73 14588.3 1871.53 14578.1 1881.7C14567.9 1891.87 14554.1 1897.58 14539.8 1897.58C14525.4 1897.58 14511.6 1891.87 14501.4 1881.7C14491.2 1871.53 14485.5 1857.73 14485.5 1843.35C14485.5 1828.97 14491.2 1815.18 14501.4 1805.01C14511.6 1794.84 14525.4 1789.12 14539.8 1789.12Z" fill="#E9E8E6"/>
</svg>
