<svg xmlns="http://www.w3.org/2000/svg" fill="currentColor" viewBox="0 0 15 24"><path d="M7.533.003c.037.02.057.038.074.076.005.03.007.061.01.092l.002.028a19.94 19.94 0 0 1 .023.312 81.139 81.139 0 0 0 .053.695l.02.25.035.463.035.46.002.03a676.368 676.368 0 0 1 .09 1.186l.005.063.002.031.012.157.003.032.054.715.002.031.054.703.002.03.02.271.05.636.003.055.002.028.005.054.01.137a2830.571 2830.571 0 0 0 .048.631l.004.051a22.16 22.16 0 0 1 .012.153 724.553 724.553 0 0 1 .121 1.605c.042.566.144 1.198.582 1.593a.886.886 0 0 0 .345.19c.096.026.195.044.294.063a1523.686 1523.686 0 0 1 1.454.285l.206.04.324.064.023.005.092.018.253.05.023.004.49.097.02.004.44.086.158.031.039.008.591.117.157.03.023.005.11.022.212.041.061.012.04.008.207.041.052.01.033.007a23.221 23.221 0 0 0 .27.052l.054.01c.117.023.117.023.15.068a.167.167 0 0 1 .005.104.129.129 0 0 1-.077.069 1.218 1.218 0 0 1-.033.006l-.02.004-.068.014-.055.011-.185.037-.098.02-.191.037-.159.031a4.827 4.827 0 0 1-.023.005l-.046.009a2143.673 2143.673 0 0 1-2.57.506l-.022.004-.416.082-.221.044-.02.004-.582.114-.15.03c-.008 0-.015.002-.022.003l-.083.017-.242.047-.148.029-.085.016c-.215.036-.215.036-.417.116l-.017.009a1.13 1.13 0 0 0-.383.366l-.01.014a2.223 2.223 0 0 0-.332.98 6.601 6.601 0 0 0-.037.402 87.75 87.75 0 0 0-.055.726l-.027.369-.002.023-.01.12-.018.241c0 .009 0 .017-.002.025l-.028.377-.002.025-.01.129a2873.511 2873.511 0 0 1-.111 1.463l-.01.129-.002.026a560.399 560.399 0 0 1-.094 1.243l-.014.181-.072.948-.002.027-.01.136-.003.027-.004.055-.068.899-.01.126-.002.025a2626.976 2626.976 0 0 0-.06.787l-.017.232a455.17 455.17 0 0 1-.019.242l-.007.095-.002.027-.006.072c0 .008 0 .015-.002.022l-.001.02-.002.019c-.007.036-.028.06-.054.082a.146.146 0 0 1-.089.01.143.143 0 0 1-.074-.076c-.005-.03-.007-.061-.01-.092l-.002-.028-.007-.095a52.446 52.446 0 0 0-.033-.431 369.08 369.08 0 0 1-.09-1.194l-.036-.46-.002-.03a3049.124 3049.124 0 0 1-.09-1.186l-.005-.063-.002-.031-.012-.157-.003-.032-.054-.715-.002-.031-.054-.703-.002-.03-.02-.271-.05-.636-.003-.055-.002-.027-.005-.055-.01-.137-.044-.58a115.716 115.716 0 0 1-.008-.102l-.002-.026-.01-.127a730.798 730.798 0 0 1-.121-1.605c-.042-.566-.144-1.198-.582-1.593a.886.886 0 0 0-.344-.19c-.099-.026-.2-.044-.3-.064l-.094-.018-.162-.032-.239-.046-.111-.022-.023-.005-.16-.031-.592-.116-.02-.004-.176-.035-.4-.079-.123-.024-.846-.167-.3-.059-.07-.013-.022-.005a377.343 377.343 0 0 1-.16-.031l-.53-.105-.382-.075-.21-.041-.06-.012a141.382 141.382 0 0 1-.242-.048l-.05-.01-.05-.01a23.465 23.465 0 0 0-.304-.058c-.118-.023-.118-.023-.151-.068a.166.166 0 0 1-.005-.104.129.129 0 0 1 .077-.069.935.935 0 0 1 .052-.01 5.41 5.41 0 0 1 .069-.014l.056-.011.188-.038.1-.02.193-.037a18923.02 18923.02 0 0 0 1.98-.39l.63-.124.163-.033.094-.018.023-.005.277-.054.248-.05.022-.003.623-.123.151-.03.022-.003a25.038 25.038 0 0 0 .322-.063 74.278 74.278 0 0 0 .23-.045c.14-.027.14-.027.28-.062l.016-.005c.266-.079.466-.313.596-.555l.028-.054.01-.02c.118-.233.187-.492.22-.752l.005-.033a6.99 6.99 0 0 0 .033-.353l.007-.098a123.077 123.077 0 0 0 .033-.43 673.776 673.776 0 0 0 .07-.928l.011-.145.023-.304.003-.03.037-.489v-.017a13250.913 13250.913 0 0 0 .207-2.708c0-.016.002-.031.003-.047l.011-.142.002-.024.02-.261.086-1.137.007-.093.002-.023.026-.343.002-.022.017-.22.008-.107.001-.022a3539.501 3539.501 0 0 0 .066-.866L7.367.38l.005-.059.006-.08.002-.023.005-.062.001-.022.002-.02.002-.018c.007-.037.027-.06.054-.084a.146.146 0 0 1 .089-.01Z"/></svg>