<svg width="1822" height="2828" viewBox="0 0 1822 2828" fill="none" xmlns="http://www.w3.org/2000/svg">
<path d="M915 1C919.491 3.28767 921.892 5.45519 924 10C924.658 13.5654 924.903 17.1449 925.162 20.7585C925.295 22.4096 925.295 22.4096 925.432 24.094C925.729 27.8076 926.008 31.5223 926.287 35.2373C926.499 37.9248 926.712 40.6122 926.926 43.2995C927.388 49.131 927.842 54.9632 928.29 60.7958C928.938 69.2303 929.605 77.6633 930.277 86.0959C931.779 104.944 933.258 123.794 934.734 142.644C935.504 152.478 936.276 162.313 937.047 172.147C938.474 190.326 939.899 208.505 941.324 226.684C942.74 244.751 944.156 262.818 945.573 280.886C945.707 282.59 945.707 282.59 945.843 284.328C946.297 290.105 946.75 295.881 947.203 301.657C950.405 342.477 953.606 383.297 956.807 424.117C956.999 426.577 957.192 429.036 957.385 431.495C957.48 432.714 957.576 433.932 957.674 435.187C958.157 441.344 958.64 447.501 959.122 453.658C959.218 454.878 959.314 456.098 959.412 457.354C961.615 485.446 963.817 513.538 966.02 541.629C966.161 543.427 966.161 543.427 966.305 545.261C968.471 572.875 970.636 600.489 972.802 628.103C972.895 629.279 972.987 630.456 973.082 631.669C973.915 642.285 974.747 652.902 975.58 663.518C977.537 688.469 979.494 713.419 981.45 738.37C981.62 740.545 981.791 742.719 981.961 744.894C982.045 745.966 982.129 747.038 982.216 748.143C982.385 750.3 982.554 752.457 982.723 754.613C983.143 759.965 983.562 765.316 983.982 770.667C985.767 793.449 987.555 816.231 989.346 839.013C989.504 841.025 989.662 843.037 989.82 845.05C989.978 847.057 990.136 849.063 990.294 851.07C990.372 852.062 990.45 853.053 990.53 854.075C990.922 859.057 991.314 864.039 991.705 869.021C993.636 893.575 995.557 918.129 997.466 942.685C998.754 959.248 1000.05 975.81 1001.34 992.373C1002.18 1003.02 1003.01 1013.66 1003.83 1024.31C1004.38 1031.48 1004.94 1038.65 1005.51 1045.82C1005.83 1049.92 1006.15 1054.01 1006.46 1058.11C1010.8 1136.89 1010.8 1136.89 1045 1205C1053.46 1198.6 1061.87 1192.17 1070.06 1185.44C1075.92 1180.63 1081.91 1176.03 1088 1171.52C1092.77 1167.97 1097.41 1164.28 1102 1160.5C1107.88 1155.67 1113.88 1151.05 1120 1146.52C1124.77 1142.97 1129.41 1139.28 1134 1135.5C1139.88 1130.67 1145.88 1126.05 1152 1121.52C1156.77 1117.97 1161.41 1114.28 1166 1110.5C1171.24 1106.19 1176.55 1102.03 1182 1098C1188.21 1093.4 1194.24 1088.61 1200.22 1083.71C1205.79 1079.15 1211.47 1074.76 1217.19 1070.39C1220.79 1067.63 1224.36 1064.85 1227.94 1062.06C1228.71 1061.46 1229.48 1060.86 1230.28 1060.24C1235.42 1056.24 1240.55 1052.22 1245.67 1048.18C1251.21 1043.83 1256.77 1039.51 1262.33 1035.19C1266.9 1031.64 1271.45 1028.08 1276 1024.5C1277.11 1023.63 1278.23 1022.75 1279.34 1021.88C1282.13 1019.69 1284.91 1017.48 1287.69 1015.28C1289.32 1014 1290.94 1012.72 1292.56 1011.44C1293.33 1010.83 1294.09 1010.22 1294.87 1009.59C1299.86 1005.68 1303.39 1002.96 1309.94 1003.06C1314.54 1003.8 1316.8 1005.65 1320 1009C1322.12 1012.41 1322.5 1015.67 1321.85 1019.65C1320.09 1024.53 1316.57 1028.39 1313.33 1032.37C1311.57 1034.53 1309.86 1036.72 1308.15 1038.92C1306.78 1040.67 1305.4 1042.42 1304.02 1044.16C1300.66 1048.43 1297.33 1052.71 1294 1057C1289.41 1062.91 1284.81 1068.8 1280.18 1074.67C1276.44 1079.43 1272.72 1084.22 1269 1089C1264.41 1094.91 1259.81 1100.8 1255.18 1106.67C1251.44 1111.43 1247.72 1116.22 1244 1121C1239.41 1126.91 1234.81 1132.8 1230.18 1138.67C1226.44 1143.43 1222.72 1148.22 1219 1153C1212.59 1161.25 1206.15 1169.46 1199.69 1177.67C1193.49 1185.53 1187.33 1193.42 1181.19 1201.33C1177.21 1206.46 1173.2 1211.57 1169.18 1216.67C1164.83 1222.2 1160.51 1227.76 1156.2 1233.32C1153.11 1237.3 1150.01 1241.27 1146.88 1245.21C1142.4 1250.9 1138 1256.63 1133.66 1262.43C1132.84 1263.53 1132.84 1263.53 1132 1264.65C1130.67 1266.43 1129.33 1268.22 1128 1270C1128.63 1270.12 1129.25 1270.24 1129.9 1270.36C1138.72 1272.05 1147.55 1273.75 1156.38 1275.44C1157.15 1275.59 1157.93 1275.73 1158.72 1275.89C1182.55 1280.45 1206.37 1285.03 1230.19 1289.62C1285.06 1300.18 1339.93 1310.72 1394.81 1321.19C1395.48 1321.31 1396.14 1321.44 1396.82 1321.57C1408.47 1323.79 1420.12 1326.01 1431.77 1328.24C1454.39 1332.55 1477.01 1336.87 1499.63 1341.19C1500.43 1341.34 1501.23 1341.49 1502.05 1341.65C1513.5 1343.84 1524.96 1346.03 1536.41 1348.22C1538.87 1348.69 1541.33 1349.16 1543.79 1349.63C1547.06 1350.25 1550.34 1350.88 1553.61 1351.5C1559.38 1352.61 1565.14 1353.71 1570.9 1354.81C1575.05 1355.6 1579.2 1356.39 1583.35 1357.19C1607.03 1361.71 1630.71 1366.24 1654.4 1370.76C1660.75 1371.97 1667.09 1373.19 1673.44 1374.4C1674.33 1374.57 1675.21 1374.74 1676.13 1374.91C1679.69 1375.59 1683.24 1376.27 1686.8 1376.95C1696.26 1378.76 1705.71 1380.56 1715.17 1382.37C1717.63 1382.84 1720.1 1383.31 1722.57 1383.78C1724.18 1384.09 1725.79 1384.39 1727.4 1384.7C1735.76 1386.3 1744.12 1387.9 1752.48 1389.5C1754.6 1389.91 1756.71 1390.31 1758.82 1390.72C1760.17 1390.98 1761.53 1391.24 1762.89 1391.5C1770.37 1392.93 1777.86 1394.35 1785.35 1395.74C1788.81 1396.38 1792.27 1397.03 1795.73 1397.68C1797.88 1398.08 1800.04 1398.46 1802.2 1398.85C1816.36 1401.52 1816.36 1401.52 1820.41 1406.86C1821.93 1411.28 1822.18 1414.5 1821.03 1419.04C1818.85 1423.19 1816.09 1425.62 1811.68 1427.15C1810.34 1427.43 1809 1427.69 1807.65 1427.93C1806.88 1428.09 1806.11 1428.24 1805.32 1428.4C1802.55 1428.95 1799.77 1429.48 1797 1430C1794.75 1430.44 1792.51 1430.88 1790.26 1431.33C1782.79 1432.79 1775.3 1434.23 1767.82 1435.65C1763.88 1436.41 1759.93 1437.16 1755.98 1437.92C1748.22 1439.41 1740.45 1440.89 1732.68 1442.37C1726.27 1443.6 1719.85 1444.83 1713.44 1446.05C1712.51 1446.23 1711.59 1446.41 1710.64 1446.59C1708.75 1446.95 1706.87 1447.31 1704.98 1447.67C1640.37 1460.04 1575.74 1472.36 1511.11 1484.68C1471.63 1492.2 1432.16 1499.73 1392.69 1507.29C1391.4 1507.53 1391.4 1507.53 1390.07 1507.79C1375.64 1510.55 1361.22 1513.31 1346.79 1516.08C1308.7 1523.37 1270.62 1530.65 1232.52 1537.89C1231.68 1538.05 1230.84 1538.21 1229.97 1538.38C1213.78 1541.45 1197.58 1544.53 1181.39 1547.6C1175.54 1548.71 1169.7 1549.82 1163.86 1550.93C1160.5 1551.57 1157.15 1552.2 1153.79 1552.84C1150.17 1553.52 1146.54 1554.21 1142.92 1554.9C1141.33 1555.2 1141.33 1555.2 1139.71 1555.51C1138.74 1555.69 1137.78 1555.87 1136.78 1556.06C1135.95 1556.22 1135.12 1556.38 1134.26 1556.54C1132.15 1556.97 1130.08 1557.46 1128 1558C1134.01 1566.14 1140.08 1574.19 1146.5 1582C1151.33 1587.88 1155.95 1593.88 1160.48 1600C1164.03 1604.77 1167.72 1609.41 1171.5 1614C1175.81 1619.24 1179.97 1624.55 1184 1630C1188.6 1636.21 1193.39 1642.24 1198.29 1648.22C1202.85 1653.79 1207.24 1659.47 1211.61 1665.19C1214.37 1668.79 1217.15 1672.36 1219.94 1675.94C1220.54 1676.71 1221.14 1677.48 1221.76 1678.28C1225.76 1683.42 1229.78 1688.55 1233.82 1693.67C1238.17 1699.21 1242.49 1704.77 1246.81 1710.33C1250.36 1714.9 1253.92 1719.45 1257.5 1724C1262.3 1730.09 1267.05 1736.21 1271.81 1742.33C1275.36 1746.9 1278.92 1751.45 1282.5 1756C1287.29 1762.08 1292.05 1768.2 1296.8 1774.31C1300.01 1778.45 1303.24 1782.58 1306.49 1786.69C1308.26 1788.93 1310.02 1791.18 1311.77 1793.43C1312.98 1794.97 1314.2 1796.5 1315.42 1798.03C1319.56 1803.38 1322.35 1807.1 1322 1814C1320.38 1818.68 1318.25 1821.45 1314 1824C1310 1825.21 1307.2 1825.48 1303.28 1823.91C1299.05 1821.45 1295.32 1818.54 1291.5 1815.5C1290.7 1814.87 1289.91 1814.25 1289.09 1813.6C1286.72 1811.74 1284.36 1809.87 1282 1808C1280.22 1806.6 1278.44 1805.2 1276.65 1803.8C1275.55 1802.93 1274.44 1802.06 1273.33 1801.19C1268.57 1797.44 1263.79 1793.72 1259 1790C1253.1 1785.41 1247.2 1780.81 1241.33 1776.18C1236.57 1772.44 1231.78 1768.72 1227 1765C1218.75 1758.59 1210.54 1752.15 1202.33 1745.69C1194.47 1739.49 1186.58 1733.33 1178.67 1727.19C1173.54 1723.21 1168.43 1719.2 1163.33 1715.18C1158.57 1711.44 1153.78 1707.72 1149 1704C1143.1 1699.41 1137.2 1694.81 1131.33 1690.18C1126.57 1686.44 1121.78 1682.72 1117 1679C1108.75 1672.59 1100.54 1666.15 1092.33 1659.69C1084.48 1653.5 1076.6 1647.35 1068.71 1641.22C1063.23 1636.96 1057.77 1632.68 1052.33 1628.38C1049.93 1626.48 1047.54 1624.69 1045 1623C1025.55 1652.75 1015.57 1689.16 1010.98 1724.09C1010.81 1725.4 1010.64 1726.7 1010.46 1728.04C1008.76 1741.17 1007.65 1754.32 1006.64 1767.52C1006.44 1770.15 1006.23 1772.78 1006.02 1775.41C1005.57 1781.09 1005.13 1786.76 1004.69 1792.43C1004.04 1800.9 1003.37 1809.37 1002.71 1817.84C1001.58 1832.23 1000.45 1846.61 999.336 1860.99C998.21 1875.47 997.081 1889.95 995.947 1904.43C995.875 1905.34 995.803 1906.26 995.73 1907.2C995.365 1911.85 995 1916.51 994.635 1921.17C993.89 1930.68 993.145 1940.19 992.4 1949.7C992.325 1950.66 992.25 1951.61 992.173 1952.6C991.015 1967.39 989.859 1982.18 988.705 1996.97C988.627 1997.96 988.549 1998.96 988.47 1999.98C988.076 2005.02 987.682 2010.06 987.289 2015.1C983.513 2063.47 979.721 2111.84 975.923 2160.21C975.448 2166.26 974.973 2172.31 974.498 2178.36C974.42 2179.36 974.341 2180.36 974.26 2181.39C974.101 2183.42 973.942 2185.44 973.784 2187.46C973.386 2192.52 972.989 2197.59 972.591 2202.65C972.512 2203.65 972.433 2204.66 972.352 2205.69C971.954 2210.76 971.556 2215.83 971.158 2220.91C967.725 2264.63 964.295 2308.36 960.866 2352.09C960.307 2359.21 959.748 2366.33 959.19 2373.46C956.273 2410.65 953.356 2447.85 950.44 2485.04C950.357 2486.1 950.274 2487.16 950.189 2488.25C949.769 2493.6 949.35 2498.95 948.931 2504.29C948.848 2505.35 948.765 2506.41 948.679 2507.5C948.512 2509.64 948.344 2511.78 948.176 2513.92C945.41 2549.2 942.643 2584.49 939.875 2619.77C939.486 2624.73 939.098 2629.68 938.709 2634.63C938.633 2635.61 938.557 2636.58 938.478 2637.58C937.261 2653.1 936.044 2668.62 934.828 2684.14C933.623 2699.52 932.416 2714.91 931.208 2730.3C930.494 2739.4 929.781 2748.49 929.069 2757.59C928.594 2763.66 928.119 2769.72 927.642 2775.78C927.371 2779.23 927.1 2782.69 926.831 2786.14C926.541 2789.85 926.249 2793.56 925.956 2797.27C925.873 2798.34 925.79 2799.41 925.705 2800.51C925.481 2803.34 925.245 2806.17 925 2809C924.928 2809.86 924.855 2810.72 924.78 2811.6C924.666 2812.8 924.666 2812.8 924.55 2814.02C924.486 2814.71 924.422 2815.4 924.356 2816.11C923.544 2820.42 921.012 2823.16 917.75 2825.88C914.102 2827.37 910.848 2827.68 907 2827C902.51 2824.71 900.108 2822.54 898 2818C897.342 2814.43 897.097 2810.86 896.839 2807.24C896.705 2805.59 896.705 2805.59 896.569 2803.91C896.271 2800.19 895.992 2796.48 895.713 2792.76C895.501 2790.08 895.289 2787.39 895.075 2784.7C894.612 2778.87 894.159 2773.04 893.711 2767.2C893.062 2758.77 892.396 2750.34 891.723 2741.9C890.221 2723.06 888.742 2704.21 887.266 2685.36C886.496 2675.52 885.725 2665.69 884.953 2655.85C883.526 2637.67 882.101 2619.5 880.676 2601.32C879.261 2583.25 877.844 2565.18 876.427 2547.11C876.338 2545.98 876.249 2544.84 876.157 2543.67C875.704 2537.9 875.251 2532.12 874.797 2526.34C871.595 2485.52 868.394 2444.7 865.194 2403.88C865.001 2401.42 864.808 2398.96 864.615 2396.5C864.52 2395.29 864.424 2394.07 864.326 2392.81C863.843 2386.66 863.36 2380.5 862.878 2374.34C862.782 2373.12 862.687 2371.9 862.588 2370.65C860.386 2342.55 858.183 2314.46 855.98 2286.37C855.839 2284.57 855.839 2284.57 855.695 2282.74C853.53 2255.13 851.364 2227.51 849.198 2199.9C849.106 2198.72 849.013 2197.54 848.918 2196.33C848.086 2185.71 847.253 2175.1 846.42 2164.48C844.463 2139.53 842.506 2114.58 840.55 2089.63C840.38 2087.46 840.21 2085.28 840.039 2083.11C839.955 2082.03 839.871 2080.96 839.784 2079.86C839.615 2077.7 839.446 2075.54 839.277 2073.39C838.858 2068.04 838.438 2062.68 838.019 2057.33C836.233 2034.55 834.446 2011.77 832.654 1988.99C832.496 1986.97 832.338 1984.96 832.18 1982.95C832.022 1980.94 831.864 1978.94 831.706 1976.93C831.628 1975.94 831.55 1974.95 831.47 1973.93C831.078 1968.94 830.687 1963.96 830.295 1958.98C828.364 1934.43 826.443 1909.87 824.534 1885.32C823.246 1868.75 821.953 1852.19 820.656 1835.63C819.823 1824.98 818.995 1814.34 818.173 1803.69C817.619 1796.52 817.059 1789.35 816.494 1782.18C816.172 1778.08 815.852 1773.99 815.54 1769.89C811.196 1691.11 811.196 1691.11 777 1623C768.136 1629.72 759.325 1636.5 750.666 1643.48C746.024 1647.21 741.308 1650.84 736.563 1654.44C730.932 1658.71 725.399 1663.08 719.938 1667.56C714.078 1672.37 708.093 1676.97 702 1681.48C697.228 1685.03 692.594 1688.72 688 1692.5C682.12 1697.33 676.118 1701.95 670 1706.48C665.228 1710.03 660.594 1713.72 656 1717.5C650.763 1721.81 645.45 1725.97 640 1730C633.788 1734.6 627.762 1739.39 621.785 1744.29C616.213 1748.85 610.534 1753.24 604.809 1757.61C601.213 1760.37 597.639 1763.15 594.063 1765.94C593.291 1766.54 592.519 1767.14 591.723 1767.76C586.58 1771.76 581.45 1775.78 576.328 1779.82C570.794 1784.17 565.233 1788.49 559.672 1792.81C555.104 1796.36 550.546 1799.92 546 1803.5C544.887 1804.37 543.774 1805.25 542.66 1806.12C539.869 1808.31 537.089 1810.52 534.309 1812.72C532.685 1814 531.061 1815.28 529.438 1816.56C528.675 1817.17 527.913 1817.78 527.127 1818.41C522.145 1822.32 518.612 1825.04 512.063 1824.94C507.457 1824.2 505.201 1822.35 502 1819C499.877 1815.58 499.499 1812.32 500.164 1808.33C501.886 1803.53 505.334 1799.76 508.518 1795.84C510.746 1793.07 512.909 1790.26 515.08 1787.45C522.103 1778.37 529.212 1769.35 536.314 1760.33C542.506 1752.47 548.667 1744.58 554.808 1736.67C558.794 1731.54 562.798 1726.43 566.817 1721.33C570.563 1716.57 574.283 1711.78 578 1707C582.587 1701.09 587.191 1695.2 591.817 1689.33C595.563 1684.57 599.283 1679.78 603 1675C609.407 1666.75 615.853 1658.54 622.314 1650.33C628.506 1642.47 634.667 1634.58 640.808 1626.67C644.794 1621.54 648.798 1616.43 652.817 1611.33C657.169 1605.8 661.487 1600.24 665.804 1594.68C668.893 1590.7 671.989 1586.73 675.116 1582.79C679.599 1577.1 684.002 1571.37 688.336 1565.57C688.884 1564.84 689.432 1564.11 689.997 1563.35C691.332 1561.57 692.666 1559.78 694 1558C659.094 1551.19 624.185 1544.39 589.246 1537.74C588.243 1537.55 588.243 1537.55 587.219 1537.35C579.553 1535.89 571.887 1534.44 564.221 1532.98C549.233 1530.13 534.246 1527.28 519.26 1524.43C516.732 1523.95 514.205 1523.47 511.678 1522.99C471.095 1515.26 430.518 1507.5 389.943 1499.74C384.115 1498.62 378.288 1497.51 372.46 1496.39C371.497 1496.21 370.534 1496.02 369.542 1495.83C367.596 1495.46 365.651 1495.09 363.705 1494.72C351.126 1492.31 338.546 1489.91 325.966 1487.5C292.116 1481.02 258.266 1474.55 224.415 1468.08C216.253 1466.52 208.091 1464.96 199.929 1463.4C190.462 1461.58 180.995 1459.77 171.527 1457.96C170.763 1457.82 169.998 1457.67 169.21 1457.52C147.912 1453.45 126.609 1449.41 105.301 1445.39C100.183 1444.42 95.0644 1443.46 89.9461 1442.49C88.5255 1442.22 87.1048 1441.95 85.6841 1441.68C83.5872 1441.29 81.4902 1440.89 79.3933 1440.49C70.7564 1438.86 62.1182 1437.24 53.4787 1435.62C48.6773 1434.72 43.8769 1433.81 39.0769 1432.9C36.8779 1432.49 34.6785 1432.07 32.4786 1431.66C29.4926 1431.11 26.5083 1430.54 23.5243 1429.98C22.6679 1429.82 21.8114 1429.66 20.929 1429.5C5.94789 1426.62 5.9479 1426.62 2.00013 1421C-0.26778 1415.93 -0.20032 1412.05 1.58998 1406.86C6.32973 1400.61 14.635 1399.75 21.8283 1398.43C23.0544 1398.19 24.2806 1397.95 25.544 1397.71C28.2888 1397.18 31.0351 1396.66 33.7827 1396.15C38.4323 1395.28 43.0782 1394.39 47.724 1393.5C54.9918 1392.12 62.2614 1390.74 69.5319 1389.36C81.9061 1387.02 94.2761 1384.66 106.646 1382.29C113.069 1381.06 119.493 1379.84 125.917 1378.61C126.575 1378.48 127.234 1378.36 127.912 1378.23C143.412 1375.26 158.913 1372.31 174.415 1369.36C209.221 1362.72 244.023 1356.08 278.826 1349.42C288.642 1347.55 298.458 1345.67 308.275 1343.8C311.609 1343.16 314.944 1342.52 318.279 1341.88C319.525 1341.65 319.525 1341.65 320.796 1341.4C330.162 1339.61 339.529 1337.82 348.896 1336.03C350.182 1335.79 350.182 1335.79 351.495 1335.54C364.081 1333.13 376.667 1330.73 389.252 1328.32C410.929 1324.18 432.606 1320.03 454.283 1315.89C458.043 1315.17 461.802 1314.46 465.561 1313.74C507.265 1305.77 548.971 1297.81 590.684 1289.88C592.388 1289.56 594.093 1289.23 595.798 1288.91C611.029 1286.02 626.26 1283.12 641.492 1280.23C647.263 1279.14 653.034 1278.04 658.805 1276.95C663.35 1276.08 667.895 1275.22 672.441 1274.36C674.739 1273.93 677.037 1273.49 679.336 1273.05C680.37 1272.86 681.404 1272.66 682.47 1272.46C683.412 1272.28 684.355 1272.1 685.326 1271.92C686.138 1271.76 686.951 1271.61 687.787 1271.45C689.877 1271.03 691.937 1270.53 694 1270C687.995 1261.86 681.925 1253.81 675.5 1246C670.665 1240.12 666.048 1234.12 661.52 1228C657.969 1223.23 654.278 1218.59 650.5 1214C646.194 1208.76 642.034 1203.45 638 1198C633.4 1191.79 628.613 1185.76 623.713 1179.78C619.151 1174.21 614.755 1168.53 610.387 1162.81C607.63 1159.21 604.845 1155.64 602.063 1152.06C601.462 1151.29 600.861 1150.52 600.243 1149.72C596.238 1144.58 592.216 1139.45 588.184 1134.33C583.83 1128.79 579.511 1123.23 575.192 1117.67C571.641 1113.1 568.079 1108.55 564.5 1104C560.313 1098.68 556.152 1093.34 552 1088C546.027 1080.31 540.023 1072.65 534 1065C530.328 1060.34 526.661 1055.67 523 1051C522.15 1049.92 522.15 1049.92 521.282 1048.81C517.694 1044.23 514.124 1039.64 510.571 1035.03C509.184 1033.24 507.779 1031.46 506.367 1029.69C502.291 1024.42 499.655 1020.79 500 1014C501.62 1009.32 503.749 1006.55 508 1004C511.996 1002.79 514.795 1002.52 518.723 1004.09C522.948 1006.55 526.678 1009.46 530.5 1012.5C531.295 1013.13 532.091 1013.75 532.91 1014.4C535.277 1016.26 537.639 1018.13 540 1020C541.781 1021.4 543.563 1022.8 545.346 1024.2C546.454 1025.07 547.563 1025.94 548.67 1026.81C553.432 1030.56 558.215 1034.28 563 1038C568.905 1042.59 574.797 1047.19 580.672 1051.82C585.434 1055.56 590.215 1059.28 595 1063C603.247 1069.41 611.463 1075.85 619.668 1082.31C627.533 1088.51 635.422 1094.67 643.327 1100.81C648.456 1104.79 653.569 1108.8 658.672 1112.82C663.434 1116.56 668.215 1120.28 673 1124C678.905 1128.59 684.797 1133.19 690.672 1137.82C695.434 1141.56 700.215 1145.28 705 1149C713.247 1155.41 721.463 1161.85 729.668 1168.31C737.522 1174.5 745.399 1180.65 753.294 1186.78C758.773 1191.04 764.235 1195.32 769.674 1199.63C772.069 1201.52 774.459 1203.31 777 1205C796.396 1175.33 806.402 1139 810.997 1104.16C811.254 1102.21 811.254 1102.21 811.517 1100.23C813.303 1086.4 814.444 1072.52 815.506 1058.63C815.8 1054.81 816.104 1050.99 816.406 1047.17C816.937 1040.45 817.462 1033.74 817.982 1027.02C818.771 1016.83 819.57 1006.65 820.371 996.467C821.752 978.892 823.126 961.317 824.496 943.742C825.877 926.021 827.262 908.3 828.652 890.58C828.74 889.464 828.827 888.347 828.917 887.197C829.365 881.484 829.813 875.771 830.261 870.058C831.195 858.151 832.129 846.244 833.062 834.337C833.157 833.123 833.252 831.909 833.351 830.658C834.852 811.495 836.352 792.332 837.851 773.169C837.903 772.508 837.954 771.848 838.007 771.168C838.538 764.381 839.069 757.593 839.6 750.806C843.905 695.749 848.217 640.693 852.535 585.638C852.605 584.74 852.676 583.842 852.748 582.917C856.164 539.361 859.581 495.805 862.998 452.249C863.144 450.388 863.29 448.526 863.436 446.665C863.874 441.079 864.312 435.492 864.751 429.905C864.823 428.984 864.895 428.062 864.97 427.112C865.773 416.873 866.577 406.635 867.38 396.396C870.881 351.774 874.38 307.152 877.877 262.529C878.165 258.854 878.453 255.179 878.741 251.505C878.812 250.599 878.883 249.693 878.956 248.76C880.008 235.323 881.062 221.886 882.115 208.45C882.217 207.149 882.217 207.149 882.321 205.822C882.997 197.198 883.673 188.574 884.35 179.949C884.681 175.728 885.012 171.506 885.343 167.285C885.44 166.042 885.44 166.042 885.54 164.773C886.576 151.56 887.61 138.347 888.645 125.134C889.67 112.04 890.697 98.946 891.724 85.8522C892.33 78.1313 892.935 70.4103 893.538 62.6892C893.987 56.9489 894.438 51.2087 894.889 45.4686C895.071 43.1509 895.252 40.8332 895.433 38.5154C895.678 35.3729 895.925 32.2306 896.173 29.0883C896.277 27.7392 896.277 27.7392 896.384 26.3628C896.579 23.9075 896.785 21.4536 897 19C897.07 18.1734 897.14 17.3467 897.212 16.495C897.288 15.6982 897.364 14.9014 897.442 14.0804C897.507 13.3753 897.573 12.6702 897.64 11.9437C898.444 7.60963 900.966 4.86176 904.25 2.125C907.898 0.632493 911.153 0.321037 915 1Z" fill="black"/>
</svg>
